<svg width="295" height="130" viewBox="0 0 295 130" fill="none" xmlns="http://www.w3.org/2000/svg">
<g filter="url(#filter0_d_1_21869)">
<path d="M33.08 41.92C34.9933 41.5467 36.8367 41.29 38.61 41.15C40.3833 41.01 42.11 40.94 43.79 40.94C49.1567 40.94 53.8933 41.7567 58 43.39C62.1067 45.0233 65.56 47.2633 68.36 50.11C71.16 52.91 73.26 56.2233 74.66 60.05C76.1067 63.83 76.83 67.89 76.83 72.23C76.83 77.69 75.85 82.6833 73.89 87.21C71.9767 91.69 69.2933 95.5633 65.84 98.83C62.3867 102.097 58.2567 104.64 53.45 106.46C48.69 108.233 43.4633 109.12 37.77 109.12C34.4567 109.12 31.2833 108.77 28.25 108.07C25.2633 107.37 22.44 106.437 19.78 105.27C17.1667 104.057 14.74 102.68 12.5 101.14C10.26 99.5533 8.23 97.8733 6.41 96.1L13.13 87.14C13.83 86.2067 14.6467 85.5067 15.58 85.04C16.5133 84.5267 17.5167 84.27 18.59 84.27C19.99 84.27 21.2967 84.6667 22.51 85.46C23.77 86.2067 25.1233 87.0467 26.57 87.98C28.0633 88.8667 29.79 89.6833 31.75 90.43C33.71 91.1767 36.1367 91.55 39.03 91.55C41.9233 91.55 44.3967 91.0833 46.45 90.15C48.5033 89.17 50.16 87.8633 51.42 86.23C52.7267 84.55 53.66 82.6133 54.22 80.42C54.8267 78.18 55.13 75.8 55.13 73.28C55.13 68.3333 53.73 64.5767 50.93 62.01C48.13 59.3967 44.1633 58.09 39.03 58.09C34.4567 58.09 29.9767 58.9533 25.59 60.68L12.15 57.04L20.83 6.01H73.05V14.97C73.05 16.4633 72.8167 17.8167 72.35 19.03C71.8833 20.2433 71.1367 21.3167 70.11 22.25C69.13 23.1367 67.8233 23.8367 66.19 24.35C64.5567 24.8167 62.5967 25.05 60.31 25.05H35.95L33.08 41.92ZM161.611 56.97C161.611 65.8833 160.654 73.6067 158.741 80.14C156.828 86.6733 154.168 92.0867 150.761 96.38C147.401 100.673 143.388 103.87 138.721 105.97C134.101 108.07 129.084 109.12 123.671 109.12C118.258 109.12 113.241 108.07 108.621 105.97C104.048 103.87 100.081 100.673 96.7209 96.38C93.3609 92.0867 90.7243 86.6733 88.8109 80.14C86.9443 73.6067 86.0109 65.8833 86.0109 56.97C86.0109 48.0567 86.9443 40.3333 88.8109 33.8C90.7243 27.2667 93.3609 21.8533 96.7209 17.56C100.081 13.2667 104.048 10.0933 108.621 8.03999C113.241 5.94 118.258 4.89 123.671 4.89C129.084 4.89 134.101 5.94 138.721 8.03999C143.388 10.0933 147.401 13.2667 150.761 17.56C154.168 21.8533 156.828 27.2667 158.741 33.8C160.654 40.3333 161.611 48.0567 161.611 56.97ZM139.211 56.97C139.211 49.9233 138.768 44.16 137.881 39.68C136.994 35.1533 135.804 31.6067 134.311 29.04C132.864 26.4733 131.208 24.7233 129.341 23.79C127.474 22.81 125.584 22.32 123.671 22.32C121.758 22.32 119.868 22.81 118.001 23.79C116.181 24.7233 114.548 26.4733 113.101 29.04C111.701 31.6067 110.558 35.1533 109.671 39.68C108.831 44.16 108.411 49.9233 108.411 56.97C108.411 64.0633 108.831 69.85 109.671 74.33C110.558 78.81 111.701 82.3567 113.101 84.97C114.548 87.5367 116.181 89.31 118.001 90.29C119.868 91.2233 121.758 91.69 123.671 91.69C125.584 91.69 127.474 91.2233 129.341 90.29C131.208 89.31 132.864 87.5367 134.311 84.97C135.804 82.3567 136.994 78.81 137.881 74.33C138.768 69.85 139.211 64.0633 139.211 56.97ZM218.042 30.72C218.042 34.4533 217.365 37.86 216.012 40.94C214.659 44.02 212.862 46.68 210.622 48.92C208.382 51.1133 205.769 52.8167 202.782 54.03C199.842 55.2433 196.762 55.85 193.542 55.85C189.995 55.85 186.729 55.2433 183.742 54.03C180.802 52.8167 178.235 51.1133 176.042 48.92C173.895 46.68 172.215 44.02 171.002 40.94C169.789 37.86 169.182 34.4533 169.182 30.72C169.182 26.8467 169.789 23.3467 171.002 20.22C172.215 17.0467 173.895 14.34 176.042 12.1C178.235 9.85999 180.802 8.13333 183.742 6.91999C186.729 5.65999 189.995 5.02999 193.542 5.02999C197.089 5.02999 200.355 5.65999 203.342 6.91999C206.375 8.13333 208.965 9.85999 211.112 12.1C213.305 14.34 215.009 17.0467 216.222 20.22C217.435 23.3467 218.042 26.8467 218.042 30.72ZM201.382 30.72C201.382 28.34 201.172 26.38 200.752 24.84C200.379 23.2533 199.842 21.9933 199.142 21.06C198.442 20.1267 197.602 19.4733 196.622 19.1C195.689 18.7267 194.662 18.54 193.542 18.54C192.422 18.54 191.395 18.7267 190.462 19.1C189.529 19.4733 188.735 20.1267 188.082 21.06C187.429 21.9933 186.915 23.2533 186.542 24.84C186.169 26.38 185.982 28.34 185.982 30.72C185.982 32.96 186.169 34.8267 186.542 36.32C186.915 37.8133 187.429 39.0033 188.082 39.89C188.735 40.7767 189.529 41.4067 190.462 41.78C191.395 42.1533 192.422 42.34 193.542 42.34C194.662 42.34 195.689 42.1533 196.622 41.78C197.602 41.4067 198.442 40.7767 199.142 39.89C199.842 39.0033 200.379 37.8133 200.752 36.32C201.172 34.8267 201.382 32.96 201.382 30.72ZM250.102 9.23C250.802 8.43666 251.665 7.71333 252.692 7.06C253.719 6.36 255.142 6.01 256.962 6.01H272.782L195.922 104.92C195.222 105.807 194.335 106.553 193.262 107.16C192.235 107.72 190.975 108 189.482 108H173.242L250.102 9.23ZM276.702 84.06C276.702 87.7933 276.025 91.2233 274.672 94.35C273.319 97.43 271.522 100.09 269.282 102.33C267.042 104.523 264.429 106.227 261.442 107.44C258.502 108.653 255.422 109.26 252.202 109.26C248.655 109.26 245.389 108.653 242.402 107.44C239.462 106.227 236.895 104.523 234.702 102.33C232.555 100.09 230.875 97.43 229.662 94.35C228.449 91.2233 227.842 87.7933 227.842 84.06C227.842 80.1867 228.449 76.6867 229.662 73.56C230.875 70.3867 232.555 67.68 234.702 65.44C236.895 63.2 239.462 61.4733 242.402 60.26C245.389 59 248.655 58.37 252.202 58.37C255.749 58.37 259.015 59 262.002 60.26C265.035 61.4733 267.625 63.2 269.772 65.44C271.965 67.68 273.669 70.3867 274.882 73.56C276.095 76.6867 276.702 80.1867 276.702 84.06ZM260.042 84.06C260.042 81.7267 259.832 79.79 259.412 78.25C259.039 76.6633 258.502 75.4033 257.802 74.47C257.102 73.5367 256.262 72.8833 255.282 72.51C254.349 72.1367 253.322 71.95 252.202 71.95C251.082 71.95 250.055 72.1367 249.122 72.51C248.189 72.8833 247.395 73.5367 246.742 74.47C246.089 75.4033 245.575 76.6633 245.202 78.25C244.829 79.79 244.642 81.7267 244.642 84.06C244.642 86.3 244.829 88.1667 245.202 89.66C245.575 91.1533 246.089 92.3433 246.742 93.23C247.395 94.1167 248.189 94.7467 249.122 95.12C250.055 95.4933 251.082 95.68 252.202 95.68C253.322 95.68 254.349 95.4933 255.282 95.12C256.262 94.7467 257.102 94.1167 257.802 93.23C258.502 92.3433 259.039 91.1533 259.412 89.66C259.832 88.1667 260.042 86.3 260.042 84.06Z" fill="url(#paint0_linear_1_21869)"/>
<path d="M33.08 41.92L31.1083 41.5846L30.623 44.4371L33.463 43.883L33.08 41.92ZM38.61 41.15L38.4526 39.1562L38.61 41.15ZM58 43.39L57.2609 45.2484H57.2609L58 43.39ZM68.36 50.11L66.9342 51.5125L66.9399 51.5184L66.9458 51.5242L68.36 50.11ZM74.66 60.05L72.7818 60.7372L72.7868 60.751L72.7921 60.7649L74.66 60.05ZM73.89 87.21L72.0546 86.4153L72.0507 86.4245L73.89 87.21ZM65.84 98.83L64.4656 97.3771L65.84 98.83ZM53.45 106.46L54.1482 108.334L54.1582 108.33L53.45 106.46ZM28.25 108.07L27.7936 110.017L27.8003 110.019L28.25 108.07ZM19.78 105.27L18.9378 107.084L18.9571 107.093L18.9767 107.102L19.78 105.27ZM12.5 101.14L11.344 102.772L11.3554 102.78L11.3669 102.788L12.5 101.14ZM6.41 96.1L4.81 94.9L3.75552 96.306L5.01427 97.5325L6.41 96.1ZM13.13 87.14L14.73 88.34L13.13 87.14ZM15.58 85.04L16.4744 86.8289L16.5095 86.8113L16.5438 86.7924L15.58 85.04ZM22.51 85.46L21.4155 87.1339L21.4524 87.1581L21.4904 87.1806L22.51 85.46ZM26.57 87.98L25.4857 89.6606L25.517 89.6807L25.5489 89.6997L26.57 87.98ZM46.45 90.15L47.2776 91.9707L47.2946 91.963L47.3115 91.955L46.45 90.15ZM51.42 86.23L49.8413 85.0021L49.8364 85.0084L51.42 86.23ZM54.22 80.42L52.2896 79.8972L52.2858 79.9112L52.2822 79.9252L54.22 80.42ZM50.93 62.01L49.5654 63.4721L49.5719 63.4782L49.5786 63.4843L50.93 62.01ZM25.59 60.68L25.0672 62.6105L25.7063 62.7836L26.3225 62.541L25.59 60.68ZM12.15 57.04L10.1783 56.7046L9.87369 58.4956L11.6272 58.9705L12.15 57.04ZM20.83 6.01V4.01H19.1415L18.8583 5.67463L20.83 6.01ZM73.05 6.01H75.05V4.01H73.05V6.01ZM72.35 19.03L70.4833 18.312L70.4833 18.312L72.35 19.03ZM70.11 22.25L71.4518 23.7331L71.4553 23.7299L70.11 22.25ZM66.19 24.35L66.7394 26.273L66.7646 26.2658L66.7897 26.258L66.19 24.35ZM35.95 25.05V23.05H34.2615L33.9783 24.7146L35.95 25.05ZM33.463 43.883C35.3088 43.5228 37.0766 43.2773 38.7674 43.1438L38.4526 39.1562C36.5967 39.3027 34.6779 39.5705 32.697 39.957L33.463 43.883ZM38.7674 43.1438C40.4914 43.0077 42.1655 42.94 43.79 42.94V38.94C42.0545 38.94 40.2753 39.0123 38.4526 39.1562L38.7674 43.1438ZM43.79 42.94C48.9563 42.94 53.4339 43.7263 57.2609 45.2484L58.7391 41.5316C54.3528 39.787 49.357 38.94 43.79 38.94V42.94ZM57.2609 45.2484C61.1372 46.7901 64.3488 48.884 66.9342 51.5125L69.7859 48.7075C66.7712 45.6426 63.0762 43.2565 58.7391 41.5316L57.2609 45.2484ZM66.9458 51.5242C69.534 54.1124 71.4787 57.1756 72.7818 60.7372L76.5383 59.3628C75.0413 55.2711 72.786 51.7076 69.7742 48.6958L66.9458 51.5242ZM72.7921 60.7649C74.1453 64.3006 74.83 68.1166 74.83 72.23H78.83C78.83 67.6634 78.068 63.3594 76.5279 59.3351L72.7921 60.7649ZM74.83 72.23C74.83 77.446 73.895 82.1651 72.0547 86.4153L75.7253 88.0047C77.805 83.2016 78.83 77.934 78.83 72.23H74.83ZM72.0507 86.4245C70.2423 90.6589 67.7149 94.3034 64.4656 97.3771L67.2144 100.283C70.8718 96.8233 73.7111 92.7211 75.7293 87.9955L72.0507 86.4245ZM64.4656 97.3771C61.2197 100.448 57.3212 102.856 52.7418 104.59L54.1582 108.33C59.1921 106.424 63.5537 103.746 67.2144 100.283L64.4656 97.3771ZM52.7518 104.586C48.2405 106.267 43.2536 107.12 37.77 107.12V111.12C43.6731 111.12 49.1395 110.2 54.1482 108.334L52.7518 104.586ZM37.77 107.12C34.5984 107.12 31.5764 106.785 28.6997 106.121L27.8003 110.019C30.9902 110.755 34.315 111.12 37.77 111.12V107.12ZM28.7064 106.123C25.832 105.449 23.1254 104.553 20.5833 103.438L18.9767 107.102C21.7546 108.32 24.6946 109.291 27.7936 110.017L28.7064 106.123ZM20.6222 103.456C18.1043 102.287 15.7756 100.965 13.6331 99.4919L11.3669 102.788C13.7044 104.395 16.2291 105.826 18.9378 107.084L20.6222 103.456ZM13.656 99.5079C11.4943 97.9767 9.54548 96.3627 7.80573 94.6675L5.01427 97.5325C6.91452 99.384 9.02571 101.13 11.344 102.772L13.656 99.5079ZM8.01 97.3L14.73 88.34L11.53 85.94L4.81 94.9L8.01 97.3ZM14.73 88.34C15.2659 87.6254 15.8501 87.141 16.4744 86.8289L14.6856 83.2511C13.4432 83.8723 12.3941 84.7879 11.53 85.94L14.73 88.34ZM16.5438 86.7924C17.1795 86.4428 17.851 86.27 18.59 86.27V82.27C17.1824 82.27 15.8471 82.6105 14.6162 83.2876L16.5438 86.7924ZM18.59 86.27C19.5869 86.27 20.5154 86.5454 21.4155 87.1339L23.6045 83.7861C22.078 82.7879 20.3931 82.27 18.59 82.27V86.27ZM21.4904 87.1806C22.7252 87.9123 24.0568 88.7387 25.4857 89.6606L27.6543 86.2994C26.1899 85.3546 24.8148 84.501 23.5296 83.7394L21.4904 87.1806ZM25.5489 89.6997C27.1586 90.6554 28.9921 91.5196 31.038 92.299L32.462 88.561C30.5879 87.8471 28.9681 87.0779 27.5911 86.2603L25.5489 89.6997ZM31.038 92.299C33.2938 93.1583 35.9792 93.55 39.03 93.55V89.55C36.2941 89.55 34.1262 89.195 32.462 88.561L31.038 92.299ZM39.03 93.55C42.1311 93.55 44.9019 93.0506 47.2776 91.9707L45.6224 88.3293C43.8915 89.1161 41.7156 89.55 39.03 89.55V93.55ZM47.3115 91.955C49.6183 90.854 51.5329 89.3581 53.0036 87.4516L49.8364 85.0084C48.7871 86.3686 47.3884 87.486 45.5885 88.345L47.3115 91.955ZM52.9987 87.4579C54.4848 85.5472 55.5342 83.3573 56.1578 80.9148L52.2822 79.9252C51.7858 81.8693 50.9685 83.5528 49.8413 85.0021L52.9987 87.4579ZM56.1505 80.9428C56.8071 78.5185 57.13 75.9615 57.13 73.28H53.13C53.13 75.6385 52.8463 77.8415 52.2896 79.8972L56.1505 80.9428ZM57.13 73.28C57.13 67.9517 55.6104 63.5872 52.2815 60.5357L49.5786 63.4843C51.8496 65.5661 53.13 68.7149 53.13 73.28H57.13ZM52.2946 60.5479C49.0131 57.4851 44.494 56.09 39.03 56.09V60.09C43.8327 60.09 47.2469 61.3082 49.5654 63.4721L52.2946 60.5479ZM39.03 56.09C34.1982 56.09 29.4701 57.0034 24.8575 58.819L26.3225 62.541C30.4832 60.9033 34.7152 60.09 39.03 60.09V56.09ZM26.1128 58.7495L12.6728 55.1095L11.6272 58.9705L25.0672 62.6105L26.1128 58.7495ZM14.1217 57.3754L22.8017 6.34538L18.8583 5.67463L10.1783 56.7046L14.1217 57.3754ZM20.83 8.01H73.05V4.01H20.83V8.01ZM71.05 6.01V14.97H75.05V6.01H71.05ZM71.05 14.97C71.05 16.2539 70.8498 17.3592 70.4833 18.312L74.2167 19.748C74.7836 18.2741 75.05 16.6727 75.05 14.97H71.05ZM70.4833 18.312C70.1361 19.2148 69.5764 20.0322 68.7647 20.7701L71.4553 23.7299C72.6969 22.6012 73.6306 21.2719 74.2167 19.748L70.4833 18.312ZM68.7682 20.7669C68.0554 21.4118 67.0266 21.9906 65.5903 22.442L66.7897 26.258C68.6201 25.6827 70.2046 24.8615 71.4518 23.7331L68.7682 20.7669ZM65.6406 22.4269C64.2355 22.8284 62.4706 23.05 60.31 23.05V27.05C62.7228 27.05 64.8779 26.8049 66.7394 26.273L65.6406 22.4269ZM60.31 23.05H35.95V27.05H60.31V23.05ZM33.9783 24.7146L31.1083 41.5846L35.0517 42.2554L37.9217 25.3854L33.9783 24.7146ZM158.741 80.14L156.822 79.5779V79.5779L158.741 80.14ZM150.761 96.38L149.194 95.1368L149.186 95.1474L150.761 96.38ZM138.721 105.97L137.9 104.146L137.893 104.149L138.721 105.97ZM108.621 105.97L107.786 107.788L107.793 107.791L108.621 105.97ZM96.7209 96.38L95.1459 97.6126L96.7209 96.38ZM88.8109 80.14L86.8878 80.6895L86.8916 80.7021L88.8109 80.14ZM88.8109 33.8L86.8915 33.2379L86.8879 33.2506L88.8109 33.8ZM96.7209 17.56L95.1459 16.3274L96.7209 17.56ZM108.621 8.03999L109.44 9.86455L109.449 9.86073L108.621 8.03999ZM138.721 8.03999L137.893 9.86073L137.904 9.86574L137.915 9.87062L138.721 8.03999ZM150.761 17.56L149.186 18.7926L149.194 18.8031L150.761 17.56ZM158.741 33.8L156.822 34.3621L158.741 33.8ZM137.881 39.68L135.918 40.0644L135.919 40.0683L137.881 39.68ZM134.311 29.04L132.569 30.022L132.575 30.034L132.582 30.0458L134.311 29.04ZM129.341 23.79L128.411 25.5608L128.429 25.57L128.447 25.5788L129.341 23.79ZM118.001 23.79L118.914 25.5696L118.922 25.5653L118.931 25.5608L118.001 23.79ZM113.101 29.04L111.359 28.058L111.352 28.0701L111.345 28.0823L113.101 29.04ZM109.671 39.68L107.708 39.2955L107.707 39.3035L107.705 39.3114L109.671 39.68ZM109.671 74.33L107.705 74.6986L107.707 74.7084L107.709 74.7183L109.671 74.33ZM113.101 84.97L111.338 85.9144L111.348 85.9333L111.359 85.952L113.101 84.97ZM118.001 90.29L117.053 92.0509L117.079 92.0653L117.107 92.0788L118.001 90.29ZM129.341 90.29L130.235 92.0788L130.253 92.07L130.271 92.0608L129.341 90.29ZM134.311 84.97L132.574 83.9777L132.569 83.988L134.311 84.97ZM137.881 74.33L135.919 73.9417L137.881 74.33ZM159.611 56.97C159.611 65.7483 158.668 73.2735 156.822 79.5779L160.66 80.7021C162.641 73.9399 163.611 66.0184 163.611 56.97H159.611ZM156.822 79.5779C154.964 85.9216 152.407 91.0881 149.194 95.1368L152.328 97.6232C155.928 93.0852 158.691 87.4251 160.66 80.7021L156.822 79.5779ZM149.186 95.1474C146.012 99.2026 142.252 102.188 137.9 104.146L139.542 107.794C144.523 105.552 148.79 102.144 152.336 97.6126L149.186 95.1474ZM137.893 104.149C133.55 106.123 128.818 107.12 123.671 107.12V111.12C129.35 111.12 134.652 110.017 139.549 107.791L137.893 104.149ZM123.671 107.12C118.524 107.12 113.792 106.123 109.449 104.149L107.793 107.791C112.69 110.017 117.991 111.12 123.671 111.12V107.12ZM109.456 104.152C105.196 102.196 101.476 99.2109 98.2959 95.1474L95.1459 97.6126C98.6858 102.136 102.899 105.544 107.786 107.788L109.456 104.152ZM98.2959 95.1474C95.1257 91.0966 92.5895 85.9263 90.7303 79.5779L86.8916 80.7021C88.8591 87.4204 91.5961 93.0768 95.1459 97.6126L98.2959 95.1474ZM90.734 79.5906C88.9314 73.2815 88.0109 65.7518 88.0109 56.97H84.0109C84.0109 66.0149 84.9571 73.9318 86.8879 80.6894L90.734 79.5906ZM88.0109 56.97C88.0109 48.1882 88.9314 40.6585 90.734 34.3494L86.8879 33.2506C84.9571 40.0082 84.0109 47.9251 84.0109 56.97H88.0109ZM90.7303 34.3621C92.5895 28.0137 95.1257 22.8434 98.2959 18.7926L95.1459 16.3274C91.5961 20.8632 88.8591 26.5196 86.8916 33.2379L90.7303 34.3621ZM98.2959 18.7926C101.474 14.7321 105.188 11.7734 109.44 9.86453L107.802 6.21545C102.907 8.41322 98.6882 11.8012 95.1459 16.3274L98.2959 18.7926ZM109.449 9.86073C113.792 7.88663 118.524 6.89 123.671 6.89V2.89C117.991 2.89 112.69 3.99335 107.793 6.21926L109.449 9.86073ZM123.671 6.89C128.818 6.89 133.55 7.88663 137.893 9.86073L139.549 6.21926C134.652 3.99335 129.35 2.89 123.671 2.89V6.89ZM137.915 9.87062C142.259 11.782 146.015 14.7405 149.186 18.7926L152.336 16.3274C148.787 11.7928 144.516 8.40469 139.526 6.20936L137.915 9.87062ZM149.194 18.8031C152.407 22.8519 154.964 28.0184 156.822 34.3621L160.66 33.2379C158.691 26.5149 155.928 20.8548 152.328 16.3168L149.194 18.8031ZM156.822 34.3621C158.668 40.6665 159.611 48.1917 159.611 56.97H163.611C163.611 47.9216 162.641 40.0001 160.66 33.2379L156.822 34.3621ZM141.211 56.97C141.211 49.855 140.765 43.9487 139.843 39.2917L135.919 40.0683C136.771 44.3713 137.211 49.9917 137.211 56.97H141.211ZM139.844 39.2955C138.935 34.6574 137.689 30.8695 136.04 28.0342L132.582 30.0458C133.919 32.3438 135.053 35.6493 135.918 40.0644L139.844 39.2955ZM136.053 28.058C134.488 25.2814 132.578 23.1724 130.235 22.0011L128.447 25.5788C129.837 26.2743 131.24 27.6653 132.569 30.022L136.053 28.058ZM130.271 22.0192C128.147 20.9043 125.94 20.32 123.671 20.32V24.32C125.228 24.32 126.802 24.7157 128.411 25.5608L130.271 22.0192ZM123.671 20.32C121.402 20.32 119.195 20.9043 117.071 22.0192L118.931 25.5608C120.54 24.7157 122.114 24.32 123.671 24.32V20.32ZM117.088 22.0104C114.798 23.1851 112.917 25.2931 111.359 28.058L114.843 30.022C116.178 27.6536 117.564 26.2615 118.914 25.5696L117.088 22.0104ZM111.345 28.0823C109.808 30.901 108.614 34.67 107.708 39.2955L111.634 40.0644C112.501 35.6366 113.594 32.3123 114.857 29.9977L111.345 28.0823ZM107.705 39.3114C106.834 43.9598 106.411 49.8588 106.411 56.97H110.411C110.411 49.9879 110.828 44.3602 111.637 40.0486L107.705 39.3114ZM106.411 56.97C106.411 64.1269 106.834 70.0496 107.705 74.6986L111.637 73.9614C110.828 69.6504 110.411 63.9997 110.411 56.97H106.411ZM107.709 74.7183C108.616 79.2996 109.808 83.0592 111.338 85.9144L114.864 84.0256C113.594 81.6542 112.499 78.3204 111.633 73.9417L107.709 74.7183ZM111.359 85.952C112.916 88.7148 114.787 90.8307 117.053 92.0509L118.949 88.5291C117.575 87.7893 116.179 86.3585 114.843 83.988L111.359 85.952ZM117.107 92.0788C119.225 93.1382 121.42 93.69 123.671 93.69V89.69C122.096 89.69 120.51 89.3084 118.895 88.5011L117.107 92.0788ZM123.671 93.69C125.922 93.69 128.117 93.1382 130.235 92.0788L128.447 88.5011C126.832 89.3084 125.246 89.69 123.671 89.69V93.69ZM130.271 92.0608C132.589 90.8437 134.49 88.7262 136.053 85.952L132.569 83.988C131.239 86.3471 129.826 87.7763 128.411 88.5192L130.271 92.0608ZM136.047 85.9623C137.688 83.0905 138.934 79.3125 139.843 74.7183L135.919 73.9417C135.055 78.3075 133.92 81.6228 132.574 83.9777L136.047 85.9623ZM139.843 74.7183C140.765 70.0607 141.211 64.1306 141.211 56.97H137.211C137.211 63.996 136.771 69.6393 135.919 73.9417L139.843 74.7183ZM216.012 40.94L217.843 41.7445L216.012 40.94ZM210.622 48.92L212.021 50.349L212.029 50.3417L212.036 50.3342L210.622 48.92ZM202.782 54.03L202.029 52.177L202.019 52.1813L202.782 54.03ZM183.742 54.03L182.979 55.8788L182.989 55.8829L183.742 54.03ZM176.042 48.92L174.598 50.3038L174.613 50.3192L174.628 50.3342L176.042 48.92ZM171.002 40.94L172.863 40.2069L171.002 40.94ZM171.002 20.22L172.866 20.9436L172.87 20.9343L171.002 20.22ZM176.042 12.1L174.613 10.7007L174.605 10.7084L174.598 10.7162L176.042 12.1ZM183.742 6.91999L184.505 8.76874L184.512 8.76576L184.519 8.76272L183.742 6.91999ZM203.342 6.91999L202.564 8.76272L202.582 8.76999L202.599 8.77694L203.342 6.91999ZM211.112 12.1L209.668 13.4838L209.675 13.4916L209.683 13.4992L211.112 12.1ZM216.222 20.22L214.354 20.9343L214.357 20.9435L216.222 20.22ZM200.752 24.84L198.805 25.2981L198.813 25.3323L198.822 25.3662L200.752 24.84ZM199.142 21.06L200.742 19.86V19.86L199.142 21.06ZM196.622 19.1L195.879 20.9569L195.894 20.9631L195.91 20.969L196.622 19.1ZM190.462 19.1L189.719 17.243V17.243L190.462 19.1ZM188.082 21.06L186.443 19.9131L186.443 19.9131L188.082 21.06ZM186.542 24.84L188.486 25.3112L188.489 25.2981L186.542 24.84ZM186.542 36.32L188.482 35.8349L186.542 36.32ZM188.082 39.89L189.692 38.7036L188.082 39.89ZM190.462 41.78L189.719 43.6369L190.462 41.78ZM196.622 41.78L195.91 39.911L195.894 39.9169L195.879 39.923L196.622 41.78ZM199.142 39.89L197.572 38.6507V38.6507L199.142 39.89ZM200.752 36.32L198.827 35.7785L198.819 35.8066L198.812 35.8349L200.752 36.32ZM250.102 9.23L248.602 7.90676L248.561 7.95303L248.523 8.00173L250.102 9.23ZM252.692 7.06L253.766 8.74732L253.792 8.73031L253.819 8.71246L252.692 7.06ZM272.782 6.01L274.361 7.23718L276.869 4.01H272.782V6.01ZM195.922 104.92L197.492 106.159L197.496 106.153L197.501 106.147L195.922 104.92ZM193.262 107.16L194.22 108.916L194.233 108.909L194.246 108.901L193.262 107.16ZM173.242 108L171.663 106.772L169.151 110H173.242V108ZM274.672 94.35L276.503 95.1546L276.507 95.1444L274.672 94.35ZM269.282 102.33L270.681 103.759L270.689 103.752L270.696 103.744L269.282 102.33ZM261.442 107.44L260.689 105.587L260.679 105.591L261.442 107.44ZM242.402 107.44L241.639 109.289L241.649 109.293L242.402 107.44ZM234.702 102.33L233.258 103.714L233.273 103.729L233.288 103.744L234.702 102.33ZM229.662 94.35L227.797 95.0736L227.801 95.083L229.662 94.35ZM229.662 73.56L231.526 74.2836L231.53 74.2743L229.662 73.56ZM234.702 65.44L233.273 64.0407L233.265 64.0484L233.258 64.0562L234.702 65.44ZM242.402 60.26L243.165 62.1087L243.172 62.1058L243.179 62.1027L242.402 60.26ZM262.002 60.26L261.224 62.1027L261.242 62.11L261.259 62.117L262.002 60.26ZM269.772 65.44L268.328 66.8238L268.335 66.8316L268.343 66.8392L269.772 65.44ZM274.882 73.56L273.014 74.2743L273.017 74.2835L274.882 73.56ZM259.412 78.25L257.465 78.7081L257.473 78.7423L257.482 78.7762L259.412 78.25ZM257.802 74.47L259.402 73.27V73.27L257.802 74.47ZM255.282 72.51L254.539 74.367L254.554 74.3731L254.57 74.379L255.282 72.51ZM246.742 74.47L245.103 73.3231V73.3231L246.742 74.47ZM245.202 78.25L247.146 78.7212L247.149 78.7081L245.202 78.25ZM245.202 89.66L247.142 89.1749L245.202 89.66ZM246.742 93.23L245.132 94.4164L246.742 93.23ZM249.122 95.12L249.865 93.263L249.122 95.12ZM255.282 95.12L254.57 93.251L254.554 93.2569L254.539 93.263L255.282 95.12ZM257.802 93.23L259.372 94.4693V94.4693L257.802 93.23ZM259.412 89.66L257.487 89.1185L257.479 89.1466L257.472 89.1749L259.412 89.66ZM216.042 30.72C216.042 34.2069 215.411 37.3356 214.181 40.1354L217.843 41.7445C219.319 38.3844 220.042 34.6998 220.042 30.72H216.042ZM214.181 40.1354C212.921 43.0024 211.261 45.452 209.208 47.5058L212.036 50.3342C214.462 47.908 216.396 45.0376 217.843 41.7445L214.181 40.1354ZM209.223 47.491C207.174 49.4971 204.782 51.0588 202.029 52.1771L203.535 55.8829C206.755 54.5745 209.59 52.7295 212.021 50.349L209.223 47.491ZM202.019 52.1813C199.324 53.2935 196.503 53.85 193.542 53.85V57.85C197.02 57.85 200.36 57.1932 203.545 55.8787L202.019 52.1813ZM193.542 53.85C190.227 53.85 187.219 53.284 184.495 52.1771L182.989 55.8829C186.238 57.2027 189.763 57.85 193.542 57.85V53.85ZM184.505 52.1813C181.802 51.0658 179.458 49.508 177.456 47.5058L174.628 50.3342C177.012 52.7187 179.802 54.5675 182.979 55.8787L184.505 52.1813ZM177.486 47.5362C175.531 45.4963 173.987 43.0614 172.863 40.2069L169.141 41.673C170.443 44.9786 172.259 47.8637 174.598 50.3038L177.486 47.5362ZM172.863 40.2069C171.752 37.3883 171.182 34.2343 171.182 30.72H167.182C167.182 34.6724 167.825 38.3317 169.141 41.673L172.863 40.2069ZM171.182 30.72C171.182 27.0563 171.755 23.8067 172.866 20.9435L169.137 19.4964C167.822 22.8867 167.182 26.637 167.182 30.72H171.182ZM172.87 20.9343C173.997 17.9863 175.541 15.5136 177.486 13.4838L174.598 10.7162C172.25 13.1664 170.433 16.107 169.134 19.5057L172.87 20.9343ZM177.471 13.4992C179.472 11.4555 181.811 9.88038 184.505 8.76874L182.979 5.07124C179.792 6.38627 176.998 8.26453 174.613 10.7007L177.471 13.4992ZM184.519 8.76272C187.238 7.61592 190.237 7.02999 193.542 7.02999V3.02999C189.753 3.02999 186.219 3.70407 182.964 5.07726L184.519 8.76272ZM193.542 7.02999C196.847 7.02999 199.846 7.61592 202.564 8.76272L204.119 5.07726C200.864 3.70407 197.33 3.02999 193.542 3.02999V7.02999ZM202.599 8.77694C205.382 9.89009 207.729 11.4606 209.668 13.4838L212.556 10.7162C210.201 8.25941 207.368 6.37656 204.085 5.06304L202.599 8.77694ZM209.683 13.4992C211.669 15.5275 213.23 17.9953 214.354 20.9343L218.09 19.5057C216.787 16.098 214.942 13.1525 212.541 10.7007L209.683 13.4992ZM214.357 20.9435C215.468 23.8067 216.042 27.0563 216.042 30.72H220.042C220.042 26.637 219.402 22.8867 218.086 19.4964L214.357 20.9435ZM203.382 30.72C203.382 28.2402 203.165 26.087 202.681 24.3138L198.822 25.3662C199.179 26.673 199.382 28.4398 199.382 30.72H203.382ZM202.699 24.3819C202.286 22.6261 201.659 21.0833 200.742 19.86L197.542 22.26C198.024 22.9034 198.472 23.8805 198.805 25.2981L202.699 24.3819ZM200.742 19.86C199.841 18.6593 198.706 17.7538 197.334 17.231L195.91 20.969C196.498 21.1929 197.042 21.594 197.542 22.26L200.742 19.86ZM197.365 17.243C196.17 16.765 194.887 16.54 193.542 16.54V20.54C194.436 20.54 195.208 20.6883 195.879 20.9569L197.365 17.243ZM193.542 16.54C192.196 16.54 190.914 16.765 189.719 17.243L191.205 20.9569C191.876 20.6883 192.647 20.54 193.542 20.54V16.54ZM189.719 17.243C188.378 17.7795 187.289 18.7048 186.443 19.9131L189.72 22.2069C190.181 21.5485 190.679 21.1671 191.205 20.9569L189.719 17.243ZM186.443 19.9131C185.596 21.1234 185.003 22.6461 184.595 24.3819L188.489 25.2981C188.827 23.8606 189.261 22.8633 189.72 22.2069L186.443 19.9131ZM184.598 24.3688C184.174 26.1193 183.982 28.2521 183.982 30.72H187.982C187.982 28.4279 188.163 26.6406 188.486 25.3112L184.598 24.3688ZM183.982 30.72C183.982 33.0565 184.175 35.0991 184.602 36.8051L188.482 35.8349C188.162 34.5542 187.982 32.8635 187.982 30.72H183.982ZM184.602 36.8051C185.015 38.458 185.615 39.914 186.472 41.0764L189.692 38.7036C189.242 38.0926 188.816 37.1687 188.482 35.8349L184.602 36.8051ZM186.472 41.0764C187.324 42.2333 188.407 43.1122 189.719 43.6369L191.205 39.923C190.65 39.7012 190.146 39.32 189.692 38.7036L186.472 41.0764ZM189.719 43.6369C190.914 44.115 192.196 44.34 193.542 44.34V40.34C192.647 40.34 191.876 40.1917 191.205 39.923L189.719 43.6369ZM193.542 44.34C194.887 44.34 196.17 44.115 197.365 43.6369L195.879 39.923C195.208 40.1917 194.436 40.34 193.542 40.34V44.34ZM197.334 43.649C198.677 43.1371 199.806 42.2768 200.712 41.1293L197.572 38.6507C197.078 39.2766 196.526 39.6762 195.91 39.911L197.334 43.649ZM200.712 41.1293C201.639 39.9551 202.274 38.4793 202.692 36.8051L198.812 35.8349C198.483 37.1474 198.045 38.0515 197.572 38.6507L200.712 41.1293ZM202.677 36.8615C203.163 35.1329 203.382 33.0695 203.382 30.72H199.382C199.382 32.8505 199.18 34.5204 198.827 35.7785L202.677 36.8615ZM251.602 10.5532C252.16 9.91991 252.874 9.31467 253.766 8.74732L251.618 5.37267C250.456 6.11199 249.443 6.95341 248.602 7.90676L251.602 10.5532ZM253.819 8.71246C254.392 8.32156 255.367 8.01 256.962 8.01V4.01C254.917 4.01 253.045 4.39843 251.565 5.40754L253.819 8.71246ZM256.962 8.01H272.782V4.01H256.962V8.01ZM271.203 4.78281L194.343 103.693L197.501 106.147L274.361 7.23718L271.203 4.78281ZM194.352 103.681C193.827 104.346 193.146 104.928 192.278 105.419L194.246 108.901C195.524 108.178 196.617 107.268 197.492 106.159L194.352 103.681ZM192.304 105.404C191.642 105.766 190.731 106 189.482 106V110C191.219 110 192.829 109.674 194.22 108.916L192.304 105.404ZM189.482 106H173.242V110H189.482V106ZM174.82 109.228L251.68 10.4583L248.523 8.00173L171.663 106.772L174.82 109.228ZM274.702 84.06C274.702 87.5464 274.071 90.7028 272.836 93.5555L276.507 95.1444C277.979 91.7439 278.702 88.0402 278.702 84.06H274.702ZM272.841 93.5455C271.581 96.4124 269.921 98.862 267.868 100.916L270.696 103.744C273.122 101.318 275.056 98.4476 276.503 95.1545L272.841 93.5455ZM267.883 100.901C265.834 102.907 263.442 104.469 260.689 105.587L262.195 109.293C265.415 107.985 268.25 106.14 270.681 103.759L267.883 100.901ZM260.679 105.591C257.984 106.703 255.163 107.26 252.202 107.26V111.26C255.68 111.26 259.02 110.603 262.205 109.289L260.679 105.591ZM252.202 107.26C248.887 107.26 245.879 106.694 243.155 105.587L241.649 109.293C244.898 110.613 248.423 111.26 252.202 111.26V107.26ZM243.165 105.591C240.462 104.476 238.118 102.918 236.116 100.916L233.288 103.744C235.672 106.129 238.462 107.977 241.639 109.289L243.165 105.591ZM236.146 100.946C234.191 98.9063 232.647 96.4714 231.523 93.617L227.801 95.083C229.103 98.3886 230.919 101.274 233.258 103.714L236.146 100.946ZM231.526 93.6264C230.412 90.7552 229.842 87.5738 229.842 84.06H225.842C225.842 88.0129 226.485 91.6915 227.797 95.0735L231.526 93.6264ZM229.842 84.06C229.842 80.3963 230.415 77.1467 231.526 74.2835L227.797 72.8364C226.482 76.2267 225.842 79.977 225.842 84.06H229.842ZM231.53 74.2743C232.657 71.3263 234.201 68.8536 236.146 66.8238L233.258 64.0562C230.91 66.5064 229.093 69.447 227.794 72.8457L231.53 74.2743ZM236.131 66.8392C238.132 64.7955 240.471 63.2204 243.165 62.1087L241.639 58.4112C238.452 59.7263 235.658 61.6045 233.273 64.0407L236.131 66.8392ZM243.179 62.1027C245.898 60.9559 248.897 60.37 252.202 60.37V56.37C248.413 56.37 244.879 57.0441 241.624 58.4173L243.179 62.1027ZM252.202 60.37C255.507 60.37 258.506 60.9559 261.224 62.1027L262.779 58.4173C259.524 57.0441 255.99 56.37 252.202 56.37V60.37ZM261.259 62.117C264.042 63.2301 266.389 64.8006 268.328 66.8238L271.216 64.0562C268.861 61.5994 266.028 59.7166 262.745 58.403L261.259 62.117ZM268.343 66.8392C270.329 68.8675 271.89 71.3353 273.014 74.2743L276.75 72.8457C275.447 69.438 273.602 66.4925 271.201 64.0407L268.343 66.8392ZM273.017 74.2835C274.128 77.1467 274.702 80.3963 274.702 84.06H278.702C278.702 79.977 278.062 76.2267 276.746 72.8364L273.017 74.2835ZM262.042 84.06C262.042 81.6228 261.824 79.4943 261.341 77.7238L257.482 78.7762C257.839 80.0857 258.042 81.8305 258.042 84.06H262.042ZM261.359 77.7919C260.946 76.0361 260.319 74.4933 259.402 73.27L256.202 75.67C256.684 76.3134 257.132 77.2905 257.465 78.7081L261.359 77.7919ZM259.402 73.27C258.501 72.0694 257.366 71.1638 255.994 70.641L254.57 74.379C255.158 74.6029 255.702 75.004 256.202 75.67L259.402 73.27ZM256.025 70.653C254.83 70.175 253.547 69.95 252.202 69.95V73.95C253.096 73.95 253.868 74.0983 254.539 74.367L256.025 70.653ZM252.202 69.95C250.856 69.95 249.574 70.175 248.379 70.653L249.865 74.367C250.536 74.0983 251.307 73.95 252.202 73.95V69.95ZM248.379 70.653C247.038 71.1895 245.949 72.1148 245.103 73.3231L248.38 75.6169C248.841 74.9585 249.339 74.5771 249.865 74.367L248.379 70.653ZM245.103 73.3231C244.256 74.5334 243.663 76.0561 243.255 77.7919L247.149 78.7081C247.487 77.2706 247.921 76.2733 248.38 75.6169L245.103 73.3231ZM243.258 77.7788C242.834 79.527 242.642 81.6351 242.642 84.06H246.642C246.642 81.8182 246.823 80.053 247.146 78.7212L243.258 77.7788ZM242.642 84.06C242.642 86.3965 242.835 88.4391 243.262 90.1451L247.142 89.1749C246.822 87.8942 246.642 86.2035 246.642 84.06H242.642ZM243.262 90.1451C243.675 91.798 244.275 93.254 245.132 94.4164L248.352 92.0436C247.902 91.4326 247.476 90.5087 247.142 89.1749L243.262 90.1451ZM245.132 94.4164C245.984 95.5733 247.067 96.4522 248.379 96.977L249.865 93.263C249.31 93.0412 248.806 92.66 248.352 92.0436L245.132 94.4164ZM248.379 96.977C249.574 97.455 250.856 97.68 252.202 97.68V93.68C251.307 93.68 250.536 93.5317 249.865 93.263L248.379 96.977ZM252.202 97.68C253.547 97.68 254.83 97.455 256.025 96.977L254.539 93.263C253.868 93.5317 253.096 93.68 252.202 93.68V97.68ZM255.994 96.989C257.337 96.4771 258.466 95.6168 259.372 94.4693L256.232 91.9907C255.738 92.6166 255.186 93.0162 254.57 93.251L255.994 96.989ZM259.372 94.4693C260.299 93.2951 260.934 91.8193 261.352 90.1451L257.472 89.1749C257.143 90.4874 256.705 91.3915 256.232 91.9907L259.372 94.4693ZM261.337 90.2015C261.823 88.4729 262.042 86.4095 262.042 84.06H258.042C258.042 86.1905 257.84 87.8604 257.487 89.1185L261.337 90.2015Z" fill="white"/>
</g>
<defs>
<filter id="filter0_d_1_21869" x="0.410156" y="0.889996" width="294.292" height="128.37" filterUnits="userSpaceOnUse" color-interpolation-filters="sRGB">
<feFlood flood-opacity="0" result="BackgroundImageFix"/>
<feColorMatrix in="SourceAlpha" type="matrix" values="0 0 0 0 0 0 0 0 0 0 0 0 0 0 0 0 0 0 127 0" result="hardAlpha"/>
<feOffset dx="6" dy="8"/>
<feGaussianBlur stdDeviation="6"/>
<feComposite in2="hardAlpha" operator="out"/>
<feColorMatrix type="matrix" values="0 0 0 0 0 0 0 0 0 0 0 0 0 0 0 0 0 0 0.15 0"/>
<feBlend mode="normal" in2="BackgroundImageFix" result="effect1_dropShadow_1_21869"/>
<feBlend mode="normal" in="SourceGraphic" in2="effect1_dropShadow_1_21869" result="shape"/>
</filter>
<linearGradient id="paint0_linear_1_21869" x1="2" y1="54" x2="282" y2="54" gradientUnits="userSpaceOnUse">
<stop stop-color="#FFEFBA"/>
<stop offset="1" stop-color="#FFE281"/>
</linearGradient>
</defs>
</svg>
