<svg width="109" height="109" viewBox="0 0 109 109" fill="none" xmlns="http://www.w3.org/2000/svg">
<g filter="url(#filter0_d_1_21676)">
<circle cx="54.5" cy="46.5" r="38.5" fill="url(#paint0_linear_1_21676)"/>
</g>
<g clip-path="url(#clip0_1_21676)">
<path fill-rule="evenodd" clip-rule="evenodd" d="M48.2434 40.3267C49.6062 40.3268 50.9383 39.9227 52.0714 39.1657C53.2045 38.4087 54.0876 37.3326 54.6091 36.0736C55.1307 34.8147 55.2671 33.4293 55.0013 32.0928C54.7355 30.7562 54.0793 29.5285 53.1157 28.5649C52.1521 27.6013 50.9245 26.9451 49.5879 26.6793C48.2514 26.4134 46.866 26.5499 45.6071 27.0714C44.3481 27.5929 43.272 28.476 42.5149 29.609C41.7579 30.7421 41.3538 32.0742 41.3538 33.437C41.3559 35.2636 42.0824 37.0148 43.374 38.3065C44.6656 39.5981 46.4168 40.3247 48.2434 40.3267ZM35.1679 53.1213V40.0541C35.1679 39.236 35.4929 38.4514 36.0714 37.8729C36.6498 37.2944 37.4344 36.9695 38.2525 36.9695C39.0706 36.9695 39.8552 37.2944 40.4337 37.8729C41.0121 38.4514 41.3371 39.236 41.3371 40.0541V44.8221H46.4667C46.5337 43.9712 46.9187 43.1767 47.5451 42.5968C48.1715 42.017 48.9934 41.6943 49.847 41.6931H69.0147C69.3342 41.0814 69.8497 40.5945 70.4786 40.3104C71.1075 40.0263 71.8136 39.9613 72.4838 40.126C73.1541 40.2906 73.7497 40.6753 74.1754 41.2184C74.6012 41.7616 74.8324 42.4319 74.8321 43.122V53.1213C74.8321 53.3699 74.7333 53.6084 74.5575 53.7842C74.3817 53.96 74.1433 54.0588 73.8946 54.0588H72.6993V59.1159C73.3969 59.3263 74.0032 59.7657 74.4202 60.3631C74.8373 60.9605 75.0408 61.6811 74.9979 62.4084C74.955 63.1358 74.6682 63.8274 74.1838 64.3717C73.6994 64.9159 73.0457 65.281 72.3282 65.408C71.6107 65.5349 70.8714 65.4163 70.2297 65.0713C69.5879 64.7263 69.0812 64.1751 68.7913 63.5066C68.5014 62.8382 68.4453 62.0915 68.6321 61.3873C68.8189 60.683 69.2375 60.0622 69.8206 59.6252H40.1791C40.7613 60.062 41.1792 60.6822 41.3655 61.3857C41.5517 62.0892 41.4955 62.835 41.2058 63.5026C40.9161 64.1702 40.4098 64.7207 39.7688 65.0652C39.1277 65.4097 38.3893 65.5281 37.6727 65.4013C36.9561 65.2745 36.3031 64.9099 35.8192 64.3663C35.3353 63.8228 35.0487 63.132 35.0057 62.4055C34.9626 61.679 35.1657 60.9592 35.5821 60.3624C35.9985 59.7655 36.6038 59.3264 37.3005 59.1159V54.0588H36.1052C35.8565 54.0588 35.6181 53.96 35.4423 53.7842C35.2664 53.6084 35.1677 53.3699 35.1677 53.1213H35.1679ZM39.1757 54.0588V57.7502H70.8245V54.0588H39.1757ZM46.4559 49.0548V46.6971H41.3371V49.0548H46.4559ZM41.3371 52.1838H68.6628V50.9298H41.3371V52.1838ZM72.9572 52.1838V43.122C72.9572 42.8012 72.8297 42.4935 72.6029 42.2667C72.376 42.0398 72.0683 41.9123 71.7475 41.9123C71.4267 41.9123 71.119 42.0398 70.8921 42.2667C70.6653 42.4935 70.5378 42.8012 70.5378 43.122V52.1838H72.9572ZM39.4621 52.1838V40.0541C39.4621 39.7333 39.3347 39.4256 39.1078 39.1987C38.881 38.9719 38.5733 38.8445 38.2525 38.8445C37.9317 38.8445 37.624 38.9719 37.3972 39.1987C37.1703 39.4256 37.0429 39.7333 37.0429 40.0541V52.1838H39.4621ZM49.1809 36.3088C49.1809 36.5574 49.0821 36.7959 48.9063 36.9717C48.7305 37.1475 48.492 37.2463 48.2434 37.2463C47.9947 37.2463 47.7563 37.1475 47.5805 36.9717C47.4046 36.7959 47.3059 36.5574 47.3059 36.3088V34.3744H45.3715C45.2484 34.3744 45.1265 34.3501 45.0127 34.303C44.899 34.2559 44.7956 34.1868 44.7086 34.0998C44.6215 34.0127 44.5525 33.9094 44.5054 33.7956C44.4582 33.6819 44.434 33.56 44.434 33.4369C44.434 33.3138 44.4582 33.1919 44.5054 33.0781C44.5525 32.9644 44.6215 32.861 44.7086 32.774C44.7956 32.6869 44.899 32.6179 45.0127 32.5707C45.1265 32.5236 45.2484 32.4994 45.3715 32.4994H47.3061V30.5651C47.3061 30.3164 47.4049 30.078 47.5807 29.9022C47.7565 29.7264 47.995 29.6276 48.2436 29.6276C48.4922 29.6276 48.7307 29.7264 48.9065 29.9022C49.0823 30.078 49.1811 30.3164 49.1811 30.5651V32.4994H51.1156C51.2387 32.4994 51.3606 32.5236 51.4743 32.5707C51.5881 32.6179 51.6914 32.6869 51.7785 32.774C51.8655 32.861 51.9346 32.9644 51.9817 33.0781C52.0288 33.1919 52.0531 33.3138 52.0531 33.4369C52.0531 33.56 52.0288 33.6819 51.9817 33.7956C51.9346 33.9094 51.8655 34.0127 51.7785 34.0998C51.6914 34.1868 51.5881 34.2559 51.4743 34.303C51.3606 34.3501 51.2387 34.3744 51.1156 34.3744H49.181L49.1809 36.3088Z" fill="white"/>
</g>
<defs>
<filter id="filter0_d_1_21676" x="0" y="0" width="109" height="109" filterUnits="userSpaceOnUse" color-interpolation-filters="sRGB">
<feFlood flood-opacity="0" result="BackgroundImageFix"/>
<feColorMatrix in="SourceAlpha" type="matrix" values="0 0 0 0 0 0 0 0 0 0 0 0 0 0 0 0 0 0 127 0" result="hardAlpha"/>
<feOffset dy="8"/>
<feGaussianBlur stdDeviation="8"/>
<feComposite in2="hardAlpha" operator="out"/>
<feColorMatrix type="matrix" values="0 0 0 0 0.0392157 0 0 0 0 0.6 0 0 0 0 0.286274 0 0 0 0.35 0"/>
<feBlend mode="normal" in2="BackgroundImageFix" result="effect1_dropShadow_1_21676"/>
<feBlend mode="normal" in="SourceGraphic" in2="effect1_dropShadow_1_21676" result="shape"/>
</filter>
<linearGradient id="paint0_linear_1_21676" x1="16" y1="8" x2="93" y2="85" gradientUnits="userSpaceOnUse">
<stop stop-color="#3EED8B"/>
<stop offset="1" stop-color="#0A9949"/>
</linearGradient>
<clipPath id="clip0_1_21676">
<rect width="40" height="40" fill="white" transform="translate(35 26)"/>
</clipPath>
</defs>
</svg>
