<svg width="305" height="86" viewBox="0 0 305 86" fill="none" xmlns="http://www.w3.org/2000/svg">
<g filter="url(#filter0_d_1_21577)">
<rect x="20" y="12" width="265" height="46" rx="23" fill="url(#paint0_linear_1_21577)" shape-rendering="crispEdges"/>
<path fill-rule="evenodd" clip-rule="evenodd" d="M67.965 39.61L66.792 38.437C66.206 37.851 65.256 37.851 64.671 38.437L63.749 39.359C63.543 39.565 63.231 39.634 62.965 39.517C61.629 38.932 60.309 38.045 59.132 36.868C57.96 35.696 57.076 34.382 56.49 33.051C56.368 32.776 56.439 32.453 56.652 32.24L57.478 31.414C58.149 30.743 58.149 29.794 57.563 29.208L56.39 28.035C55.609 27.254 54.343 27.254 53.562 28.035L52.91 28.686C52.169 29.427 51.86 30.496 52.06 31.556C52.554 34.169 54.072 37.03 56.521 39.479C58.97 41.928 61.831 43.446 64.444 43.94C65.504 44.14 66.573 43.831 67.314 43.09L67.965 42.439C68.746 41.658 68.746 40.392 67.965 39.61Z" fill="white" stroke="white" stroke-width="1.5" stroke-linecap="round" stroke-linejoin="round"/>
<path d="M62 29.9911C63.031 29.9771 64.067 30.3591 64.854 31.1461" stroke="white" stroke-width="1.5" stroke-linecap="round" stroke-linejoin="round"/>
<path d="M67.682 28.3179C66.113 26.7489 64.056 25.9639 62 25.9639" stroke="white" stroke-width="1.5" stroke-linecap="round" stroke-linejoin="round"/>
<path d="M66.009 34C66.023 32.969 65.641 31.933 64.854 31.146" stroke="white" stroke-width="1.5" stroke-linecap="round" stroke-linejoin="round"/>
<path d="M67.6821 28.3179C69.2511 29.8869 70.0361 31.9439 70.0361 33.9999" stroke="white" stroke-width="1.5" stroke-linecap="round" stroke-linejoin="round"/>
<path d="M91.824 35.7V40.38C91.2373 40.812 90.6107 41.1293 89.944 41.332C89.2827 41.5293 88.5733 41.628 87.816 41.628C86.872 41.628 86.016 41.4813 85.248 41.188C84.4853 40.8947 83.832 40.4867 83.288 39.964C82.7493 39.4413 82.3333 38.8173 82.04 38.092C81.7467 37.3667 81.6 36.5747 81.6 35.716C81.6 34.8467 81.7413 34.0493 82.024 33.324C82.3067 32.5987 82.7067 31.9747 83.224 31.452C83.7467 30.9293 84.3787 30.524 85.12 30.236C85.8613 29.948 86.6933 29.804 87.616 29.804C88.0853 29.804 88.5227 29.8413 88.928 29.916C89.3387 29.9907 89.7173 30.0947 90.064 30.228C90.416 30.356 90.736 30.5133 91.024 30.7C91.312 30.8867 91.576 31.092 91.816 31.316L91.2 32.292C91.104 32.4467 90.9787 32.5427 90.824 32.58C90.6693 32.612 90.5013 32.572 90.32 32.46C90.144 32.3587 89.968 32.2573 89.792 32.156C89.616 32.0547 89.4187 31.9667 89.2 31.892C88.9867 31.8173 88.744 31.756 88.472 31.708C88.2053 31.66 87.896 31.636 87.544 31.636C86.9733 31.636 86.456 31.732 85.992 31.924C85.5333 32.116 85.1413 32.3907 84.816 32.748C84.4907 33.1053 84.24 33.5347 84.064 34.036C83.888 34.5373 83.8 35.0973 83.8 35.716C83.8 36.3773 83.8933 36.9693 84.08 37.492C84.272 38.0093 84.5387 38.4493 84.88 38.812C85.2267 39.1693 85.6427 39.444 86.128 39.636C86.6133 39.8227 87.1547 39.916 87.752 39.916C88.1787 39.916 88.56 39.8707 88.896 39.78C89.232 39.6893 89.56 39.5667 89.88 39.412V37.316H88.424C88.2853 37.316 88.176 37.2787 88.096 37.204C88.0213 37.124 87.984 37.028 87.984 36.916V35.7H91.824ZM105.729 35.716C105.729 36.564 105.588 37.3507 105.305 38.076C105.028 38.796 104.633 39.42 104.121 39.948C103.609 40.476 102.993 40.8893 102.273 41.188C101.553 41.4813 100.753 41.628 99.8734 41.628C98.9987 41.628 98.2014 41.4813 97.4814 41.188C96.7614 40.8893 96.1427 40.476 95.6254 39.948C95.1134 39.42 94.716 38.796 94.4334 38.076C94.1507 37.3507 94.0094 36.564 94.0094 35.716C94.0094 34.868 94.1507 34.084 94.4334 33.364C94.716 32.6387 95.1134 32.012 95.6254 31.484C96.1427 30.956 96.7614 30.5453 97.4814 30.252C98.2014 29.9533 98.9987 29.804 99.8734 29.804C100.46 29.804 101.012 29.8733 101.529 30.012C102.047 30.1453 102.521 30.3373 102.953 30.588C103.385 30.8333 103.772 31.1347 104.113 31.492C104.46 31.844 104.753 32.2387 104.993 32.676C105.233 33.1133 105.415 33.588 105.537 34.1C105.665 34.612 105.729 35.1507 105.729 35.716ZM103.529 35.716C103.529 35.0813 103.444 34.5133 103.273 34.012C103.103 33.5053 102.86 33.076 102.545 32.724C102.231 32.372 101.847 32.1027 101.393 31.916C100.945 31.7293 100.439 31.636 99.8734 31.636C99.308 31.636 98.7987 31.7293 98.3454 31.916C97.8974 32.1027 97.5134 32.372 97.1934 32.724C96.8787 33.076 96.636 33.5053 96.4654 34.012C96.2947 34.5133 96.2094 35.0813 96.2094 35.716C96.2094 36.3507 96.2947 36.9213 96.4654 37.428C96.636 37.9293 96.8787 38.356 97.1934 38.708C97.5134 39.0547 97.8974 39.3213 98.3454 39.508C98.7987 39.6947 99.308 39.788 99.8734 39.788C100.439 39.788 100.945 39.6947 101.393 39.508C101.847 39.3213 102.231 39.0547 102.545 38.708C102.86 38.356 103.103 37.9293 103.273 37.428C103.444 36.9213 103.529 36.3507 103.529 35.716ZM101.009 43.404C101.009 43.5533 100.977 43.6947 100.913 43.828C100.855 43.9613 100.775 44.0787 100.673 44.18C100.572 44.2813 100.452 44.3613 100.313 44.42C100.175 44.4787 100.031 44.508 99.8814 44.508C99.732 44.508 99.5907 44.4787 99.4574 44.42C99.324 44.3613 99.2067 44.2813 99.1054 44.18C99.0094 44.0787 98.932 43.9613 98.8734 43.828C98.8147 43.6947 98.7854 43.5533 98.7854 43.404C98.7854 43.2547 98.8147 43.1107 98.8734 42.972C98.932 42.8387 99.0094 42.7213 99.1054 42.62C99.2067 42.524 99.324 42.4467 99.4574 42.388C99.5907 42.3293 99.732 42.3 99.8814 42.3C100.031 42.3 100.175 42.3293 100.313 42.388C100.452 42.4467 100.572 42.524 100.673 42.62C100.775 42.7213 100.855 42.8387 100.913 42.972C100.977 43.1107 101.009 43.2547 101.009 43.404ZM110.579 41.5H108.419V29.932H110.579V41.5ZM126.604 38.772C126.721 38.772 126.825 38.8173 126.916 38.908L127.764 39.828C127.295 40.4093 126.716 40.8547 126.028 41.164C125.345 41.4733 124.524 41.628 123.564 41.628C122.705 41.628 121.932 41.4813 121.244 41.188C120.561 40.8947 119.977 40.4867 119.492 39.964C119.007 39.4413 118.633 38.8173 118.372 38.092C118.116 37.3667 117.988 36.5747 117.988 35.716C117.988 34.8467 118.127 34.052 118.404 33.332C118.681 32.6067 119.071 31.9827 119.572 31.46C120.079 30.9373 120.681 30.532 121.38 30.244C122.079 29.9507 122.852 29.804 123.7 29.804C124.543 29.804 125.289 29.9427 125.94 30.22C126.596 30.4973 127.153 30.86 127.612 31.308L126.892 32.308C126.849 32.372 126.793 32.428 126.724 32.476C126.66 32.524 126.569 32.548 126.452 32.548C126.372 32.548 126.289 32.5267 126.204 32.484C126.119 32.436 126.025 32.38 125.924 32.316C125.823 32.2467 125.705 32.172 125.572 32.092C125.439 32.012 125.284 31.94 125.108 31.876C124.932 31.8067 124.727 31.7507 124.492 31.708C124.263 31.66 123.996 31.636 123.692 31.636C123.175 31.636 122.7 31.7293 122.268 31.916C121.841 32.0973 121.473 32.364 121.164 32.716C120.855 33.0627 120.615 33.4893 120.444 33.996C120.273 34.4973 120.188 35.0707 120.188 35.716C120.188 36.3667 120.279 36.9453 120.46 37.452C120.647 37.9587 120.897 38.3853 121.212 38.732C121.527 39.0787 121.897 39.3453 122.324 39.532C122.751 39.7133 123.209 39.804 123.7 39.804C123.993 39.804 124.257 39.788 124.492 39.756C124.732 39.724 124.951 39.6733 125.148 39.604C125.351 39.5347 125.54 39.4467 125.716 39.34C125.897 39.228 126.076 39.092 126.252 38.932C126.305 38.884 126.361 38.8467 126.42 38.82C126.479 38.788 126.54 38.772 126.604 38.772ZM139.79 29.932V41.5H137.63V36.444H132.198V41.5H130.038V29.932H132.198V34.908H137.63V29.932H139.79ZM154.198 35.716C154.198 36.564 154.057 37.3507 153.774 38.076C153.497 38.796 153.102 39.42 152.59 39.948C152.078 40.476 151.462 40.8893 150.742 41.188C150.022 41.4813 149.222 41.628 148.342 41.628C147.467 41.628 146.67 41.4813 145.95 41.188C145.23 40.8893 144.611 40.476 144.094 39.948C143.582 39.42 143.185 38.796 142.902 38.076C142.619 37.3507 142.478 36.564 142.478 35.716C142.478 34.868 142.619 34.084 142.902 33.364C143.185 32.6387 143.582 32.012 144.094 31.484C144.611 30.956 145.23 30.5453 145.95 30.252C146.67 29.9533 147.467 29.804 148.342 29.804C148.929 29.804 149.481 29.8733 149.998 30.012C150.515 30.1453 150.99 30.3373 151.422 30.588C151.854 30.8333 152.241 31.1347 152.582 31.492C152.929 31.844 153.222 32.2387 153.462 32.676C153.702 33.1133 153.883 33.588 154.006 34.1C154.134 34.612 154.198 35.1507 154.198 35.716ZM151.998 35.716C151.998 35.0813 151.913 34.5133 151.742 34.012C151.571 33.5053 151.329 33.076 151.014 32.724C150.699 32.372 150.315 32.1027 149.862 31.916C149.414 31.7293 148.907 31.636 148.342 31.636C147.777 31.636 147.267 31.7293 146.814 31.916C146.366 32.1027 145.982 32.372 145.662 32.724C145.347 33.076 145.105 33.5053 144.934 34.012C144.763 34.5133 144.678 35.0813 144.678 35.716C144.678 36.3507 144.763 36.9213 144.934 37.428C145.105 37.9293 145.347 38.356 145.662 38.708C145.982 39.0547 146.366 39.3213 146.814 39.508C147.267 39.6947 147.777 39.788 148.342 39.788C148.907 39.788 149.414 39.6947 149.862 39.508C150.315 39.3213 150.699 39.0547 151.014 38.708C151.329 38.356 151.571 37.9293 151.742 37.428C151.913 36.9213 151.998 36.3507 151.998 35.716ZM169.523 38.772C169.64 38.772 169.744 38.8173 169.835 38.908L170.683 39.828C170.213 40.4093 169.635 40.8547 168.947 41.164C168.264 41.4733 167.443 41.628 166.483 41.628C165.624 41.628 164.851 41.4813 164.163 41.188C163.48 40.8947 162.896 40.4867 162.411 39.964C161.925 39.4413 161.552 38.8173 161.291 38.092C161.035 37.3667 160.907 36.5747 160.907 35.716C160.907 34.8467 161.045 34.052 161.323 33.332C161.6 32.6067 161.989 31.9827 162.491 31.46C162.997 30.9373 163.6 30.532 164.299 30.244C164.997 29.9507 165.771 29.804 166.619 29.804C167.461 29.804 168.208 29.9427 168.859 30.22C169.515 30.4973 170.072 30.86 170.531 31.308L169.811 32.308C169.768 32.372 169.712 32.428 169.643 32.476C169.579 32.524 169.488 32.548 169.371 32.548C169.291 32.548 169.208 32.5267 169.123 32.484C169.037 32.436 168.944 32.38 168.843 32.316C168.741 32.2467 168.624 32.172 168.491 32.092C168.357 32.012 168.203 31.94 168.027 31.876C167.851 31.8067 167.645 31.7507 167.411 31.708C167.181 31.66 166.915 31.636 166.611 31.636C166.093 31.636 165.619 31.7293 165.187 31.916C164.76 32.0973 164.392 32.364 164.083 32.716C163.773 33.0627 163.533 33.4893 163.363 33.996C163.192 34.4973 163.107 35.0707 163.107 35.716C163.107 36.3667 163.197 36.9453 163.379 37.452C163.565 37.9587 163.816 38.3853 164.131 38.732C164.445 39.0787 164.816 39.3453 165.243 39.532C165.669 39.7133 166.128 39.804 166.619 39.804C166.912 39.804 167.176 39.788 167.411 39.756C167.651 39.724 167.869 39.6733 168.067 39.604C168.269 39.5347 168.459 39.4467 168.635 39.34C168.816 39.228 168.995 39.092 169.171 38.932C169.224 38.884 169.28 38.8467 169.339 38.82C169.397 38.788 169.459 38.772 169.523 38.772ZM182.709 29.932V41.5H180.549V36.444H175.117V41.5H172.957V29.932H175.117V34.908H180.549V29.932H182.709ZM190.741 39.764C191.157 39.764 191.528 39.6947 191.853 39.556C192.184 39.4173 192.461 39.2227 192.685 38.972C192.909 38.7213 193.08 38.4173 193.197 38.06C193.32 37.7027 193.381 37.3027 193.381 36.86V29.932H195.533V36.86C195.533 37.548 195.421 38.1853 195.197 38.772C194.978 39.3533 194.661 39.8573 194.245 40.284C193.834 40.7053 193.333 41.036 192.741 41.276C192.149 41.5107 191.482 41.628 190.741 41.628C189.994 41.628 189.325 41.5107 188.733 41.276C188.141 41.036 187.637 40.7053 187.221 40.284C186.81 39.8573 186.493 39.3533 186.269 38.772C186.05 38.1853 185.941 37.548 185.941 36.86V29.932H188.093V36.852C188.093 37.2947 188.152 37.6947 188.269 38.052C188.392 38.4093 188.565 38.716 188.789 38.972C189.018 39.2227 189.296 39.4173 189.621 39.556C189.952 39.6947 190.325 39.764 190.741 39.764ZM194.101 26.612L191.509 28.9C191.402 28.996 191.301 29.0547 191.205 29.076C191.109 29.0973 190.986 29.108 190.837 29.108H189.405L191.077 26.94C191.13 26.8653 191.184 26.8067 191.237 26.764C191.29 26.716 191.349 26.6813 191.413 26.66C191.477 26.6387 191.546 26.6253 191.621 26.62C191.701 26.6147 191.794 26.612 191.901 26.612H194.101ZM208.512 29.932V41.5H207.408C207.237 41.5 207.093 41.4733 206.976 41.42C206.864 41.3613 206.755 41.2653 206.648 41.132L200.608 33.42C200.64 33.772 200.656 34.0973 200.656 34.396V41.5H198.76V29.932H199.888C199.979 29.932 200.056 29.9373 200.12 29.948C200.189 29.9533 200.248 29.9693 200.296 29.996C200.349 30.0173 200.4 30.052 200.448 30.1C200.496 30.1427 200.549 30.2013 200.608 30.276L206.672 38.02C206.656 37.8333 206.643 37.6493 206.632 37.468C206.621 37.2867 206.616 37.1187 206.616 36.964V29.932H208.512ZM221.424 35.7V40.38C220.837 40.812 220.211 41.1293 219.544 41.332C218.883 41.5293 218.173 41.628 217.416 41.628C216.472 41.628 215.616 41.4813 214.848 41.188C214.085 40.8947 213.432 40.4867 212.888 39.964C212.349 39.4413 211.933 38.8173 211.64 38.092C211.347 37.3667 211.2 36.5747 211.2 35.716C211.2 34.8467 211.341 34.0493 211.624 33.324C211.907 32.5987 212.307 31.9747 212.824 31.452C213.347 30.9293 213.979 30.524 214.72 30.236C215.461 29.948 216.293 29.804 217.216 29.804C217.685 29.804 218.123 29.8413 218.528 29.916C218.939 29.9907 219.317 30.0947 219.664 30.228C220.016 30.356 220.336 30.5133 220.624 30.7C220.912 30.8867 221.176 31.092 221.416 31.316L220.8 32.292C220.704 32.4467 220.579 32.5427 220.424 32.58C220.269 32.612 220.101 32.572 219.92 32.46C219.744 32.3587 219.568 32.2573 219.392 32.156C219.216 32.0547 219.019 31.9667 218.8 31.892C218.587 31.8173 218.344 31.756 218.072 31.708C217.805 31.66 217.496 31.636 217.144 31.636C216.573 31.636 216.056 31.732 215.592 31.924C215.133 32.116 214.741 32.3907 214.416 32.748C214.091 33.1053 213.84 33.5347 213.664 34.036C213.488 34.5373 213.4 35.0973 213.4 35.716C213.4 36.3773 213.493 36.9693 213.68 37.492C213.872 38.0093 214.139 38.4493 214.48 38.812C214.827 39.1693 215.243 39.444 215.728 39.636C216.213 39.8227 216.755 39.916 217.352 39.916C217.779 39.916 218.16 39.8707 218.496 39.78C218.832 39.6893 219.16 39.5667 219.48 39.412V37.316H218.024C217.885 37.316 217.776 37.2787 217.696 37.204C217.621 37.124 217.584 37.028 217.584 36.916V35.7H221.424ZM236.584 31.7H233.096V41.5H230.944V31.7H227.456V29.932H236.584V31.7ZM249.539 35.716C249.539 36.564 249.397 37.3507 249.115 38.076C248.837 38.796 248.443 39.42 247.931 39.948C247.419 40.476 246.803 40.8893 246.083 41.188C245.363 41.4813 244.563 41.628 243.683 41.628C242.808 41.628 242.011 41.4813 241.291 41.188C240.571 40.8893 239.952 40.476 239.435 39.948C238.923 39.42 238.525 38.796 238.243 38.076C237.96 37.3507 237.819 36.564 237.819 35.716C237.819 34.868 237.96 34.084 238.243 33.364C238.525 32.6387 238.923 32.012 239.435 31.484C239.952 30.956 240.571 30.5453 241.291 30.252C242.011 29.9533 242.808 29.804 243.683 29.804C244.269 29.804 244.821 29.8733 245.339 30.012C245.856 30.1453 246.331 30.3373 246.763 30.588C247.195 30.8333 247.581 31.1347 247.923 31.492C248.269 31.844 248.563 32.2387 248.803 32.676C249.043 33.1133 249.224 33.588 249.347 34.1C249.475 34.612 249.539 35.1507 249.539 35.716ZM247.339 35.716C247.339 35.0813 247.253 34.5133 247.083 34.012C246.912 33.5053 246.669 33.076 246.355 32.724C246.04 32.372 245.656 32.1027 245.203 31.916C244.755 31.7293 244.248 31.636 243.683 31.636C243.117 31.636 242.608 31.7293 242.155 31.916C241.707 32.1027 241.323 32.372 241.003 32.724C240.688 33.076 240.445 33.5053 240.275 34.012C240.104 34.5133 240.019 35.0813 240.019 35.716C240.019 36.3507 240.104 36.9213 240.275 37.428C240.445 37.9293 240.688 38.356 241.003 38.708C241.323 39.0547 241.707 39.3213 242.155 39.508C242.608 39.6947 243.117 39.788 243.683 39.788C244.248 39.788 244.755 39.6947 245.203 39.508C245.656 39.3213 246.04 39.0547 246.355 38.708C246.669 38.356 246.912 37.9293 247.083 37.428C247.253 36.9213 247.339 36.3507 247.339 35.716ZM246.555 29.108H245.123C245.043 29.108 244.944 29.0947 244.827 29.068C244.715 29.036 244.597 28.948 244.475 28.804L243.819 27.956C243.765 27.8813 243.725 27.8227 243.699 27.78C243.672 27.8227 243.632 27.8813 243.579 27.956L242.923 28.804C242.8 28.948 242.68 29.036 242.563 29.068C242.451 29.0947 242.355 29.108 242.275 29.108H240.907L242.835 26.908H244.627L246.555 29.108ZM254.389 41.5H252.229V29.932H254.389V41.5Z" fill="white"/>
</g>
<defs>
<filter id="filter0_d_1_21577" x="0" y="0" width="305" height="86" filterUnits="userSpaceOnUse" color-interpolation-filters="sRGB">
<feFlood flood-opacity="0" result="BackgroundImageFix"/>
<feColorMatrix in="SourceAlpha" type="matrix" values="0 0 0 0 0 0 0 0 0 0 0 0 0 0 0 0 0 0 127 0" result="hardAlpha"/>
<feOffset dy="8"/>
<feGaussianBlur stdDeviation="10"/>
<feComposite in2="hardAlpha" operator="out"/>
<feColorMatrix type="matrix" values="0 0 0 0 0 0 0 0 0 0.886275 0 0 0 0 0.392157 0 0 0 0.4 0"/>
<feBlend mode="normal" in2="BackgroundImageFix" result="effect1_dropShadow_1_21577"/>
<feBlend mode="normal" in="SourceGraphic" in2="effect1_dropShadow_1_21577" result="shape"/>
</filter>
<linearGradient id="paint0_linear_1_21577" x1="20" y1="12" x2="35.5027" y2="101.309" gradientUnits="userSpaceOnUse">
<stop stop-color="#3EED8B"/>
<stop offset="1" stop-color="#0A9949"/>
</linearGradient>
</defs>
</svg>
