<svg width="293" height="153" viewBox="0 0 293 153" fill="none" xmlns="http://www.w3.org/2000/svg">
<g filter="url(#filter0_d_1_21731)">
<rect x="34" y="32" width="213" height="73" rx="10" fill="white"/>
</g>
<path d="M71.2117 47.5602C71.7266 46.8089 72.8354 46.8089 73.3502 47.5602L75.6462 50.9102C75.8147 51.1562 76.0629 51.3365 76.3489 51.4208L80.2445 52.5692C81.1181 52.8267 81.4608 53.8812 80.9053 54.603L78.4287 57.8218C78.2469 58.0581 78.1521 58.3499 78.1603 58.648L78.272 62.7077C78.297 63.6182 77.4 64.2699 76.5418 63.9647L72.7153 62.604C72.4344 62.5041 72.1276 62.5041 71.8467 62.604L68.0201 63.9647C67.1619 64.2699 66.2649 63.6182 66.29 62.7077L66.4016 58.648C66.4098 58.3499 66.315 58.0581 66.1332 57.8218L63.6566 54.603C63.1012 53.8812 63.4438 52.8267 64.3175 52.5692L68.213 51.4208C68.499 51.3365 68.7472 51.1562 68.9158 50.9102L71.2117 47.5602Z" fill="#FFB800"/>
<path d="M95.8865 47.5602C96.4014 46.8089 97.5102 46.8089 98.0251 47.5602L100.321 50.9102C100.49 51.1562 100.738 51.3365 101.024 51.4208L104.919 52.5692C105.793 52.8267 106.136 53.8812 105.58 54.603L103.104 57.8218C102.922 58.0581 102.827 58.3499 102.835 58.648L102.947 62.7077C102.972 63.6182 102.075 64.2699 101.217 63.9647L97.3901 62.604C97.1092 62.5041 96.8024 62.5041 96.5215 62.604L92.6949 63.9647C91.8367 64.2699 90.9397 63.6182 90.9648 62.7077L91.0764 58.648C91.0846 58.3499 90.9898 58.0581 90.808 57.8218L88.3314 54.603C87.776 53.8812 88.1186 52.8267 88.9923 52.5692L92.8878 51.4208C93.1738 51.3365 93.422 51.1562 93.5906 50.9102L95.8865 47.5602Z" fill="#FFB800"/>
<path d="M120.56 47.5602C121.075 46.8089 122.184 46.8089 122.699 47.5602L124.995 50.9102C125.163 51.1562 125.412 51.3365 125.698 51.4208L129.593 52.5692C130.467 52.8267 130.809 53.8812 130.254 54.603L127.777 57.8218C127.596 58.0581 127.501 58.3499 127.509 58.648L127.621 62.7077C127.646 63.6182 126.749 64.2699 125.89 63.9647L122.064 62.604C121.783 62.5041 121.476 62.5041 121.195 62.604L117.369 63.9647C116.511 64.2699 115.614 63.6182 115.639 62.7077L115.75 58.648C115.758 58.3499 115.664 58.0581 115.482 57.8218L113.005 54.603C112.45 53.8812 112.792 52.8267 113.666 52.5692L117.562 51.4208C117.848 51.3365 118.096 51.1562 118.264 50.9102L120.56 47.5602Z" fill="#FFB800"/>
<path d="M145.235 47.5602C145.75 46.8089 146.858 46.8089 147.373 47.5602L149.669 50.9102C149.838 51.1562 150.086 51.3365 150.372 51.4208L154.267 52.5692C155.141 52.8267 155.484 53.8812 154.928 54.603L152.452 57.8218C152.27 58.0581 152.175 58.3499 152.183 58.648L152.295 62.7077C152.32 63.6182 151.423 64.2699 150.565 63.9647L146.738 62.604C146.457 62.5041 146.151 62.5041 145.87 62.604L142.043 63.9647C141.185 64.2699 140.288 63.6182 140.313 62.7077L140.425 58.648C140.433 58.3499 140.338 58.0581 140.156 57.8218L137.68 54.603C137.124 53.8812 137.467 52.8267 138.34 52.5692L142.236 51.4208C142.522 51.3365 142.77 51.1562 142.939 50.9102L145.235 47.5602Z" fill="#FFB800"/>
<path d="M169.908 47.5602C170.423 46.8089 171.532 46.8089 172.047 47.5602L174.343 50.9102C174.512 51.1562 174.76 51.3365 175.046 51.4208L178.941 52.5692C179.815 52.8267 180.158 53.8812 179.602 54.603L177.126 57.8218C176.944 58.0581 176.849 58.3499 176.857 58.648L176.969 62.7077C176.994 63.6182 176.097 64.2699 175.239 63.9647L171.412 62.604C171.131 62.5041 170.824 62.5041 170.543 62.604L166.717 63.9647C165.859 64.2699 164.962 63.6182 164.987 62.7077L165.098 58.648C165.107 58.3499 165.012 58.0581 164.83 57.8218L162.353 54.603C161.798 53.8812 162.141 52.8267 163.014 52.5692L166.91 51.4208C167.196 51.3365 167.444 51.1562 167.613 50.9102L169.908 47.5602Z" fill="#FFB800"/>
<path d="M67.6778 83.9042V79.3075C67.6778 79.1727 67.683 79.0249 67.6933 78.8642C67.7037 78.7034 67.7193 78.5401 67.74 78.3742L63.68 83.9042H67.6778ZM70.5789 83.9042V84.6975C70.5789 84.7805 70.553 84.8505 70.5011 84.9075C70.4544 84.9646 70.3793 84.9931 70.2756 84.9931H68.8911V87.9253H67.6778V84.9931H62.7311C62.6274 84.9931 62.5367 84.9646 62.4589 84.9075C62.3863 84.8453 62.3396 84.7701 62.3189 84.682L62.1789 83.9742L67.6 76.7797H68.8911V83.9042H70.5789ZM71.8868 87.0697C71.8868 86.9349 71.9101 86.8079 71.9568 86.6886C72.0086 86.5694 72.076 86.4657 72.159 86.3775C72.2471 86.2894 72.3508 86.2194 72.4701 86.1675C72.5894 86.1157 72.7164 86.0897 72.8512 86.0897C72.986 86.0897 73.1131 86.1157 73.2323 86.1675C73.3516 86.2194 73.4553 86.2894 73.5434 86.3775C73.6316 86.4657 73.7016 86.5694 73.7534 86.6886C73.8053 86.8079 73.8312 86.9349 73.8312 87.0697C73.8312 87.2097 73.8053 87.3394 73.7534 87.4586C73.7016 87.5727 73.6316 87.6738 73.5434 87.762C73.4553 87.8501 73.3516 87.9175 73.2323 87.9642C73.1131 88.016 72.986 88.042 72.8512 88.042C72.7164 88.042 72.5894 88.016 72.4701 87.9642C72.3508 87.9175 72.2471 87.8501 72.159 87.762C72.076 87.6738 72.0086 87.5727 71.9568 87.4586C71.9101 87.3394 71.8868 87.2097 71.8868 87.0697ZM79.2108 86.9453C79.5737 86.9453 79.8978 86.896 80.183 86.7975C80.4734 86.6938 80.7171 86.5512 80.9141 86.3697C81.1163 86.1831 81.2693 85.9627 81.373 85.7086C81.4819 85.4494 81.5363 85.1642 81.5363 84.8531C81.5363 84.4694 81.4715 84.1427 81.3419 83.8731C81.2174 83.5983 81.0463 83.3753 80.8285 83.2042C80.6159 83.0331 80.3697 82.9086 80.0897 82.8308C79.8097 82.7479 79.5167 82.7064 79.2108 82.7064C78.9048 82.7064 78.6119 82.7479 78.3319 82.8308C78.0519 82.9086 77.803 83.0331 77.5852 83.2042C77.3726 83.3753 77.2015 83.5983 77.0719 83.8731C76.9474 84.1427 76.8852 84.4694 76.8852 84.8531C76.8852 85.1642 76.9371 85.4494 77.0408 85.7086C77.1497 85.9627 77.3026 86.1831 77.4997 86.3697C77.7019 86.5512 77.9456 86.6938 78.2308 86.7975C78.5211 86.896 78.8478 86.9453 79.2108 86.9453ZM79.2108 77.7286C78.8789 77.7286 78.5859 77.7779 78.3319 77.8764C78.083 77.9749 77.873 78.1097 77.7019 78.2808C77.5359 78.452 77.4089 78.6516 77.3208 78.8797C77.2378 79.1079 77.1963 79.3516 77.1963 79.6108C77.1963 79.8649 77.2326 80.1112 77.3052 80.3497C77.3778 80.5883 77.4945 80.8008 77.6552 80.9875C77.8159 81.169 78.0234 81.3168 78.2774 81.4308C78.5367 81.5397 78.8478 81.5942 79.2108 81.5942C79.5737 81.5942 79.8822 81.5397 80.1363 81.4308C80.3956 81.3168 80.6056 81.169 80.7663 80.9875C80.9271 80.8008 81.0437 80.5883 81.1163 80.3497C81.1889 80.1112 81.2252 79.8649 81.2252 79.6108C81.2252 79.3516 81.1811 79.1079 81.093 78.8797C81.01 78.6516 80.883 78.452 80.7119 78.2808C80.5459 78.1097 80.3359 77.9749 80.0819 77.8764C79.833 77.7779 79.5426 77.7286 79.2108 77.7286ZM80.8052 82.1153C81.5 82.3123 82.0341 82.6416 82.4074 83.1031C82.7808 83.5646 82.9674 84.1557 82.9674 84.8764C82.9674 85.3638 82.8741 85.8046 82.6874 86.1986C82.5059 86.5875 82.2493 86.9194 81.9174 87.1942C81.5908 87.469 81.1967 87.6816 80.7352 87.832C80.2737 87.9771 79.7656 88.0497 79.2108 88.0497C78.6559 88.0497 78.1478 87.9771 77.6863 87.832C77.2248 87.6816 76.8282 87.469 76.4963 87.1942C76.1645 86.9194 75.9078 86.5875 75.7263 86.1986C75.5448 85.8046 75.4541 85.3638 75.4541 84.8764C75.4541 84.1557 75.6408 83.5646 76.0141 83.1031C76.3874 82.6416 76.9215 82.3123 77.6163 82.1153C77.0304 81.8975 76.5871 81.5734 76.2863 81.1431C75.9908 80.7075 75.843 80.189 75.843 79.5875C75.843 79.1779 75.9234 78.7942 76.0841 78.4364C76.2448 78.0786 76.473 77.7675 76.7685 77.5031C77.0641 77.2386 77.4167 77.0312 77.8263 76.8808C78.2411 76.7305 78.7026 76.6553 79.2108 76.6553C79.7137 76.6553 80.1726 76.7305 80.5874 76.8808C81.0022 77.0312 81.3574 77.2386 81.653 77.5031C81.9485 77.7675 82.1767 78.0786 82.3374 78.4364C82.4982 78.7942 82.5785 79.1779 82.5785 79.5875C82.5785 80.189 82.4282 80.7075 82.1274 81.1431C81.8319 81.5734 81.3911 81.8975 80.8052 82.1153ZM85.582 88.0886C85.5146 88.2701 85.4083 88.4049 85.2631 88.4931C85.1231 88.5812 84.9779 88.6253 84.8275 88.6253H84.2442L88.9186 76.982C88.9809 76.816 89.0742 76.689 89.1986 76.6008C89.3283 76.5127 89.4761 76.4686 89.642 76.4686H90.2331L85.582 88.0886ZM93.5721 80.9875C94.1528 80.8631 94.6869 80.8008 95.1743 80.8008C95.755 80.8008 96.2684 80.8864 96.7143 81.0575C97.1602 81.2286 97.531 81.4646 97.8265 81.7653C98.1273 82.066 98.3528 82.4212 98.5032 82.8308C98.6587 83.2405 98.7365 83.6864 98.7365 84.1686C98.7365 84.7597 98.6328 85.2938 98.4254 85.7708C98.2232 86.2479 97.9406 86.6575 97.5776 86.9997C97.2198 87.3368 96.7973 87.596 96.3098 87.7775C95.8224 87.959 95.2961 88.0497 94.731 88.0497C94.4043 88.0497 94.0906 88.016 93.7898 87.9486C93.4891 87.8864 93.2065 87.8008 92.9421 87.692C92.6828 87.5831 92.4417 87.4586 92.2187 87.3186C91.9958 87.1786 91.7987 87.0308 91.6276 86.8753L92.0554 86.2842C92.1487 86.1494 92.2706 86.082 92.421 86.082C92.5247 86.082 92.6413 86.1234 92.771 86.2064C92.9006 86.2842 93.0587 86.3723 93.2454 86.4708C93.4321 86.5694 93.6498 86.6601 93.8987 86.7431C94.1528 86.8208 94.4535 86.8597 94.801 86.8597C95.1898 86.8597 95.5398 86.7975 95.851 86.6731C96.1621 86.5486 96.4291 86.3723 96.6521 86.1442C96.875 85.9108 97.0461 85.6334 97.1654 85.312C97.2847 84.9905 97.3443 84.6301 97.3443 84.2308C97.3443 83.8834 97.2924 83.5697 97.1887 83.2897C97.0902 83.0097 96.9373 82.7712 96.7298 82.5742C96.5276 82.3771 96.2735 82.2242 95.9676 82.1153C95.6617 82.0064 95.3039 81.952 94.8943 81.952C94.6143 81.952 94.3213 81.9753 94.0154 82.022C93.7147 82.0686 93.4061 82.1438 93.0898 82.2475L92.2187 81.9908L93.1132 76.7797H98.3943V77.3864C98.3943 77.5834 98.3321 77.7468 98.2076 77.8764C98.0884 78.0008 97.881 78.0631 97.5854 78.0631H94.0854L93.5721 80.9875ZM105.666 83.0331C105.666 84.1427 105.806 85.2212 106.086 86.2686C106.371 87.316 106.786 88.3116 107.33 89.2553C107.413 89.416 107.434 89.5379 107.392 89.6208C107.351 89.709 107.291 89.779 107.213 89.8308L106.599 90.2042C106.21 89.6079 105.878 89.0168 105.603 88.4308C105.334 87.8449 105.113 87.2564 104.942 86.6653C104.776 86.0742 104.654 85.4805 104.577 84.8842C104.499 84.2827 104.46 83.6657 104.46 83.0331C104.46 82.4057 104.499 81.7912 104.577 81.1897C104.654 80.5883 104.776 79.9946 104.942 79.4086C105.113 78.8175 105.334 78.229 105.603 77.6431C105.878 77.0571 106.21 76.4634 106.599 75.862L107.213 76.2431C107.291 76.2949 107.351 76.3649 107.392 76.4531C107.434 76.536 107.413 76.6553 107.33 76.8108C106.786 77.7546 106.371 78.7501 106.086 79.7975C105.806 80.8449 105.666 81.9234 105.666 83.0331ZM108.918 79.7975C108.991 79.2894 109.131 78.8408 109.338 78.452C109.546 78.0579 109.807 77.7286 110.124 77.4642C110.445 77.1997 110.811 77.0001 111.22 76.8653C111.635 76.7253 112.081 76.6553 112.558 76.6553C113.03 76.6553 113.466 76.7227 113.865 76.8575C114.264 76.9923 114.606 77.1842 114.892 77.4331C115.182 77.682 115.407 77.9827 115.568 78.3353C115.729 78.6879 115.809 79.0794 115.809 79.5097C115.809 79.8623 115.763 80.1786 115.669 80.4586C115.581 80.7334 115.452 80.9746 115.28 81.182C115.115 81.3894 114.912 81.5657 114.674 81.7108C114.435 81.856 114.168 81.9753 113.873 82.0686C114.599 82.2553 115.143 82.5768 115.506 83.0331C115.874 83.4842 116.058 84.0494 116.058 84.7286C116.058 85.242 115.96 85.7034 115.763 86.1131C115.571 86.5227 115.306 86.8727 114.969 87.1631C114.632 87.4483 114.238 87.6686 113.787 87.8242C113.341 87.9746 112.862 88.0497 112.348 88.0497C111.757 88.0497 111.252 87.9771 110.832 87.832C110.412 87.6816 110.056 87.4768 109.766 87.2175C109.476 86.9583 109.237 86.6523 109.05 86.2997C108.864 85.942 108.706 85.5557 108.576 85.1408L109.175 84.892C109.33 84.8246 109.481 84.8064 109.626 84.8375C109.776 84.8686 109.885 84.9542 109.953 85.0942C110.02 85.2394 110.103 85.4131 110.202 85.6153C110.305 85.8175 110.445 86.012 110.622 86.1986C110.798 86.3853 111.021 86.5434 111.29 86.6731C111.565 86.8027 111.913 86.8675 112.333 86.8675C112.722 86.8675 113.061 86.8053 113.352 86.6808C113.647 86.5512 113.891 86.3853 114.083 86.1831C114.28 85.9808 114.427 85.7553 114.526 85.5064C114.625 85.2575 114.674 85.0112 114.674 84.7675C114.674 84.4668 114.635 84.192 114.557 83.9431C114.479 83.6942 114.334 83.479 114.122 83.2975C113.909 83.116 113.616 82.9734 113.243 82.8697C112.875 82.766 112.4 82.7142 111.819 82.7142V81.7108C112.296 81.7057 112.701 81.6538 113.033 81.5553C113.37 81.4568 113.642 81.322 113.849 81.1508C114.062 80.9797 114.215 80.7749 114.308 80.5364C114.407 80.2979 114.456 80.0334 114.456 79.7431C114.456 79.4216 114.404 79.1416 114.3 78.9031C114.202 78.6646 114.065 78.4675 113.888 78.312C113.712 78.1564 113.502 78.0397 113.258 77.962C113.02 77.8842 112.76 77.8453 112.48 77.8453C112.2 77.8453 111.939 77.8868 111.695 77.9697C111.456 78.0527 111.244 78.1694 111.057 78.3197C110.876 78.4649 110.723 78.6386 110.598 78.8408C110.474 79.0431 110.386 79.266 110.334 79.5097C110.266 79.6912 110.181 79.8131 110.077 79.8753C109.979 79.9323 109.833 79.9479 109.642 79.922L108.918 79.7975ZM121.442 86.9453C121.805 86.9453 122.129 86.896 122.414 86.7975C122.704 86.6938 122.948 86.5512 123.145 86.3697C123.347 86.1831 123.5 85.9627 123.604 85.7086C123.713 85.4494 123.767 85.1642 123.767 84.8531C123.767 84.4694 123.702 84.1427 123.573 83.8731C123.448 83.5983 123.277 83.3753 123.059 83.2042C122.847 83.0331 122.601 82.9086 122.321 82.8308C122.041 82.7479 121.748 82.7064 121.442 82.7064C121.136 82.7064 120.843 82.7479 120.563 82.8308C120.283 82.9086 120.034 83.0331 119.816 83.2042C119.604 83.3753 119.432 83.5983 119.303 83.8731C119.178 84.1427 119.116 84.4694 119.116 84.8531C119.116 85.1642 119.168 85.4494 119.272 85.7086C119.381 85.9627 119.534 86.1831 119.731 86.3697C119.933 86.5512 120.176 86.6938 120.462 86.7975C120.752 86.896 121.079 86.9453 121.442 86.9453ZM121.442 77.7286C121.11 77.7286 120.817 77.7779 120.563 77.8764C120.314 77.9749 120.104 78.1097 119.933 78.2808C119.767 78.452 119.64 78.6516 119.552 78.8797C119.469 79.1079 119.427 79.3516 119.427 79.6108C119.427 79.8649 119.464 80.1112 119.536 80.3497C119.609 80.5883 119.725 80.8008 119.886 80.9875C120.047 81.169 120.254 81.3168 120.508 81.4308C120.768 81.5397 121.079 81.5942 121.442 81.5942C121.805 81.5942 122.113 81.5397 122.367 81.4308C122.626 81.3168 122.836 81.169 122.997 80.9875C123.158 80.8008 123.275 80.5883 123.347 80.3497C123.42 80.1112 123.456 79.8649 123.456 79.6108C123.456 79.3516 123.412 79.1079 123.324 78.8797C123.241 78.6516 123.114 78.452 122.943 78.2808C122.777 78.1097 122.567 77.9749 122.313 77.8764C122.064 77.7779 121.774 77.7286 121.442 77.7286ZM123.036 82.1153C123.731 82.3123 124.265 82.6416 124.638 83.1031C125.012 83.5646 125.198 84.1557 125.198 84.8764C125.198 85.3638 125.105 85.8046 124.918 86.1986C124.737 86.5875 124.48 86.9194 124.148 87.1942C123.822 87.469 123.428 87.6816 122.966 87.832C122.505 87.9771 121.996 88.0497 121.442 88.0497C120.887 88.0497 120.379 87.9771 119.917 87.832C119.456 87.6816 119.059 87.469 118.727 87.1942C118.395 86.9194 118.139 86.5875 117.957 86.1986C117.776 85.8046 117.685 85.3638 117.685 84.8764C117.685 84.1557 117.872 83.5646 118.245 83.1031C118.618 82.6416 119.152 82.3123 119.847 82.1153C119.261 81.8975 118.818 81.5734 118.517 81.1431C118.222 80.7075 118.074 80.189 118.074 79.5875C118.074 79.1779 118.154 78.7942 118.315 78.4364C118.476 78.0786 118.704 77.7675 118.999 77.5031C119.295 77.2386 119.648 77.0312 120.057 76.8808C120.472 76.7305 120.934 76.6553 121.442 76.6553C121.945 76.6553 122.404 76.7305 122.818 76.8808C123.233 77.0312 123.588 77.2386 123.884 77.5031C124.179 77.7675 124.408 78.0786 124.568 78.4364C124.729 78.7942 124.809 79.1779 124.809 79.5875C124.809 80.189 124.659 80.7075 124.358 81.1431C124.063 81.5734 123.622 81.8975 123.036 82.1153ZM132.423 86.0275C132.677 86.3697 132.954 86.6108 133.255 86.7508C133.561 86.8908 133.896 86.9608 134.258 86.9608C135 86.9608 135.568 86.699 135.962 86.1753C136.356 85.6516 136.553 84.8712 136.553 83.8342C136.553 82.8697 136.377 82.162 136.024 81.7108C135.677 81.2546 135.179 81.0264 134.531 81.0264C134.08 81.0264 133.686 81.1301 133.348 81.3375C133.017 81.5449 132.708 81.8379 132.423 82.2164V86.0275ZM132.423 81.182C132.755 80.7983 133.128 80.4923 133.543 80.2642C133.963 80.036 134.445 79.922 134.99 79.922C135.451 79.922 135.866 80.0101 136.234 80.1864C136.607 80.3627 136.924 80.6194 137.183 80.9564C137.442 81.2883 137.639 81.6927 137.774 82.1697C137.914 82.6468 137.984 83.1834 137.984 83.7797C137.984 84.4175 137.906 84.9983 137.751 85.522C137.595 86.0457 137.37 86.4942 137.074 86.8675C136.784 87.2357 136.428 87.5234 136.008 87.7308C135.588 87.9331 135.117 88.0342 134.593 88.0342C134.074 88.0342 133.636 87.9383 133.278 87.7464C132.926 87.5494 132.617 87.272 132.353 86.9142L132.283 87.6297C132.241 87.8268 132.122 87.9253 131.925 87.9253H131.031V76.4686H132.423V81.182ZM141.197 80.0464V87.9253H139.805V80.0464H141.197ZM139.766 76.6553C139.937 76.6553 140.064 76.6838 140.147 76.7408C140.23 76.7927 140.308 76.8783 140.381 76.9975L141.54 78.8797H140.746C140.637 78.8797 140.549 78.8642 140.482 78.8331C140.414 78.7968 140.344 78.7397 140.272 78.662L138.452 76.6553H139.766ZM144.779 81.1897C144.95 80.9979 145.131 80.8242 145.323 80.6686C145.515 80.5131 145.717 80.3808 145.93 80.272C146.148 80.1579 146.376 80.0723 146.614 80.0153C146.858 79.9531 147.12 79.922 147.4 79.922C147.83 79.922 148.209 79.9946 148.535 80.1397C148.867 80.2797 149.142 80.482 149.36 80.7464C149.583 81.0057 149.751 81.3194 149.865 81.6875C149.98 82.0557 150.037 82.4627 150.037 82.9086V87.9253H148.644V82.9086C148.644 82.3123 148.507 81.8508 148.232 81.5242C147.962 81.1923 147.55 81.0264 146.995 81.0264C146.586 81.0264 146.202 81.1249 145.844 81.322C145.492 81.519 145.165 81.786 144.864 82.1231V87.9253H143.472V80.0464H144.304C144.501 80.0464 144.623 80.1423 144.67 80.3342L144.779 81.1897ZM153.538 81.0964C153.875 80.7386 154.249 80.4534 154.658 80.2408C155.068 80.0283 155.54 79.922 156.074 79.922C156.504 79.922 156.883 79.9946 157.209 80.1397C157.541 80.2797 157.816 80.482 158.034 80.7464C158.257 81.0057 158.425 81.3194 158.539 81.6875C158.654 82.0557 158.711 82.4627 158.711 82.9086V87.9253H157.318V82.9086C157.318 82.3123 157.181 81.8508 156.906 81.5242C156.637 81.1923 156.224 81.0264 155.669 81.0264C155.26 81.0264 154.876 81.1249 154.518 81.322C154.166 81.519 153.839 81.786 153.538 82.1231V87.9253H152.146V76.4686H153.538V81.0964ZM170.284 81.4464C170.242 81.5034 170.201 81.5475 170.159 81.5786C170.118 81.6097 170.061 81.6253 169.988 81.6253C169.91 81.6253 169.825 81.5942 169.731 81.532C169.638 81.4646 169.521 81.392 169.381 81.3142C169.247 81.2364 169.078 81.1664 168.876 81.1042C168.679 81.0368 168.435 81.0031 168.145 81.0031C167.756 81.0031 167.414 81.0731 167.118 81.2131C166.822 81.3479 166.574 81.5449 166.371 81.8042C166.174 82.0634 166.024 82.3771 165.92 82.7453C165.822 83.1134 165.772 83.5257 165.772 83.982C165.772 84.459 165.827 84.8842 165.936 85.2575C166.045 85.6257 166.198 85.9368 166.395 86.1908C166.597 86.4397 166.838 86.6316 167.118 86.7664C167.403 86.896 167.722 86.9608 168.075 86.9608C168.412 86.9608 168.689 86.922 168.907 86.8442C169.125 86.7612 169.304 86.6705 169.444 86.572C169.589 86.4734 169.708 86.3853 169.801 86.3075C169.9 86.2246 169.996 86.1831 170.089 86.1831C170.203 86.1831 170.291 86.2271 170.354 86.3153L170.742 86.8208C170.571 87.0334 170.377 87.2149 170.159 87.3653C169.941 87.5157 169.705 87.6427 169.451 87.7464C169.202 87.8449 168.941 87.9175 168.666 87.9642C168.391 88.0108 168.111 88.0342 167.826 88.0342C167.333 88.0342 166.874 87.9434 166.449 87.762C166.029 87.5805 165.664 87.3186 165.352 86.9764C165.041 86.629 164.798 86.2038 164.621 85.7008C164.445 85.1979 164.357 84.6249 164.357 83.982C164.357 83.396 164.437 82.8542 164.598 82.3564C164.764 81.8586 165.002 81.4308 165.314 81.0731C165.63 80.7101 166.016 80.4275 166.472 80.2253C166.934 80.0231 167.463 79.922 168.059 79.922C168.614 79.922 169.101 80.0127 169.521 80.1942C169.947 80.3705 170.322 80.622 170.649 80.9486L170.284 81.4464ZM173.621 81.0964C173.958 80.7386 174.331 80.4534 174.741 80.2408C175.15 80.0283 175.622 79.922 176.156 79.922C176.587 79.922 176.965 79.9946 177.292 80.1397C177.624 80.2797 177.899 80.482 178.116 80.7464C178.339 81.0057 178.508 81.3194 178.622 81.6875C178.736 82.0557 178.793 82.4627 178.793 82.9086V87.9253H177.401V82.9086C177.401 82.3123 177.263 81.8508 176.989 81.5242C176.719 81.1923 176.307 81.0264 175.752 81.0264C175.342 81.0264 174.959 81.1249 174.601 81.322C174.248 81.519 173.922 81.786 173.621 82.1231V87.9253H172.229V76.4686H173.621V81.0964ZM184.224 79.922C184.799 79.922 185.318 80.0179 185.779 80.2097C186.241 80.4016 186.635 80.6738 186.962 81.0264C187.288 81.379 187.537 81.8068 187.708 82.3097C187.885 82.8075 187.973 83.3649 187.973 83.982C187.973 84.6042 187.885 85.1642 187.708 85.662C187.537 86.1597 187.288 86.5849 186.962 86.9375C186.635 87.2901 186.241 87.5623 185.779 87.7542C185.318 87.9408 184.799 88.0342 184.224 88.0342C183.643 88.0342 183.119 87.9408 182.653 87.7542C182.191 87.5623 181.797 87.2901 181.47 86.9375C181.144 86.5849 180.892 86.1597 180.716 85.662C180.545 85.1642 180.459 84.6042 180.459 83.982C180.459 83.3649 180.545 82.8075 180.716 82.3097C180.892 81.8068 181.144 81.379 181.47 81.0264C181.797 80.6738 182.191 80.4016 182.653 80.2097C183.119 80.0179 183.643 79.922 184.224 79.922ZM184.224 86.9531C185.002 86.9531 185.582 86.6938 185.966 86.1753C186.35 85.6516 186.542 84.9231 186.542 83.9897C186.542 83.0512 186.35 82.3201 185.966 81.7964C185.582 81.2727 185.002 81.0108 184.224 81.0108C183.83 81.0108 183.485 81.0783 183.189 81.2131C182.899 81.3479 182.655 81.5423 182.458 81.7964C182.266 82.0505 182.121 82.3642 182.023 82.7375C181.929 83.1057 181.883 83.5231 181.883 83.9897C181.883 84.9231 182.075 85.6516 182.458 86.1753C182.847 86.6938 183.436 86.9531 184.224 86.9531ZM185.126 89.862C185.126 89.9812 185.1 90.0927 185.048 90.1964C185.002 90.3053 184.937 90.3986 184.854 90.4764C184.776 90.5542 184.683 90.6164 184.574 90.6631C184.465 90.7097 184.351 90.7331 184.232 90.7331C184.112 90.7331 183.998 90.7097 183.889 90.6631C183.786 90.6164 183.695 90.5542 183.617 90.4764C183.539 90.3986 183.477 90.3053 183.43 90.1964C183.384 90.0927 183.36 89.9812 183.36 89.862C183.36 89.7375 183.384 89.6208 183.43 89.512C183.477 89.4083 183.539 89.3149 183.617 89.232C183.695 89.149 183.786 89.0842 183.889 89.0375C183.998 88.9908 184.112 88.9675 184.232 88.9675C184.351 88.9675 184.465 88.9908 184.574 89.0375C184.683 89.0842 184.776 89.149 184.854 89.232C184.937 89.3149 185.002 89.4083 185.048 89.512C185.1 89.6208 185.126 89.7375 185.126 89.862ZM191.035 81.1897C191.206 80.9979 191.388 80.8242 191.58 80.6686C191.772 80.5131 191.974 80.3808 192.186 80.272C192.404 80.1579 192.632 80.0723 192.871 80.0153C193.115 79.9531 193.376 79.922 193.656 79.922C194.087 79.922 194.465 79.9946 194.792 80.1397C195.124 80.2797 195.399 80.482 195.616 80.7464C195.839 81.0057 196.008 81.3194 196.122 81.6875C196.236 82.0557 196.293 82.4627 196.293 82.9086V87.9253H194.901V82.9086C194.901 82.3123 194.763 81.8508 194.489 81.5242C194.219 81.1923 193.807 81.0264 193.252 81.0264C192.842 81.0264 192.459 81.1249 192.101 81.322C191.748 81.519 191.422 81.786 191.121 82.1231V87.9253H189.729V80.0464H190.561C190.758 80.0464 190.88 80.1423 190.926 80.3342L191.035 81.1897ZM199.28 83.0331C199.28 81.9234 199.138 80.8449 198.853 79.7975C198.573 78.7501 198.16 77.7546 197.616 76.8108C197.574 76.7331 197.548 76.6657 197.538 76.6086C197.528 76.5464 197.53 76.4946 197.546 76.4531C197.561 76.4064 197.585 76.3675 197.616 76.3364C197.652 76.3001 197.691 76.269 197.733 76.2431L198.347 75.862C198.736 76.4634 199.065 77.0571 199.335 77.6431C199.61 78.229 199.83 78.8175 199.996 79.4086C200.167 79.9946 200.291 80.5883 200.369 81.1897C200.447 81.7912 200.486 82.4057 200.486 83.0331C200.486 83.6657 200.447 84.2827 200.369 84.8842C200.291 85.4805 200.167 86.0742 199.996 86.6653C199.83 87.2564 199.61 87.8449 199.335 88.4308C199.065 89.0168 198.736 89.6079 198.347 90.2042L197.733 89.8308C197.691 89.8049 197.652 89.7738 197.616 89.7375C197.585 89.7064 197.561 89.6675 197.546 89.6208C197.53 89.5794 197.528 89.5275 197.538 89.4653C197.548 89.4031 197.574 89.3331 197.616 89.2553C198.16 88.3116 198.573 87.316 198.853 86.2686C199.138 85.2212 199.28 84.1427 199.28 83.0331Z" fill="#454545"/>
<defs>
<filter id="filter0_d_1_21731" x="0" y="0" width="293" height="153" filterUnits="userSpaceOnUse" color-interpolation-filters="sRGB">
<feFlood flood-opacity="0" result="BackgroundImageFix"/>
<feColorMatrix in="SourceAlpha" type="matrix" values="0 0 0 0 0 0 0 0 0 0 0 0 0 0 0 0 0 0 127 0" result="hardAlpha"/>
<feOffset dx="6" dy="8"/>
<feGaussianBlur stdDeviation="20"/>
<feComposite in2="hardAlpha" operator="out"/>
<feColorMatrix type="matrix" values="0 0 0 0 0 0 0 0 0 0 0 0 0 0 0 0 0 0 0.08 0"/>
<feBlend mode="normal" in2="BackgroundImageFix" result="effect1_dropShadow_1_21731"/>
<feBlend mode="normal" in="SourceGraphic" in2="effect1_dropShadow_1_21731" result="shape"/>
</filter>
</defs>
</svg>
