<svg width="247" height="78" viewBox="0 0 247 78" fill="none" xmlns="http://www.w3.org/2000/svg">
<g filter="url(#filter0_d_1_21965)">
<rect x="16" y="8" width="215" height="46" rx="23" fill="url(#paint0_linear_1_21965)"/>
</g>
<path d="M77.848 35.288C78.4133 35.288 78.92 35.1947 79.368 35.008C79.8213 34.8213 80.2053 34.5547 80.52 34.208C80.8347 33.856 81.0773 33.4293 81.248 32.928C81.4187 32.4213 81.504 31.8507 81.504 31.216C81.504 30.5813 81.4187 30.0133 81.248 29.512C81.0773 29.0053 80.8347 28.5787 80.52 28.232C80.2053 27.88 79.8213 27.6107 79.368 27.424C78.92 27.2373 78.4133 27.144 77.848 27.144H75.6V30.568H77.728V31.792H75.6V35.288H77.848ZM77.848 25.432C78.728 25.432 79.528 25.576 80.248 25.864C80.968 26.1467 81.584 26.544 82.096 27.056C82.608 27.5627 83.0053 28.1707 83.288 28.88C83.5707 29.5893 83.712 30.368 83.712 31.216C83.712 32.064 83.5707 32.8427 83.288 33.552C83.0053 34.2613 82.608 34.872 82.096 35.384C81.584 35.896 80.968 36.2933 80.248 36.576C79.528 36.8587 78.728 37 77.848 37H73.44V31.792H71.992V30.568H73.44V25.432H77.848ZM91.3531 32.632L89.9451 28.784C89.8758 28.6133 89.8038 28.4107 89.7291 28.176C89.6545 27.9413 89.5798 27.688 89.5051 27.416C89.4358 27.688 89.3638 27.944 89.2891 28.184C89.2145 28.4187 89.1425 28.624 89.0731 28.8L87.6731 32.632H91.3531ZM95.1531 37H93.4891C93.3025 37 93.1505 36.9547 93.0331 36.864C92.9158 36.768 92.8278 36.6507 92.7691 36.512L91.9051 34.152H87.1131L86.2491 36.512C86.2065 36.6347 86.1238 36.7467 86.0011 36.848C85.8785 36.9493 85.7265 37 85.5451 37H83.8651L88.4171 25.432H90.6091L95.1531 37ZM89.5051 24.632C89.1051 24.632 88.7425 24.5893 88.4171 24.504C88.0918 24.4133 87.8145 24.28 87.5851 24.104C87.3558 23.9227 87.1771 23.696 87.0491 23.424C86.9265 23.1467 86.8651 22.8213 86.8651 22.448H88.3771C88.3771 22.608 88.3958 22.7493 88.4331 22.872C88.4705 22.9947 88.5318 23.0987 88.6171 23.184C88.7078 23.2693 88.8251 23.336 88.9691 23.384C89.1131 23.4267 89.2918 23.448 89.5051 23.448C89.9265 23.448 90.2198 23.3627 90.3851 23.192C90.5505 23.016 90.6331 22.768 90.6331 22.448H92.1451C92.1451 22.7893 92.0811 23.096 91.9531 23.368C91.8305 23.6347 91.6545 23.864 91.4251 24.056C91.1958 24.2427 90.9185 24.3867 90.5931 24.488C90.2678 24.584 89.9051 24.632 89.5051 24.632ZM106.103 25.432V37H104.999C104.828 37 104.684 36.9733 104.567 36.92C104.455 36.8613 104.345 36.7653 104.239 36.632L98.1985 28.92C98.2305 29.272 98.2465 29.5973 98.2465 29.896V37H96.3505V25.432H97.4785C97.5692 25.432 97.6465 25.4373 97.7105 25.448C97.7798 25.4533 97.8385 25.4693 97.8865 25.496C97.9398 25.5173 97.9905 25.552 98.0385 25.6C98.0865 25.6427 98.1398 25.7013 98.1985 25.776L104.263 33.52C104.247 33.3333 104.233 33.1493 104.223 32.968C104.212 32.7867 104.207 32.6187 104.207 32.464V25.432H106.103ZM118.215 31.2V35.88C117.628 36.312 117.001 36.6293 116.335 36.832C115.673 37.0293 114.964 37.128 114.207 37.128C113.263 37.128 112.407 36.9813 111.639 36.688C110.876 36.3947 110.223 35.9867 109.679 35.464C109.14 34.9413 108.724 34.3173 108.431 33.592C108.137 32.8667 107.991 32.0747 107.991 31.216C107.991 30.3467 108.132 29.5493 108.415 28.824C108.697 28.0987 109.097 27.4747 109.615 26.952C110.137 26.4293 110.769 26.024 111.511 25.736C112.252 25.448 113.084 25.304 114.007 25.304C114.476 25.304 114.913 25.3413 115.319 25.416C115.729 25.4907 116.108 25.5947 116.455 25.728C116.807 25.856 117.127 26.0133 117.415 26.2C117.703 26.3867 117.967 26.592 118.207 26.816L117.591 27.792C117.495 27.9467 117.369 28.0427 117.215 28.08C117.06 28.112 116.892 28.072 116.711 27.96C116.535 27.8587 116.359 27.7573 116.183 27.656C116.007 27.5547 115.809 27.4667 115.591 27.392C115.377 27.3173 115.135 27.256 114.863 27.208C114.596 27.16 114.287 27.136 113.935 27.136C113.364 27.136 112.847 27.232 112.383 27.424C111.924 27.616 111.532 27.8907 111.207 28.248C110.881 28.6053 110.631 29.0347 110.455 29.536C110.279 30.0373 110.191 30.5973 110.191 31.216C110.191 31.8773 110.284 32.4693 110.471 32.992C110.663 33.5093 110.929 33.9493 111.271 34.312C111.617 34.6693 112.033 34.944 112.519 35.136C113.004 35.3227 113.545 35.416 114.143 35.416C114.569 35.416 114.951 35.3707 115.287 35.28C115.623 35.1893 115.951 35.0667 116.271 34.912V32.816H114.815C114.676 32.816 114.567 32.7787 114.487 32.704C114.412 32.624 114.375 32.528 114.375 32.416V31.2H118.215ZM126.331 30.28H126.835C127.037 30.28 127.205 30.2533 127.339 30.2C127.472 30.1413 127.587 30.0507 127.683 29.928L130.875 25.888C131.008 25.7173 131.147 25.6 131.291 25.536C131.44 25.4667 131.627 25.432 131.851 25.432H133.707L129.811 30.24C129.581 30.5333 129.344 30.7413 129.099 30.864C129.275 30.928 129.432 31.0187 129.571 31.136C129.715 31.248 129.851 31.3973 129.979 31.584L133.995 37H132.099C131.843 37 131.651 36.9653 131.523 36.896C131.4 36.8213 131.296 36.7147 131.211 36.576L127.939 32.304C127.837 32.16 127.72 32.0587 127.587 32C127.453 31.9413 127.261 31.912 127.011 31.912H126.331V37H124.179V25.432H126.331V30.28ZM140.115 32.52V37H137.971V32.52L133.755 25.432H135.651C135.838 25.432 135.985 25.4773 136.091 25.568C136.203 25.6587 136.297 25.7733 136.371 25.912L138.483 29.776C138.606 30.0053 138.713 30.2213 138.803 30.424C138.899 30.6267 138.985 30.8293 139.059 31.032C139.129 30.8293 139.209 30.6267 139.299 30.424C139.39 30.2213 139.494 30.0053 139.611 29.776L141.715 25.912C141.774 25.7947 141.862 25.6853 141.979 25.584C142.097 25.4827 142.246 25.432 142.427 25.432H144.331L140.115 32.52ZM142.427 22.112L139.835 24.4C139.729 24.496 139.627 24.5547 139.531 24.576C139.435 24.5973 139.313 24.608 139.163 24.608H137.731L139.403 22.44C139.457 22.3653 139.51 22.3067 139.563 22.264C139.617 22.216 139.675 22.1813 139.739 22.16C139.803 22.1387 139.873 22.1253 139.947 22.12C140.027 22.1147 140.121 22.112 140.227 22.112H142.427ZM156.352 27.2H152.864V37H150.712V27.2H147.224V25.432H156.352V27.2ZM170.546 24.264C170.578 24.3813 170.605 24.52 170.626 24.68C170.647 24.84 170.658 25.0053 170.658 25.176C170.658 25.5813 170.589 25.96 170.45 26.312C170.311 26.664 170.103 26.9707 169.826 27.232C169.549 27.488 169.199 27.6933 168.778 27.848C168.362 27.9973 167.874 28.0747 167.314 28.08V32.36C167.314 33.048 167.202 33.6853 166.978 34.272C166.759 34.8533 166.442 35.3573 166.026 35.784C165.615 36.2053 165.114 36.536 164.522 36.776C163.93 37.0107 163.263 37.128 162.522 37.128C161.775 37.128 161.106 37.0107 160.514 36.776C159.922 36.536 159.418 36.2053 159.002 35.784C158.591 35.3573 158.274 34.8533 158.05 34.272C157.831 33.6853 157.722 33.048 157.722 32.36V25.432H159.874V32.352C159.874 32.7947 159.933 33.1947 160.05 33.552C160.173 33.9093 160.346 34.216 160.57 34.472C160.799 34.7227 161.077 34.9173 161.402 35.056C161.733 35.1947 162.106 35.264 162.522 35.264C162.938 35.264 163.309 35.1947 163.634 35.056C163.965 34.9173 164.242 34.7227 164.466 34.472C164.69 34.2213 164.861 33.9173 164.978 33.56C165.101 33.2027 165.162 32.8027 165.162 32.36V25.432H167.314V27.08C167.783 27.0693 168.138 26.9813 168.378 26.816C168.623 26.6453 168.746 26.4347 168.746 26.184C168.746 26.0827 168.727 25.9947 168.69 25.92C168.658 25.8453 168.621 25.7707 168.578 25.696C168.535 25.616 168.495 25.5307 168.458 25.44C168.426 25.344 168.41 25.232 168.41 25.104C168.41 24.8267 168.498 24.6187 168.674 24.48C168.85 24.336 169.122 24.264 169.49 24.264H170.546ZM184.294 25.432L179.622 37H177.678L173.006 25.432H174.734C174.92 25.432 175.072 25.4773 175.19 25.568C175.307 25.6587 175.395 25.776 175.454 25.92L178.182 32.976C178.272 33.2053 178.358 33.4587 178.438 33.736C178.523 34.008 178.603 34.2933 178.678 34.592C178.742 34.2933 178.811 34.008 178.886 33.736C178.96 33.4587 179.043 33.2053 179.134 32.976L181.846 25.92C181.888 25.7973 181.971 25.6853 182.094 25.584C182.222 25.4827 182.376 25.432 182.558 25.432H184.294ZM190.681 32.632L189.273 28.784C189.204 28.6133 189.132 28.4107 189.057 28.176C188.983 27.9413 188.908 27.688 188.833 27.416C188.764 27.688 188.692 27.944 188.617 28.184C188.543 28.4187 188.471 28.624 188.401 28.8L187.001 32.632H190.681ZM194.481 37H192.817C192.631 37 192.479 36.9547 192.361 36.864C192.244 36.768 192.156 36.6507 192.097 36.512L191.233 34.152H186.441L185.577 36.512C185.535 36.6347 185.452 36.7467 185.329 36.848C185.207 36.9493 185.055 37 184.873 37H183.193L187.745 25.432H189.937L194.481 37ZM191.689 24.608H190.257C190.177 24.608 190.079 24.5947 189.961 24.568C189.849 24.536 189.732 24.448 189.609 24.304L188.953 23.456C188.9 23.3813 188.86 23.3227 188.833 23.28C188.807 23.3227 188.767 23.3813 188.713 23.456L188.057 24.304C187.935 24.448 187.815 24.536 187.697 24.568C187.585 24.5947 187.489 24.608 187.409 24.608H186.041L187.969 22.408H189.761L191.689 24.608ZM194.273 21.312L192.281 23.088C192.057 23.312 191.844 23.4133 191.641 23.392C191.444 23.3653 191.268 23.256 191.113 23.064L190.849 22.736L191.593 21.736C191.641 21.6667 191.687 21.608 191.729 21.56C191.777 21.5067 191.828 21.4613 191.881 21.424C191.94 21.3867 192.007 21.36 192.081 21.344C192.156 21.3227 192.247 21.312 192.353 21.312H194.273ZM205.431 25.432V37H204.327C204.156 37 204.012 36.9733 203.895 36.92C203.783 36.8613 203.673 36.7653 203.567 36.632L197.527 28.92C197.559 29.272 197.575 29.5973 197.575 29.896V37H195.679V25.432H196.807C196.897 25.432 196.975 25.4373 197.039 25.448C197.108 25.4533 197.167 25.4693 197.215 25.496C197.268 25.5173 197.319 25.552 197.367 25.6C197.415 25.6427 197.468 25.7013 197.527 25.776L203.591 33.52C203.575 33.3333 203.561 33.1493 203.551 32.968C203.54 32.7867 203.535 32.6187 203.535 32.464V25.432H205.431Z" fill="white"/>
<g clip-path="url(#clip0_1_21965)">
<path d="M52.25 21H51.15C50.82 19.85 49.76 19 48.5 19C47.24 19 46.18 19.85 45.85 21H44.75C44.34 21 44 21.34 44 21.75V23.25C44 24.21 44.79 25 45.75 25H51.25C52.21 25 53 24.21 53 23.25V21.75C53 21.34 52.66 21 52.25 21Z" fill="white"/>
<path d="M54.25 22H54V23.25C54 24.77 52.77 26 51.25 26H45.75C44.23 26 43 24.77 43 23.25V22H42.75C41.23 22 40 23.23 40 24.75V37.25C40 38.77 41.23 40 42.75 40H50.13L50.35 38.77C50.45 38.21 50.71 37.71 51.11 37.3L51.91 36.5H43.75C43.34 36.5 43 36.16 43 35.75C43 35.34 43.34 35 43.75 35H53.25C53.3 35 53.34 35 53.39 35.02H53.4L57 31.42V24.75C57 23.23 55.77 22 54.25 22ZM53.25 33.25H43.75C43.34 33.25 43 32.91 43 32.5C43 32.09 43.34 31.75 43.75 31.75H53.25C53.66 31.75 54 32.09 54 32.5C54 32.91 53.66 33.25 53.25 33.25ZM53.25 30H43.75C43.34 30 43 29.66 43 29.25C43 28.84 43.34 28.5 43.75 28.5H53.25C53.66 28.5 54 28.84 54 29.25C54 29.66 53.66 30 53.25 30Z" fill="white"/>
<path d="M52.527 43C52.33 43 52.138 42.922 51.997 42.78C51.824 42.607 51.746 42.361 51.789 42.119L52.319 39.114C52.345 38.963 52.419 38.823 52.527 38.714L59.952 31.29C60.864 30.376 61.76 30.623 62.25 31.113L63.487 32.35C64.17 33.032 64.17 34.142 63.487 34.825L56.062 42.25C55.954 42.359 55.814 42.432 55.662 42.458L52.657 42.988C52.614 42.996 52.57 43 52.527 43ZM55.532 41.72H55.542H55.532Z" fill="white"/>
</g>
<defs>
<filter id="filter0_d_1_21965" x="0" y="0" width="247" height="78" filterUnits="userSpaceOnUse" color-interpolation-filters="sRGB">
<feFlood flood-opacity="0" result="BackgroundImageFix"/>
<feColorMatrix in="SourceAlpha" type="matrix" values="0 0 0 0 0 0 0 0 0 0 0 0 0 0 0 0 0 0 127 0" result="hardAlpha"/>
<feOffset dy="8"/>
<feGaussianBlur stdDeviation="8"/>
<feComposite in2="hardAlpha" operator="out"/>
<feColorMatrix type="matrix" values="0 0 0 0 0.207843 0 0 0 0 0.87451 0 0 0 0 0.501961 0 0 0 0.4 0"/>
<feBlend mode="normal" in2="BackgroundImageFix" result="effect1_dropShadow_1_21965"/>
<feBlend mode="normal" in="SourceGraphic" in2="effect1_dropShadow_1_21965" result="shape"/>
</filter>
<linearGradient id="paint0_linear_1_21965" x1="16" y1="8" x2="34.8221" y2="95.9729" gradientUnits="userSpaceOnUse">
<stop stop-color="#3EED8B"/>
<stop offset="1" stop-color="#0A9949"/>
</linearGradient>
<clipPath id="clip0_1_21965">
<rect width="24" height="24" fill="white" transform="translate(40 19)"/>
</clipPath>
</defs>
</svg>
