<svg width="285" height="277" viewBox="0 0 285 277" fill="none" xmlns="http://www.w3.org/2000/svg">
<g clip-path="url(#clip0_1_21925)">
<path d="M114.25 3.73C113.22 3.73 112.38 2.89 112.38 1.86C112.38 0.829998 113.21 -0.0100021 114.25 -0.0100021C115.28 -0.0100021 116.12 0.829998 116.12 1.86C116.11 2.9 115.28 3.73 114.25 3.73ZM134.84 1.87C134.84 0.839998 134 -2.13645e-06 132.97 -2.13645e-06C131.94 -2.13645e-06 131.1 0.839998 131.1 1.87C131.1 2.9 131.94 3.74 132.97 3.74C134.01 3.73 134.84 2.9 134.84 1.87ZM153.57 1.87C153.57 0.839998 152.74 -2.13645e-06 151.7 -2.13645e-06C150.67 -2.13645e-06 149.83 0.839998 149.83 1.87C149.83 2.9 150.66 3.74 151.7 3.74C152.74 3.73 153.57 2.9 153.57 1.87ZM172.3 1.87C172.3 0.839998 171.47 -2.13645e-06 170.43 -2.13645e-06C169.4 -2.13645e-06 168.56 0.839998 168.56 1.87C168.56 2.9 169.4 3.74 170.43 3.74C171.47 3.73 172.3 2.9 172.3 1.87ZM88.02 13.75C88.02 12.72 87.19 11.88 86.15 11.88C85.12 11.88 84.28 12.71 84.28 13.75C84.28 14.78 85.12 15.62 86.15 15.62C87.18 15.61 88.02 14.78 88.02 13.75ZM106.75 13.75C106.75 12.72 105.91 11.88 104.88 11.88C103.85 11.88 103.01 12.71 103.01 13.75C103.01 14.78 103.84 15.62 104.88 15.62C105.91 15.61 106.75 14.78 106.75 13.75ZM125.48 13.75C125.48 12.72 124.65 11.88 123.61 11.88C122.58 11.88 121.75 12.71 121.75 13.75C121.75 14.78 122.58 15.62 123.61 15.62C124.64 15.61 125.48 14.78 125.48 13.75ZM144.21 13.75C144.21 12.72 143.38 11.88 142.35 11.88C141.32 11.88 140.48 12.71 140.48 13.75C140.48 14.78 141.31 15.62 142.35 15.62C143.37 15.61 144.21 14.78 144.21 13.75ZM162.94 13.75C162.94 12.72 162.11 11.88 161.07 11.88C160.04 11.88 159.2 12.71 159.2 13.75C159.2 14.78 160.04 15.62 161.07 15.62C162.1 15.61 162.94 14.78 162.94 13.75ZM181.67 13.75C181.67 12.72 180.83 11.88 179.8 11.88C178.77 11.88 177.93 12.71 177.93 13.75C177.93 14.78 178.77 15.62 179.8 15.62C180.83 15.61 181.67 14.78 181.67 13.75ZM200.4 13.75C200.4 12.72 199.57 11.88 198.53 11.88C197.5 11.88 196.66 12.71 196.66 13.75C196.66 14.78 197.49 15.62 198.53 15.62C199.56 15.61 200.4 14.78 200.4 13.75ZM59.92 25.63C59.92 24.6 59.08 23.76 58.05 23.76C57.02 23.76 56.18 24.6 56.18 25.63C56.18 26.66 57.01 27.5 58.05 27.5C59.09 27.49 59.92 26.66 59.92 25.63ZM78.66 25.63C78.66 24.6 77.82 23.76 76.79 23.76C75.76 23.76 74.92 24.6 74.92 25.63C74.92 26.66 75.75 27.5 76.79 27.5C77.82 27.49 78.66 26.66 78.66 25.63ZM97.38 25.63C97.38 24.6 96.54 23.76 95.51 23.76C94.48 23.76 93.64 24.6 93.64 25.63C93.64 26.66 94.48 27.5 95.51 27.5C96.55 27.49 97.38 26.66 97.38 25.63ZM116.11 25.63C116.11 24.6 115.28 23.76 114.24 23.76C113.21 23.76 112.37 24.6 112.37 25.63C112.37 26.66 113.2 27.5 114.24 27.5C115.28 27.49 116.11 26.66 116.11 25.63ZM134.84 25.63C134.84 24.6 134 23.76 132.97 23.76C131.94 23.76 131.1 24.6 131.1 25.63C131.1 26.66 131.94 27.5 132.97 27.5C134.01 27.49 134.84 26.66 134.84 25.63ZM153.57 25.63C153.57 24.6 152.74 23.76 151.7 23.76C150.67 23.76 149.83 24.6 149.83 25.63C149.83 26.66 150.66 27.5 151.7 27.5C152.74 27.49 153.57 26.66 153.57 25.63ZM172.3 25.63C172.3 24.6 171.47 23.76 170.43 23.76C169.4 23.76 168.56 24.6 168.56 25.63C168.56 26.66 169.4 27.5 170.43 27.5C171.47 27.49 172.3 26.66 172.3 25.63ZM191.03 25.63C191.03 24.6 190.19 23.76 189.16 23.76C188.13 23.76 187.29 24.6 187.29 25.63C187.29 26.66 188.13 27.5 189.16 27.5C190.2 27.49 191.03 26.66 191.03 25.63ZM209.76 25.63C209.76 24.6 208.92 23.76 207.89 23.76C206.86 23.76 206.02 24.6 206.02 25.63C206.02 26.66 206.86 27.5 207.89 27.5C208.92 27.49 209.76 26.66 209.76 25.63ZM228.49 25.63C228.49 24.6 227.66 23.76 226.62 23.76C225.59 23.76 224.75 24.6 224.75 25.63C224.75 26.66 225.59 27.5 226.62 27.5C227.66 27.49 228.49 26.66 228.49 25.63ZM50.56 37.5C50.56 36.47 49.72 35.64 48.69 35.64C47.66 35.64 46.82 36.48 46.82 37.5C46.82 38.53 47.66 39.37 48.69 39.37C49.72 39.37 50.56 38.54 50.56 37.5ZM69.29 37.5C69.29 36.47 68.45 35.64 67.42 35.64C66.39 35.64 65.55 36.48 65.55 37.5C65.55 38.53 66.39 39.37 67.42 39.37C68.45 39.37 69.29 38.54 69.29 37.5ZM88.02 37.5C88.02 36.47 87.19 35.64 86.15 35.64C85.12 35.64 84.28 36.48 84.28 37.5C84.28 38.53 85.12 39.37 86.15 39.37C87.18 39.37 88.02 38.54 88.02 37.5ZM106.75 37.5C106.75 36.47 105.91 35.64 104.88 35.64C103.85 35.64 103.01 36.48 103.01 37.5C103.01 38.53 103.84 39.37 104.88 39.37C105.91 39.37 106.75 38.54 106.75 37.5ZM125.48 37.5C125.48 36.47 124.65 35.64 123.61 35.64C122.58 35.64 121.75 36.48 121.75 37.5C121.75 38.53 122.58 39.37 123.61 39.37C124.64 39.37 125.48 38.54 125.48 37.5ZM144.21 37.5C144.21 36.47 143.38 35.64 142.35 35.64C141.32 35.64 140.48 36.48 140.48 37.5C140.48 38.53 141.31 39.37 142.35 39.37C143.37 39.37 144.21 38.54 144.21 37.5ZM162.94 37.5C162.94 36.47 162.11 35.64 161.07 35.64C160.04 35.64 159.2 36.48 159.2 37.5C159.2 38.53 160.04 39.37 161.07 39.37C162.1 39.37 162.94 38.54 162.94 37.5ZM181.67 37.5C181.67 36.47 180.83 35.64 179.8 35.64C178.77 35.64 177.93 36.48 177.93 37.5C177.93 38.53 178.77 39.37 179.8 39.37C180.83 39.37 181.67 38.54 181.67 37.5ZM200.4 37.5C200.4 36.47 199.57 35.64 198.53 35.64C197.5 35.64 196.66 36.48 196.66 37.5C196.66 38.53 197.49 39.37 198.53 39.37C199.56 39.37 200.4 38.54 200.4 37.5ZM219.12 37.5C219.12 36.47 218.29 35.64 217.26 35.64C216.23 35.64 215.39 36.48 215.39 37.5C215.39 38.53 216.22 39.37 217.26 39.37C218.29 39.37 219.12 38.54 219.12 37.5ZM237.85 37.5C237.85 36.47 237.01 35.64 235.98 35.64C234.95 35.64 234.11 36.48 234.11 37.5C234.11 38.53 234.95 39.37 235.98 39.37C237.02 39.37 237.85 38.54 237.85 37.5ZM41.19 49.39C41.19 48.36 40.36 47.52 39.32 47.52C38.29 47.52 37.45 48.35 37.45 49.39C37.45 50.42 38.28 51.25 39.32 51.25C40.36 51.25 41.19 50.42 41.19 49.39ZM59.92 49.39C59.92 48.36 59.08 47.52 58.05 47.52C57.02 47.52 56.18 48.35 56.18 49.39C56.18 50.42 57.01 51.25 58.05 51.25C59.09 51.25 59.92 50.42 59.92 49.39ZM78.66 49.39C78.66 48.36 77.82 47.52 76.79 47.52C75.76 47.52 74.92 48.35 74.92 49.39C74.92 50.42 75.75 51.25 76.79 51.25C77.82 51.25 78.66 50.42 78.66 49.39ZM97.38 49.39C97.38 48.36 96.54 47.52 95.51 47.52C94.48 47.52 93.64 48.35 93.64 49.39C93.64 50.42 94.48 51.25 95.51 51.25C96.55 51.25 97.38 50.42 97.38 49.39ZM116.11 49.39C116.11 48.36 115.28 47.52 114.24 47.52C113.21 47.52 112.37 48.35 112.37 49.39C112.37 50.42 113.2 51.25 114.24 51.25C115.28 51.25 116.11 50.42 116.11 49.39ZM134.84 49.39C134.84 48.36 134 47.52 132.97 47.52C131.94 47.52 131.1 48.35 131.1 49.39C131.1 50.42 131.94 51.25 132.97 51.25C134.01 51.25 134.84 50.42 134.84 49.39ZM153.57 49.39C153.57 48.36 152.74 47.52 151.7 47.52C150.67 47.52 149.83 48.35 149.83 49.39C149.83 50.42 150.66 51.25 151.7 51.25C152.74 51.25 153.57 50.42 153.57 49.39ZM172.3 49.39C172.3 48.36 171.47 47.52 170.43 47.52C169.4 47.52 168.56 48.35 168.56 49.39C168.56 50.42 169.4 51.25 170.43 51.25C171.47 51.25 172.3 50.42 172.3 49.39ZM191.03 49.39C191.03 48.36 190.19 47.52 189.16 47.52C188.13 47.52 187.29 48.35 187.29 49.39C187.29 50.42 188.13 51.25 189.16 51.25C190.2 51.25 191.03 50.42 191.03 49.39ZM209.76 49.39C209.76 48.36 208.92 47.52 207.89 47.52C206.86 47.52 206.02 48.35 206.02 49.39C206.02 50.42 206.86 51.25 207.89 51.25C208.92 51.25 209.76 50.42 209.76 49.39ZM228.49 49.39C228.49 48.36 227.66 47.52 226.62 47.52C225.59 47.52 224.75 48.35 224.75 49.39C224.75 50.42 225.59 51.25 226.62 51.25C227.66 51.25 228.49 50.42 228.49 49.39ZM247.22 49.39C247.22 48.36 246.38 47.52 245.35 47.52C244.32 47.52 243.48 48.35 243.48 49.39C243.48 50.42 244.32 51.25 245.35 51.25C246.38 51.25 247.22 50.42 247.22 49.39ZM31.83 61.27C31.83 60.24 31 59.4 29.96 59.4C28.93 59.4 28.09 60.23 28.09 61.27C28.09 62.3 28.92 63.13 29.96 63.13C30.99 63.13 31.83 62.3 31.83 61.27ZM50.56 61.27C50.56 60.24 49.72 59.4 48.69 59.4C47.66 59.4 46.82 60.23 46.82 61.27C46.82 62.3 47.66 63.13 48.69 63.13C49.72 63.13 50.56 62.3 50.56 61.27ZM69.29 61.27C69.29 60.24 68.45 59.4 67.42 59.4C66.39 59.4 65.55 60.23 65.55 61.27C65.55 62.3 66.39 63.13 67.42 63.13C68.45 63.13 69.29 62.3 69.29 61.27ZM88.02 61.27C88.02 60.24 87.19 59.4 86.15 59.4C85.12 59.4 84.28 60.23 84.28 61.27C84.28 62.3 85.12 63.13 86.15 63.13C87.18 63.13 88.02 62.3 88.02 61.27ZM106.75 61.27C106.75 60.24 105.91 59.4 104.88 59.4C103.85 59.4 103.01 60.23 103.01 61.27C103.01 62.3 103.84 63.13 104.88 63.13C105.91 63.13 106.75 62.3 106.75 61.27ZM125.48 61.27C125.48 60.24 124.65 59.4 123.61 59.4C122.58 59.4 121.75 60.23 121.75 61.27C121.75 62.3 122.58 63.13 123.61 63.13C124.64 63.13 125.48 62.3 125.48 61.27ZM144.21 61.27C144.21 60.24 143.38 59.4 142.35 59.4C141.32 59.4 140.48 60.23 140.48 61.27C140.48 62.3 141.31 63.13 142.35 63.13C143.37 63.13 144.21 62.3 144.21 61.27ZM162.94 61.27C162.94 60.24 162.11 59.4 161.07 59.4C160.04 59.4 159.2 60.23 159.2 61.27C159.2 62.3 160.04 63.13 161.07 63.13C162.1 63.13 162.94 62.3 162.94 61.27ZM181.67 61.27C181.67 60.24 180.83 59.4 179.8 59.4C178.77 59.4 177.93 60.23 177.93 61.27C177.93 62.3 178.77 63.13 179.8 63.13C180.83 63.13 181.67 62.3 181.67 61.27ZM200.4 61.27C200.4 60.24 199.57 59.4 198.53 59.4C197.5 59.4 196.66 60.23 196.66 61.27C196.66 62.3 197.49 63.13 198.53 63.13C199.56 63.13 200.4 62.3 200.4 61.27ZM219.12 61.27C219.12 60.24 218.29 59.4 217.26 59.4C216.23 59.4 215.39 60.23 215.39 61.27C215.39 62.3 216.22 63.13 217.26 63.13C218.29 63.13 219.12 62.3 219.12 61.27ZM237.85 61.27C237.85 60.24 237.01 59.4 235.98 59.4C234.95 59.4 234.11 60.23 234.11 61.27C234.11 62.3 234.95 63.13 235.98 63.13C237.02 63.13 237.85 62.3 237.85 61.27ZM256.59 61.27C256.59 60.24 255.75 59.4 254.72 59.4C253.69 59.4 252.85 60.23 252.85 61.27C252.85 62.3 253.69 63.13 254.72 63.13C255.75 63.13 256.59 62.3 256.59 61.27ZM22.46 73.15C22.46 72.12 21.62 71.28 20.59 71.28C19.56 71.28 18.72 72.12 18.72 73.15C18.72 74.18 19.56 75.02 20.59 75.02C21.63 75.02 22.46 74.18 22.46 73.15ZM41.19 73.15C41.19 72.12 40.36 71.28 39.32 71.28C38.29 71.28 37.45 72.12 37.45 73.15C37.45 74.18 38.28 75.02 39.32 75.02C40.36 75.02 41.19 74.18 41.19 73.15ZM59.92 73.15C59.92 72.12 59.08 71.28 58.05 71.28C57.02 71.28 56.18 72.12 56.18 73.15C56.18 74.18 57.01 75.02 58.05 75.02C59.09 75.02 59.92 74.18 59.92 73.15ZM78.66 73.15C78.66 72.12 77.82 71.28 76.79 71.28C75.76 71.28 74.92 72.12 74.92 73.15C74.92 74.18 75.75 75.02 76.79 75.02C77.82 75.02 78.66 74.18 78.66 73.15ZM97.38 73.15C97.38 72.12 96.54 71.28 95.51 71.28C94.48 71.28 93.64 72.12 93.64 73.15C93.64 74.18 94.48 75.02 95.51 75.02C96.55 75.02 97.38 74.18 97.38 73.15ZM116.11 73.15C116.11 72.12 115.28 71.28 114.24 71.28C113.21 71.28 112.37 72.12 112.37 73.15C112.37 74.18 113.2 75.02 114.24 75.02C115.28 75.02 116.11 74.18 116.11 73.15ZM134.84 73.15C134.84 72.12 134 71.28 132.97 71.28C131.94 71.28 131.1 72.12 131.1 73.15C131.1 74.18 131.94 75.02 132.97 75.02C134.01 75.02 134.84 74.18 134.84 73.15ZM153.57 73.15C153.57 72.12 152.74 71.28 151.7 71.28C150.67 71.28 149.83 72.12 149.83 73.15C149.83 74.18 150.66 75.02 151.7 75.02C152.74 75.02 153.57 74.18 153.57 73.15ZM172.3 73.15C172.3 72.12 171.47 71.28 170.43 71.28C169.4 71.28 168.56 72.12 168.56 73.15C168.56 74.18 169.4 75.02 170.43 75.02C171.47 75.02 172.3 74.18 172.3 73.15ZM191.03 73.15C191.03 72.12 190.19 71.28 189.16 71.28C188.13 71.28 187.29 72.12 187.29 73.15C187.29 74.18 188.13 75.02 189.16 75.02C190.2 75.02 191.03 74.18 191.03 73.15ZM209.76 73.15C209.76 72.12 208.92 71.28 207.89 71.28C206.86 71.28 206.02 72.12 206.02 73.15C206.02 74.18 206.86 75.02 207.89 75.02C208.92 75.02 209.76 74.18 209.76 73.15ZM228.49 73.15C228.49 72.12 227.66 71.28 226.62 71.28C225.59 71.28 224.75 72.12 224.75 73.15C224.75 74.18 225.59 75.02 226.62 75.02C227.66 75.02 228.49 74.18 228.49 73.15ZM247.22 73.15C247.22 72.12 246.38 71.28 245.35 71.28C244.32 71.28 243.48 72.12 243.48 73.15C243.48 74.18 244.32 75.02 245.35 75.02C246.38 75.02 247.22 74.18 247.22 73.15ZM265.95 73.15C265.95 72.12 265.12 71.28 264.09 71.28C263.06 71.28 262.22 72.12 262.22 73.15C262.22 74.18 263.06 75.02 264.09 75.02C265.12 75.02 265.95 74.18 265.95 73.15ZM13.1 85.03C13.1 84 12.26 83.17 11.24 83.17C10.21 83.17 9.37 84 9.37 85.03C9.37 86.06 10.21 86.9 11.24 86.9C12.26 86.89 13.1 86.06 13.1 85.03ZM31.83 85.03C31.83 84 31 83.17 29.96 83.17C28.93 83.17 28.09 84 28.09 85.03C28.09 86.06 28.92 86.9 29.96 86.9C30.99 86.89 31.83 86.06 31.83 85.03ZM50.56 85.03C50.56 84 49.72 83.17 48.69 83.17C47.66 83.17 46.82 84 46.82 85.03C46.82 86.06 47.66 86.9 48.69 86.9C49.72 86.89 50.56 86.06 50.56 85.03ZM69.29 85.03C69.29 84 68.45 83.17 67.42 83.17C66.39 83.17 65.55 84 65.55 85.03C65.55 86.06 66.39 86.9 67.42 86.9C68.45 86.89 69.29 86.06 69.29 85.03ZM88.02 85.03C88.02 84 87.19 83.17 86.15 83.17C85.12 83.17 84.28 84 84.28 85.03C84.28 86.06 85.12 86.9 86.15 86.9C87.18 86.89 88.02 86.06 88.02 85.03ZM106.75 85.03C106.75 84 105.91 83.17 104.88 83.17C103.85 83.17 103.01 84 103.01 85.03C103.01 86.06 103.84 86.9 104.88 86.9C105.91 86.89 106.75 86.06 106.75 85.03ZM125.48 85.03C125.48 84 124.65 83.17 123.61 83.17C122.58 83.17 121.75 84 121.75 85.03C121.75 86.06 122.58 86.9 123.61 86.9C124.64 86.89 125.48 86.06 125.48 85.03ZM144.21 85.03C144.21 84 143.38 83.17 142.35 83.17C141.32 83.17 140.48 84 140.48 85.03C140.48 86.06 141.31 86.9 142.35 86.9C143.37 86.89 144.21 86.06 144.21 85.03ZM162.94 85.03C162.94 84 162.11 83.17 161.07 83.17C160.04 83.17 159.2 84 159.2 85.03C159.2 86.06 160.04 86.9 161.07 86.9C162.1 86.89 162.94 86.06 162.94 85.03ZM181.67 85.03C181.67 84 180.83 83.17 179.8 83.17C178.77 83.17 177.93 84 177.93 85.03C177.93 86.06 178.77 86.9 179.8 86.9C180.83 86.89 181.67 86.06 181.67 85.03ZM200.4 85.03C200.4 84 199.57 83.17 198.53 83.17C197.5 83.17 196.66 84 196.66 85.03C196.66 86.06 197.49 86.9 198.53 86.9C199.56 86.89 200.4 86.06 200.4 85.03ZM219.12 85.03C219.12 84 218.29 83.17 217.26 83.17C216.23 83.17 215.39 84 215.39 85.03C215.39 86.06 216.22 86.9 217.26 86.9C218.29 86.89 219.12 86.06 219.12 85.03ZM237.85 85.03C237.85 84 237.01 83.17 235.98 83.17C234.95 83.17 234.11 84 234.11 85.03C234.11 86.06 234.95 86.9 235.98 86.9C237.02 86.89 237.85 86.06 237.85 85.03ZM256.59 85.03C256.59 84 255.75 83.17 254.72 83.17C253.69 83.17 252.85 84 252.85 85.03C252.85 86.06 253.69 86.9 254.72 86.9C255.75 86.89 256.59 86.06 256.59 85.03ZM275.32 85.03C275.32 84 274.48 83.17 273.45 83.17C272.42 83.17 271.59 84 271.59 85.03C271.59 86.06 272.42 86.9 273.45 86.9C274.48 86.89 275.32 86.06 275.32 85.03ZM22.46 96.91C22.46 95.88 21.62 95.04 20.59 95.04C19.56 95.04 18.72 95.88 18.72 96.91C18.72 97.94 19.56 98.78 20.59 98.78C21.63 98.78 22.46 97.94 22.46 96.91ZM41.19 96.91C41.19 95.88 40.36 95.04 39.32 95.04C38.29 95.04 37.45 95.88 37.45 96.91C37.45 97.94 38.28 98.78 39.32 98.78C40.36 98.78 41.19 97.94 41.19 96.91ZM59.92 96.91C59.92 95.88 59.08 95.04 58.05 95.04C57.02 95.04 56.18 95.88 56.18 96.91C56.18 97.94 57.01 98.78 58.05 98.78C59.09 98.78 59.92 97.94 59.92 96.91ZM78.66 96.91C78.66 95.88 77.82 95.04 76.79 95.04C75.76 95.04 74.92 95.88 74.92 96.91C74.92 97.94 75.75 98.78 76.79 98.78C77.82 98.78 78.66 97.94 78.66 96.91ZM97.38 96.91C97.38 95.88 96.54 95.04 95.51 95.04C94.48 95.04 93.64 95.88 93.64 96.91C93.64 97.94 94.48 98.78 95.51 98.78C96.55 98.78 97.38 97.94 97.38 96.91ZM116.11 96.91C116.11 95.88 115.28 95.04 114.24 95.04C113.21 95.04 112.37 95.88 112.37 96.91C112.37 97.94 113.2 98.78 114.24 98.78C115.28 98.78 116.11 97.94 116.11 96.91ZM134.84 96.91C134.84 95.88 134 95.04 132.97 95.04C131.94 95.04 131.1 95.88 131.1 96.91C131.1 97.94 131.94 98.78 132.97 98.78C134.01 98.78 134.84 97.94 134.84 96.91ZM153.57 96.91C153.57 95.88 152.74 95.04 151.7 95.04C150.67 95.04 149.83 95.88 149.83 96.91C149.83 97.94 150.66 98.78 151.7 98.78C152.74 98.78 153.57 97.94 153.57 96.91ZM172.3 96.91C172.3 95.88 171.47 95.04 170.43 95.04C169.4 95.04 168.56 95.88 168.56 96.91C168.56 97.94 169.4 98.78 170.43 98.78C171.47 98.78 172.3 97.94 172.3 96.91ZM191.03 96.91C191.03 95.88 190.19 95.04 189.16 95.04C188.13 95.04 187.29 95.88 187.29 96.91C187.29 97.94 188.13 98.78 189.16 98.78C190.2 98.78 191.03 97.94 191.03 96.91ZM209.76 96.91C209.76 95.88 208.92 95.04 207.89 95.04C206.86 95.04 206.02 95.88 206.02 96.91C206.02 97.94 206.86 98.78 207.89 98.78C208.92 98.78 209.76 97.94 209.76 96.91ZM228.49 96.91C228.49 95.88 227.66 95.04 226.62 95.04C225.59 95.04 224.75 95.88 224.75 96.91C224.75 97.94 225.59 98.78 226.62 98.78C227.66 98.78 228.49 97.94 228.49 96.91ZM247.22 96.91C247.22 95.88 246.38 95.04 245.35 95.04C244.32 95.04 243.48 95.88 243.48 96.91C243.48 97.94 244.32 98.78 245.35 98.78C246.38 98.78 247.22 97.94 247.22 96.91ZM265.95 96.91C265.95 95.88 265.12 95.04 264.09 95.04C263.06 95.04 262.22 95.88 262.22 96.91C262.22 97.94 263.06 98.78 264.09 98.78C265.12 98.78 265.95 97.94 265.95 96.91ZM13.1 108.79C13.1 107.76 12.26 106.92 11.24 106.92C10.21 106.92 9.37 107.76 9.37 108.79C9.37 109.82 10.21 110.66 11.24 110.66C12.26 110.66 13.1 109.82 13.1 108.79ZM31.83 108.79C31.83 107.76 31 106.92 29.96 106.92C28.93 106.92 28.09 107.76 28.09 108.79C28.09 109.82 28.92 110.66 29.96 110.66C30.99 110.66 31.83 109.82 31.83 108.79ZM50.56 108.79C50.56 107.76 49.72 106.92 48.69 106.92C47.66 106.92 46.82 107.76 46.82 108.79C46.82 109.82 47.66 110.66 48.69 110.66C49.72 110.66 50.56 109.82 50.56 108.79ZM69.29 108.79C69.29 107.76 68.45 106.92 67.42 106.92C66.39 106.92 65.55 107.76 65.55 108.79C65.55 109.82 66.39 110.66 67.42 110.66C68.45 110.66 69.29 109.82 69.29 108.79ZM88.02 108.79C88.02 107.76 87.19 106.92 86.15 106.92C85.12 106.92 84.28 107.76 84.28 108.79C84.28 109.82 85.12 110.66 86.15 110.66C87.18 110.66 88.02 109.82 88.02 108.79ZM106.75 108.79C106.75 107.76 105.91 106.92 104.88 106.92C103.85 106.92 103.01 107.76 103.01 108.79C103.01 109.82 103.84 110.66 104.88 110.66C105.91 110.66 106.75 109.82 106.75 108.79ZM125.48 108.79C125.48 107.76 124.65 106.92 123.61 106.92C122.58 106.92 121.75 107.76 121.75 108.79C121.75 109.82 122.58 110.66 123.61 110.66C124.64 110.66 125.48 109.82 125.48 108.79ZM144.21 108.79C144.21 107.76 143.38 106.92 142.35 106.92C141.32 106.92 140.48 107.76 140.48 108.79C140.48 109.82 141.31 110.66 142.35 110.66C143.37 110.66 144.21 109.82 144.21 108.79ZM162.94 108.79C162.94 107.76 162.11 106.92 161.07 106.92C160.04 106.92 159.2 107.76 159.2 108.79C159.2 109.82 160.04 110.66 161.07 110.66C162.1 110.66 162.94 109.82 162.94 108.79ZM181.67 108.79C181.67 107.76 180.83 106.92 179.8 106.92C178.77 106.92 177.93 107.76 177.93 108.79C177.93 109.82 178.77 110.66 179.8 110.66C180.83 110.66 181.67 109.82 181.67 108.79ZM200.4 108.79C200.4 107.76 199.57 106.92 198.53 106.92C197.5 106.92 196.66 107.76 196.66 108.79C196.66 109.82 197.49 110.66 198.53 110.66C199.56 110.66 200.4 109.82 200.4 108.79ZM219.12 108.79C219.12 107.76 218.29 106.92 217.26 106.92C216.23 106.92 215.39 107.76 215.39 108.79C215.39 109.82 216.22 110.66 217.26 110.66C218.29 110.66 219.12 109.82 219.12 108.79ZM237.85 108.79C237.85 107.76 237.01 106.92 235.98 106.92C234.95 106.92 234.11 107.76 234.11 108.79C234.11 109.82 234.95 110.66 235.98 110.66C237.02 110.66 237.85 109.82 237.85 108.79ZM256.59 108.79C256.59 107.76 255.75 106.92 254.72 106.92C253.69 106.92 252.85 107.76 252.85 108.79C252.85 109.82 253.69 110.66 254.72 110.66C255.75 110.66 256.59 109.82 256.59 108.79ZM275.32 108.79C275.32 107.76 274.48 106.92 273.45 106.92C272.42 106.92 271.59 107.76 271.59 108.79C271.59 109.82 272.42 110.66 273.45 110.66C274.48 110.66 275.32 109.82 275.32 108.79ZM3.73 120.67C3.73 119.64 2.9 118.8 1.87 118.8C0.84 118.8 0 119.64 0 120.67C0 121.7 0.84 122.54 1.87 122.54C2.9 122.54 3.73 121.7 3.73 120.67ZM22.46 120.67C22.46 119.64 21.62 118.8 20.59 118.8C19.56 118.8 18.72 119.64 18.72 120.67C18.72 121.7 19.56 122.54 20.59 122.54C21.63 122.54 22.46 121.7 22.46 120.67ZM41.19 120.67C41.19 119.64 40.36 118.8 39.32 118.8C38.29 118.8 37.45 119.64 37.45 120.67C37.45 121.7 38.28 122.54 39.32 122.54C40.36 122.54 41.19 121.7 41.19 120.67ZM59.92 120.67C59.92 119.64 59.08 118.8 58.05 118.8C57.02 118.8 56.18 119.64 56.18 120.67C56.18 121.7 57.01 122.54 58.05 122.54C59.09 122.54 59.92 121.7 59.92 120.67ZM78.66 120.67C78.66 119.64 77.82 118.8 76.79 118.8C75.76 118.8 74.92 119.64 74.92 120.67C74.92 121.7 75.75 122.54 76.79 122.54C77.82 122.54 78.66 121.7 78.66 120.67ZM97.38 120.67C97.38 119.64 96.54 118.8 95.51 118.8C94.48 118.8 93.64 119.64 93.64 120.67C93.64 121.7 94.48 122.54 95.51 122.54C96.55 122.54 97.38 121.7 97.38 120.67ZM116.11 120.67C116.11 119.64 115.28 118.8 114.24 118.8C113.21 118.8 112.37 119.64 112.37 120.67C112.37 121.7 113.2 122.54 114.24 122.54C115.28 122.54 116.11 121.7 116.11 120.67ZM134.84 120.67C134.84 119.64 134 118.8 132.97 118.8C131.94 118.8 131.1 119.64 131.1 120.67C131.1 121.7 131.94 122.54 132.97 122.54C134.01 122.54 134.84 121.7 134.84 120.67ZM153.57 120.67C153.57 119.64 152.74 118.8 151.7 118.8C150.67 118.8 149.83 119.64 149.83 120.67C149.83 121.7 150.66 122.54 151.7 122.54C152.74 122.54 153.57 121.7 153.57 120.67ZM172.3 120.67C172.3 119.64 171.47 118.8 170.43 118.8C169.4 118.8 168.56 119.64 168.56 120.67C168.56 121.7 169.4 122.54 170.43 122.54C171.47 122.54 172.3 121.7 172.3 120.67ZM191.03 120.67C191.03 119.64 190.19 118.8 189.16 118.8C188.13 118.8 187.29 119.64 187.29 120.67C187.29 121.7 188.13 122.54 189.16 122.54C190.2 122.54 191.03 121.7 191.03 120.67ZM209.76 120.67C209.76 119.64 208.92 118.8 207.89 118.8C206.86 118.8 206.02 119.64 206.02 120.67C206.02 121.7 206.86 122.54 207.89 122.54C208.92 122.54 209.76 121.7 209.76 120.67ZM228.49 120.67C228.49 119.64 227.66 118.8 226.62 118.8C225.59 118.8 224.75 119.64 224.75 120.67C224.75 121.7 225.59 122.54 226.62 122.54C227.66 122.54 228.49 121.7 228.49 120.67ZM247.22 120.67C247.22 119.64 246.38 118.8 245.35 118.8C244.32 118.8 243.48 119.64 243.48 120.67C243.48 121.7 244.32 122.54 245.35 122.54C246.38 122.54 247.22 121.7 247.22 120.67ZM265.95 120.67C265.95 119.64 265.12 118.8 264.09 118.8C263.06 118.8 262.22 119.64 262.22 120.67C262.22 121.7 263.06 122.54 264.09 122.54C265.12 122.54 265.95 121.7 265.95 120.67ZM284.68 120.67C284.68 119.64 283.84 118.8 282.81 118.8C281.78 118.8 280.95 119.64 280.95 120.67C280.95 121.7 281.78 122.54 282.81 122.54C283.84 122.54 284.68 121.7 284.68 120.67ZM13.1 132.55C13.1 131.52 12.26 130.69 11.24 130.69C10.21 130.69 9.37 131.52 9.37 132.55C9.37 133.58 10.21 134.41 11.24 134.41C12.26 134.41 13.1 133.58 13.1 132.55ZM31.83 132.55C31.83 131.52 31 130.69 29.96 130.69C28.93 130.69 28.09 131.52 28.09 132.55C28.09 133.58 28.92 134.41 29.96 134.41C30.99 134.41 31.83 133.58 31.83 132.55ZM50.56 132.55C50.56 131.52 49.72 130.69 48.69 130.69C47.66 130.69 46.82 131.52 46.82 132.55C46.82 133.58 47.66 134.41 48.69 134.41C49.72 134.41 50.56 133.58 50.56 132.55ZM69.29 132.55C69.29 131.52 68.45 130.69 67.42 130.69C66.39 130.69 65.55 131.52 65.55 132.55C65.55 133.58 66.39 134.41 67.42 134.41C68.45 134.41 69.29 133.58 69.29 132.55ZM88.02 132.55C88.02 131.52 87.19 130.69 86.15 130.69C85.12 130.69 84.28 131.52 84.28 132.55C84.28 133.58 85.12 134.41 86.15 134.41C87.18 134.41 88.02 133.58 88.02 132.55ZM106.75 132.55C106.75 131.52 105.91 130.69 104.88 130.69C103.85 130.69 103.01 131.52 103.01 132.55C103.01 133.58 103.84 134.41 104.88 134.41C105.91 134.41 106.75 133.58 106.75 132.55ZM125.48 132.55C125.48 131.52 124.65 130.69 123.61 130.69C122.58 130.69 121.75 131.52 121.75 132.55C121.75 133.58 122.58 134.41 123.61 134.41C124.64 134.41 125.48 133.58 125.48 132.55ZM144.21 132.55C144.21 131.52 143.38 130.69 142.35 130.69C141.32 130.69 140.48 131.52 140.48 132.55C140.48 133.58 141.31 134.41 142.35 134.41C143.37 134.41 144.21 133.58 144.21 132.55ZM162.94 132.55C162.94 131.52 162.11 130.69 161.07 130.69C160.04 130.69 159.2 131.52 159.2 132.55C159.2 133.58 160.04 134.41 161.07 134.41C162.1 134.41 162.94 133.58 162.94 132.55ZM181.67 132.55C181.67 131.52 180.83 130.69 179.8 130.69C178.77 130.69 177.93 131.52 177.93 132.55C177.93 133.58 178.77 134.41 179.8 134.41C180.83 134.41 181.67 133.58 181.67 132.55ZM200.4 132.55C200.4 131.52 199.57 130.69 198.53 130.69C197.5 130.69 196.66 131.52 196.66 132.55C196.66 133.58 197.49 134.41 198.53 134.41C199.56 134.41 200.4 133.58 200.4 132.55ZM219.12 132.55C219.12 131.52 218.29 130.69 217.26 130.69C216.23 130.69 215.39 131.52 215.39 132.55C215.39 133.58 216.22 134.41 217.26 134.41C218.29 134.41 219.12 133.58 219.12 132.55ZM237.85 132.55C237.85 131.52 237.01 130.69 235.98 130.69C234.95 130.69 234.11 131.52 234.11 132.55C234.11 133.58 234.95 134.41 235.98 134.41C237.02 134.41 237.85 133.58 237.85 132.55ZM256.59 132.55C256.59 131.52 255.75 130.69 254.72 130.69C253.69 130.69 252.85 131.52 252.85 132.55C252.85 133.58 253.69 134.41 254.72 134.41C255.75 134.41 256.59 133.58 256.59 132.55ZM275.32 132.55C275.32 131.52 274.48 130.69 273.45 130.69C272.42 130.69 271.59 131.52 271.59 132.55C271.59 133.58 272.42 134.41 273.45 134.41C274.48 134.41 275.32 133.58 275.32 132.55ZM3.73 144.43C3.73 143.4 2.9 142.56 1.87 142.56C0.84 142.56 0 143.4 0 144.43C0 145.46 0.84 146.3 1.87 146.3C2.9 146.3 3.73 145.46 3.73 144.43ZM22.46 144.43C22.46 143.4 21.62 142.56 20.59 142.56C19.56 142.56 18.72 143.4 18.72 144.43C18.72 145.46 19.56 146.3 20.59 146.3C21.63 146.3 22.46 145.46 22.46 144.43ZM41.19 144.43C41.19 143.4 40.36 142.56 39.32 142.56C38.29 142.56 37.45 143.4 37.45 144.43C37.45 145.46 38.28 146.3 39.32 146.3C40.36 146.3 41.19 145.46 41.19 144.43ZM59.92 144.43C59.92 143.4 59.08 142.56 58.05 142.56C57.02 142.56 56.18 143.4 56.18 144.43C56.18 145.46 57.01 146.3 58.05 146.3C59.09 146.3 59.92 145.46 59.92 144.43ZM78.66 144.43C78.66 143.4 77.82 142.56 76.79 142.56C75.76 142.56 74.92 143.4 74.92 144.43C74.92 145.46 75.75 146.3 76.79 146.3C77.82 146.3 78.66 145.46 78.66 144.43ZM97.38 144.43C97.38 143.4 96.54 142.56 95.51 142.56C94.48 142.56 93.64 143.4 93.64 144.43C93.64 145.46 94.48 146.3 95.51 146.3C96.55 146.3 97.38 145.46 97.38 144.43ZM116.11 144.43C116.11 143.4 115.28 142.56 114.24 142.56C113.21 142.56 112.37 143.4 112.37 144.43C112.37 145.46 113.2 146.3 114.24 146.3C115.28 146.3 116.11 145.46 116.11 144.43ZM134.84 144.43C134.84 143.4 134 142.56 132.97 142.56C131.94 142.56 131.1 143.4 131.1 144.43C131.1 145.46 131.94 146.3 132.97 146.3C134.01 146.3 134.84 145.46 134.84 144.43ZM153.57 144.43C153.57 143.4 152.74 142.56 151.7 142.56C150.67 142.56 149.83 143.4 149.83 144.43C149.83 145.46 150.66 146.3 151.7 146.3C152.74 146.3 153.57 145.46 153.57 144.43ZM172.3 144.43C172.3 143.4 171.47 142.56 170.43 142.56C169.4 142.56 168.56 143.4 168.56 144.43C168.56 145.46 169.4 146.3 170.43 146.3C171.47 146.3 172.3 145.46 172.3 144.43ZM191.03 144.43C191.03 143.4 190.19 142.56 189.16 142.56C188.13 142.56 187.29 143.4 187.29 144.43C187.29 145.46 188.13 146.3 189.16 146.3C190.2 146.3 191.03 145.46 191.03 144.43ZM209.76 144.43C209.76 143.4 208.92 142.56 207.89 142.56C206.86 142.56 206.02 143.4 206.02 144.43C206.02 145.46 206.86 146.3 207.89 146.3C208.92 146.3 209.76 145.46 209.76 144.43ZM228.49 144.43C228.49 143.4 227.66 142.56 226.62 142.56C225.59 142.56 224.75 143.4 224.75 144.43C224.75 145.46 225.59 146.3 226.62 146.3C227.66 146.3 228.49 145.46 228.49 144.43ZM247.22 144.43C247.22 143.4 246.38 142.56 245.35 142.56C244.32 142.56 243.48 143.4 243.48 144.43C243.48 145.46 244.32 146.3 245.35 146.3C246.38 146.3 247.22 145.46 247.22 144.43ZM265.95 144.43C265.95 143.4 265.12 142.56 264.09 142.56C263.06 142.56 262.22 143.4 262.22 144.43C262.22 145.46 263.06 146.3 264.09 146.3C265.12 146.3 265.95 145.46 265.95 144.43ZM284.68 144.43C284.68 143.4 283.84 142.56 282.81 142.56C281.78 142.56 280.95 143.4 280.95 144.43C280.95 145.46 281.78 146.3 282.81 146.3C283.84 146.3 284.68 145.46 284.68 144.43ZM13.1 156.31C13.1 155.28 12.26 154.45 11.24 154.45C10.21 154.45 9.37 155.28 9.37 156.31C9.37 157.34 10.21 158.18 11.24 158.18C12.26 158.18 13.1 157.34 13.1 156.31ZM31.83 156.31C31.83 155.28 31 154.45 29.96 154.45C28.93 154.45 28.09 155.28 28.09 156.31C28.09 157.34 28.92 158.18 29.96 158.18C30.99 158.18 31.83 157.34 31.83 156.31ZM50.56 156.31C50.56 155.28 49.72 154.45 48.69 154.45C47.66 154.45 46.82 155.28 46.82 156.31C46.82 157.34 47.66 158.18 48.69 158.18C49.72 158.18 50.56 157.34 50.56 156.31ZM69.29 156.31C69.29 155.28 68.45 154.45 67.42 154.45C66.39 154.45 65.55 155.28 65.55 156.31C65.55 157.34 66.39 158.18 67.42 158.18C68.45 158.18 69.29 157.34 69.29 156.31ZM88.02 156.31C88.02 155.28 87.19 154.45 86.15 154.45C85.12 154.45 84.28 155.28 84.28 156.31C84.28 157.34 85.12 158.18 86.15 158.18C87.18 158.18 88.02 157.34 88.02 156.31ZM106.75 156.31C106.75 155.28 105.91 154.45 104.88 154.45C103.85 154.45 103.01 155.28 103.01 156.31C103.01 157.34 103.84 158.18 104.88 158.18C105.91 158.18 106.75 157.34 106.75 156.31ZM125.48 156.31C125.48 155.28 124.65 154.45 123.61 154.45C122.58 154.45 121.75 155.28 121.75 156.31C121.75 157.34 122.58 158.18 123.61 158.18C124.64 158.18 125.48 157.34 125.48 156.31ZM144.21 156.31C144.21 155.28 143.38 154.45 142.35 154.45C141.32 154.45 140.48 155.28 140.48 156.31C140.48 157.34 141.31 158.18 142.35 158.18C143.37 158.18 144.21 157.34 144.21 156.31ZM162.94 156.31C162.94 155.28 162.11 154.45 161.07 154.45C160.04 154.45 159.2 155.28 159.2 156.31C159.2 157.34 160.04 158.18 161.07 158.18C162.1 158.18 162.94 157.34 162.94 156.31ZM181.67 156.31C181.67 155.28 180.83 154.45 179.8 154.45C178.77 154.45 177.93 155.28 177.93 156.31C177.93 157.34 178.77 158.18 179.8 158.18C180.83 158.18 181.67 157.34 181.67 156.31ZM200.4 156.31C200.4 155.28 199.57 154.45 198.53 154.45C197.5 154.45 196.66 155.28 196.66 156.31C196.66 157.34 197.49 158.18 198.53 158.18C199.56 158.18 200.4 157.34 200.4 156.31ZM219.12 156.31C219.12 155.28 218.29 154.45 217.26 154.45C216.23 154.45 215.39 155.28 215.39 156.31C215.39 157.34 216.22 158.18 217.26 158.18C218.29 158.18 219.12 157.34 219.12 156.31ZM237.85 156.31C237.85 155.28 237.01 154.45 235.98 154.45C234.95 154.45 234.11 155.28 234.11 156.31C234.11 157.34 234.95 158.18 235.98 158.18C237.02 158.18 237.85 157.34 237.85 156.31ZM256.59 156.31C256.59 155.28 255.75 154.45 254.72 154.45C253.69 154.45 252.85 155.28 252.85 156.31C252.85 157.34 253.69 158.18 254.72 158.18C255.75 158.18 256.59 157.34 256.59 156.31ZM275.32 156.31C275.32 155.28 274.48 154.45 273.45 154.45C272.42 154.45 271.59 155.28 271.59 156.31C271.59 157.34 272.42 158.18 273.45 158.18C274.48 158.18 275.32 157.34 275.32 156.31ZM22.46 168.19C22.46 167.16 21.62 166.32 20.59 166.32C19.56 166.32 18.72 167.16 18.72 168.19C18.72 169.22 19.56 170.06 20.59 170.06C21.63 170.06 22.46 169.22 22.46 168.19ZM41.19 168.19C41.19 167.16 40.36 166.32 39.32 166.32C38.29 166.32 37.45 167.16 37.45 168.19C37.45 169.22 38.28 170.06 39.32 170.06C40.36 170.06 41.19 169.22 41.19 168.19ZM59.92 168.19C59.92 167.16 59.08 166.32 58.05 166.32C57.02 166.32 56.18 167.16 56.18 168.19C56.18 169.22 57.01 170.06 58.05 170.06C59.09 170.06 59.92 169.22 59.92 168.19ZM78.66 168.19C78.66 167.16 77.82 166.32 76.79 166.32C75.76 166.32 74.92 167.16 74.92 168.19C74.92 169.22 75.75 170.06 76.79 170.06C77.82 170.06 78.66 169.22 78.66 168.19ZM97.38 168.19C97.38 167.16 96.54 166.32 95.51 166.32C94.48 166.32 93.64 167.16 93.64 168.19C93.64 169.22 94.48 170.06 95.51 170.06C96.55 170.06 97.38 169.22 97.38 168.19ZM116.11 168.19C116.11 167.16 115.28 166.32 114.24 166.32C113.21 166.32 112.37 167.16 112.37 168.19C112.37 169.22 113.2 170.06 114.24 170.06C115.28 170.06 116.11 169.22 116.11 168.19ZM134.84 168.19C134.84 167.16 134 166.32 132.97 166.32C131.94 166.32 131.1 167.16 131.1 168.19C131.1 169.22 131.94 170.06 132.97 170.06C134.01 170.06 134.84 169.22 134.84 168.19ZM153.57 168.19C153.57 167.16 152.74 166.32 151.7 166.32C150.67 166.32 149.83 167.16 149.83 168.19C149.83 169.22 150.66 170.06 151.7 170.06C152.74 170.06 153.57 169.22 153.57 168.19ZM172.3 168.19C172.3 167.16 171.47 166.32 170.43 166.32C169.4 166.32 168.56 167.16 168.56 168.19C168.56 169.22 169.4 170.06 170.43 170.06C171.47 170.06 172.3 169.22 172.3 168.19ZM191.03 168.19C191.03 167.16 190.19 166.32 189.16 166.32C188.13 166.32 187.29 167.16 187.29 168.19C187.29 169.22 188.13 170.06 189.16 170.06C190.2 170.06 191.03 169.22 191.03 168.19ZM209.76 168.19C209.76 167.16 208.92 166.32 207.89 166.32C206.86 166.32 206.02 167.16 206.02 168.19C206.02 169.22 206.86 170.06 207.89 170.06C208.92 170.06 209.76 169.22 209.76 168.19ZM228.49 168.19C228.49 167.16 227.66 166.32 226.62 166.32C225.59 166.32 224.75 167.16 224.75 168.19C224.75 169.22 225.59 170.06 226.62 170.06C227.66 170.06 228.49 169.22 228.49 168.19ZM247.22 168.19C247.22 167.16 246.38 166.32 245.35 166.32C244.32 166.32 243.48 167.16 243.48 168.19C243.48 169.22 244.32 170.06 245.35 170.06C246.38 170.06 247.22 169.22 247.22 168.19ZM265.95 168.19C265.95 167.16 265.12 166.32 264.09 166.32C263.06 166.32 262.22 167.16 262.22 168.19C262.22 169.22 263.06 170.06 264.09 170.06C265.12 170.06 265.95 169.22 265.95 168.19ZM13.1 180.07C13.1 179.04 12.26 178.21 11.24 178.21C10.21 178.21 9.37 179.04 9.37 180.07C9.37 181.1 10.21 181.94 11.24 181.94C12.26 181.94 13.1 181.1 13.1 180.07ZM31.83 180.07C31.83 179.04 31 178.21 29.96 178.21C28.93 178.21 28.09 179.04 28.09 180.07C28.09 181.1 28.92 181.94 29.96 181.94C30.99 181.94 31.83 181.1 31.83 180.07ZM50.56 180.07C50.56 179.04 49.72 178.21 48.69 178.21C47.66 178.21 46.82 179.04 46.82 180.07C46.82 181.1 47.66 181.94 48.69 181.94C49.72 181.94 50.56 181.1 50.56 180.07ZM69.29 180.07C69.29 179.04 68.45 178.21 67.42 178.21C66.39 178.21 65.55 179.04 65.55 180.07C65.55 181.1 66.39 181.94 67.42 181.94C68.45 181.94 69.29 181.1 69.29 180.07ZM88.02 180.07C88.02 179.04 87.19 178.21 86.15 178.21C85.12 178.21 84.28 179.04 84.28 180.07C84.28 181.1 85.12 181.94 86.15 181.94C87.18 181.94 88.02 181.1 88.02 180.07ZM106.75 180.07C106.75 179.04 105.91 178.21 104.88 178.21C103.85 178.21 103.01 179.04 103.01 180.07C103.01 181.1 103.84 181.94 104.88 181.94C105.91 181.94 106.75 181.1 106.75 180.07ZM125.48 180.07C125.48 179.04 124.65 178.21 123.61 178.21C122.58 178.21 121.75 179.04 121.75 180.07C121.75 181.1 122.58 181.94 123.61 181.94C124.64 181.94 125.48 181.1 125.48 180.07ZM144.21 180.07C144.21 179.04 143.38 178.21 142.35 178.21C141.32 178.21 140.48 179.04 140.48 180.07C140.48 181.1 141.31 181.94 142.35 181.94C143.37 181.94 144.21 181.1 144.21 180.07ZM162.94 180.07C162.94 179.04 162.11 178.21 161.07 178.21C160.04 178.21 159.2 179.04 159.2 180.07C159.2 181.1 160.04 181.94 161.07 181.94C162.1 181.94 162.94 181.1 162.94 180.07ZM181.67 180.07C181.67 179.04 180.83 178.21 179.8 178.21C178.77 178.21 177.93 179.04 177.93 180.07C177.93 181.1 178.77 181.94 179.8 181.94C180.83 181.94 181.67 181.1 181.67 180.07ZM200.4 180.07C200.4 179.04 199.57 178.21 198.53 178.21C197.5 178.21 196.66 179.04 196.66 180.07C196.66 181.1 197.49 181.94 198.53 181.94C199.56 181.94 200.4 181.1 200.4 180.07ZM219.12 180.07C219.12 179.04 218.29 178.21 217.26 178.21C216.23 178.21 215.39 179.04 215.39 180.07C215.39 181.1 216.22 181.94 217.26 181.94C218.29 181.94 219.12 181.1 219.12 180.07ZM237.85 180.07C237.85 179.04 237.01 178.21 235.98 178.21C234.95 178.21 234.11 179.04 234.11 180.07C234.11 181.1 234.95 181.94 235.98 181.94C237.02 181.94 237.85 181.1 237.85 180.07ZM256.59 180.07C256.59 179.04 255.75 178.21 254.72 178.21C253.69 178.21 252.85 179.04 252.85 180.07C252.85 181.1 253.69 181.94 254.72 181.94C255.75 181.94 256.59 181.1 256.59 180.07ZM275.32 180.07C275.32 179.04 274.48 178.21 273.45 178.21C272.42 178.21 271.59 179.04 271.59 180.07C271.59 181.1 272.42 181.94 273.45 181.94C274.48 181.94 275.32 181.1 275.32 180.07ZM22.46 191.95C22.46 190.92 21.62 190.08 20.59 190.08C19.56 190.08 18.72 190.91 18.72 191.95C18.72 192.98 19.56 193.82 20.59 193.82C21.63 193.82 22.46 192.98 22.46 191.95ZM41.19 191.95C41.19 190.92 40.36 190.08 39.32 190.08C38.29 190.08 37.45 190.91 37.45 191.95C37.45 192.98 38.28 193.82 39.32 193.82C40.36 193.82 41.19 192.98 41.19 191.95ZM59.92 191.95C59.92 190.92 59.08 190.08 58.05 190.08C57.02 190.08 56.18 190.91 56.18 191.95C56.18 192.98 57.01 193.82 58.05 193.82C59.09 193.82 59.92 192.98 59.92 191.95ZM78.66 191.95C78.66 190.92 77.82 190.08 76.79 190.08C75.76 190.08 74.92 190.91 74.92 191.95C74.92 192.98 75.75 193.82 76.79 193.82C77.82 193.82 78.66 192.98 78.66 191.95ZM97.38 191.95C97.38 190.92 96.54 190.08 95.51 190.08C94.48 190.08 93.64 190.91 93.64 191.95C93.64 192.98 94.48 193.82 95.51 193.82C96.55 193.82 97.38 192.98 97.38 191.95ZM116.11 191.95C116.11 190.92 115.28 190.08 114.24 190.08C113.21 190.08 112.37 190.91 112.37 191.95C112.37 192.98 113.2 193.82 114.24 193.82C115.28 193.82 116.11 192.98 116.11 191.95ZM134.84 191.95C134.84 190.92 134 190.08 132.97 190.08C131.94 190.08 131.1 190.91 131.1 191.95C131.1 192.98 131.94 193.82 132.97 193.82C134.01 193.82 134.84 192.98 134.84 191.95ZM153.57 191.95C153.57 190.92 152.74 190.08 151.7 190.08C150.67 190.08 149.83 190.91 149.83 191.95C149.83 192.98 150.66 193.82 151.7 193.82C152.74 193.82 153.57 192.98 153.57 191.95ZM172.3 191.95C172.3 190.92 171.47 190.08 170.43 190.08C169.4 190.08 168.56 190.91 168.56 191.95C168.56 192.98 169.4 193.82 170.43 193.82C171.47 193.82 172.3 192.98 172.3 191.95ZM191.03 191.95C191.03 190.92 190.19 190.08 189.16 190.08C188.13 190.08 187.29 190.91 187.29 191.95C187.29 192.98 188.13 193.82 189.16 193.82C190.2 193.82 191.03 192.98 191.03 191.95ZM209.76 191.95C209.76 190.92 208.92 190.08 207.89 190.08C206.86 190.08 206.02 190.91 206.02 191.95C206.02 192.98 206.86 193.82 207.89 193.82C208.92 193.82 209.76 192.98 209.76 191.95ZM228.49 191.95C228.49 190.92 227.66 190.08 226.62 190.08C225.59 190.08 224.75 190.91 224.75 191.95C224.75 192.98 225.59 193.82 226.62 193.82C227.66 193.82 228.49 192.98 228.49 191.95ZM247.22 191.95C247.22 190.92 246.38 190.08 245.35 190.08C244.32 190.08 243.48 190.91 243.48 191.95C243.48 192.98 244.32 193.82 245.35 193.82C246.38 193.82 247.22 192.98 247.22 191.95ZM265.95 191.95C265.95 190.92 265.12 190.08 264.09 190.08C263.06 190.08 262.22 190.91 262.22 191.95C262.22 192.98 263.06 193.82 264.09 193.82C265.12 193.82 265.95 192.98 265.95 191.95ZM31.83 203.83C31.83 202.8 31 201.97 29.96 201.97C28.93 201.97 28.09 202.8 28.09 203.83C28.09 204.86 28.92 205.7 29.96 205.7C30.99 205.7 31.83 204.86 31.83 203.83ZM50.56 203.83C50.56 202.8 49.72 201.97 48.69 201.97C47.66 201.97 46.82 202.8 46.82 203.83C46.82 204.86 47.66 205.7 48.69 205.7C49.72 205.7 50.56 204.86 50.56 203.83ZM69.29 203.83C69.29 202.8 68.45 201.97 67.42 201.97C66.39 201.97 65.55 202.8 65.55 203.83C65.55 204.86 66.39 205.7 67.42 205.7C68.45 205.7 69.29 204.86 69.29 203.83ZM88.02 203.83C88.02 202.8 87.19 201.97 86.15 201.97C85.12 201.97 84.28 202.8 84.28 203.83C84.28 204.86 85.12 205.7 86.15 205.7C87.18 205.7 88.02 204.86 88.02 203.83ZM106.75 203.83C106.75 202.8 105.91 201.97 104.88 201.97C103.85 201.97 103.01 202.8 103.01 203.83C103.01 204.86 103.84 205.7 104.88 205.7C105.91 205.7 106.75 204.86 106.75 203.83ZM125.48 203.83C125.48 202.8 124.65 201.97 123.61 201.97C122.58 201.97 121.75 202.8 121.75 203.83C121.75 204.86 122.58 205.7 123.61 205.7C124.64 205.7 125.48 204.86 125.48 203.83ZM144.21 203.83C144.21 202.8 143.38 201.97 142.35 201.97C141.32 201.97 140.48 202.8 140.48 203.83C140.48 204.86 141.31 205.7 142.35 205.7C143.37 205.7 144.21 204.86 144.21 203.83ZM162.94 203.83C162.94 202.8 162.11 201.97 161.07 201.97C160.04 201.97 159.2 202.8 159.2 203.83C159.2 204.86 160.04 205.7 161.07 205.7C162.1 205.7 162.94 204.86 162.94 203.83ZM181.67 203.83C181.67 202.8 180.83 201.97 179.8 201.97C178.77 201.97 177.93 202.8 177.93 203.83C177.93 204.86 178.77 205.7 179.8 205.7C180.83 205.7 181.67 204.86 181.67 203.83ZM200.4 203.83C200.4 202.8 199.57 201.97 198.53 201.97C197.5 201.97 196.66 202.8 196.66 203.83C196.66 204.86 197.49 205.7 198.53 205.7C199.56 205.7 200.4 204.86 200.4 203.83ZM219.12 203.83C219.12 202.8 218.29 201.97 217.26 201.97C216.23 201.97 215.39 202.8 215.39 203.83C215.39 204.86 216.22 205.7 217.26 205.7C218.29 205.7 219.12 204.86 219.12 203.83ZM237.85 203.83C237.85 202.8 237.01 201.97 235.98 201.97C234.95 201.97 234.11 202.8 234.11 203.83C234.11 204.86 234.95 205.7 235.98 205.7C237.02 205.7 237.85 204.86 237.85 203.83ZM256.59 203.83C256.59 202.8 255.75 201.97 254.72 201.97C253.69 201.97 252.85 202.8 252.85 203.83C252.85 204.86 253.69 205.7 254.72 205.7C255.75 205.7 256.59 204.86 256.59 203.83ZM41.19 215.71C41.19 214.68 40.36 213.84 39.32 213.84C38.29 213.84 37.45 214.67 37.45 215.71C37.45 216.74 38.28 217.58 39.32 217.58C40.36 217.58 41.19 216.75 41.19 215.71ZM59.92 215.71C59.92 214.68 59.08 213.84 58.05 213.84C57.02 213.84 56.18 214.67 56.18 215.71C56.18 216.74 57.01 217.58 58.05 217.58C59.09 217.58 59.92 216.75 59.92 215.71ZM78.66 215.71C78.66 214.68 77.82 213.84 76.79 213.84C75.76 213.84 74.92 214.67 74.92 215.71C74.92 216.74 75.75 217.58 76.79 217.58C77.82 217.58 78.66 216.75 78.66 215.71ZM97.38 215.71C97.38 214.68 96.54 213.84 95.51 213.84C94.48 213.84 93.64 214.67 93.64 215.71C93.64 216.74 94.48 217.58 95.51 217.58C96.55 217.58 97.38 216.75 97.38 215.71ZM116.11 215.71C116.11 214.68 115.28 213.84 114.24 213.84C113.21 213.84 112.37 214.67 112.37 215.71C112.37 216.74 113.2 217.58 114.24 217.58C115.28 217.58 116.11 216.75 116.11 215.71ZM134.84 215.71C134.84 214.68 134 213.84 132.97 213.84C131.94 213.84 131.1 214.67 131.1 215.71C131.1 216.74 131.94 217.58 132.97 217.58C134.01 217.58 134.84 216.75 134.84 215.71ZM153.57 215.71C153.57 214.68 152.74 213.84 151.7 213.84C150.67 213.84 149.83 214.67 149.83 215.71C149.83 216.74 150.66 217.58 151.7 217.58C152.74 217.58 153.57 216.75 153.57 215.71ZM172.3 215.71C172.3 214.68 171.47 213.84 170.43 213.84C169.4 213.84 168.56 214.67 168.56 215.71C168.56 216.74 169.4 217.58 170.43 217.58C171.47 217.58 172.3 216.75 172.3 215.71ZM191.03 215.71C191.03 214.68 190.19 213.84 189.16 213.84C188.13 213.84 187.29 214.67 187.29 215.71C187.29 216.74 188.13 217.58 189.16 217.58C190.2 217.58 191.03 216.75 191.03 215.71ZM209.76 215.71C209.76 214.68 208.92 213.84 207.89 213.84C206.86 213.84 206.02 214.67 206.02 215.71C206.02 216.74 206.86 217.58 207.89 217.58C208.92 217.58 209.76 216.75 209.76 215.71ZM228.49 215.71C228.49 214.68 227.66 213.84 226.62 213.84C225.59 213.84 224.75 214.67 224.75 215.71C224.75 216.74 225.59 217.58 226.62 217.58C227.66 217.58 228.49 216.75 228.49 215.71ZM247.22 215.71C247.22 214.68 246.38 213.84 245.35 213.84C244.32 213.84 243.48 214.67 243.48 215.71C243.48 216.74 244.32 217.58 245.35 217.58C246.38 217.58 247.22 216.75 247.22 215.71ZM50.56 227.59C50.56 226.56 49.72 225.73 48.69 225.73C47.66 225.73 46.82 226.56 46.82 227.59C46.82 228.62 47.66 229.46 48.69 229.46C49.72 229.46 50.56 228.62 50.56 227.59ZM69.29 227.59C69.29 226.56 68.45 225.73 67.42 225.73C66.39 225.73 65.55 226.56 65.55 227.59C65.55 228.62 66.39 229.46 67.42 229.46C68.45 229.46 69.29 228.62 69.29 227.59ZM88.02 227.59C88.02 226.56 87.19 225.73 86.15 225.73C85.12 225.73 84.28 226.56 84.28 227.59C84.28 228.62 85.12 229.46 86.15 229.46C87.18 229.46 88.02 228.62 88.02 227.59ZM106.75 227.59C106.75 226.56 105.91 225.73 104.88 225.73C103.85 225.73 103.01 226.56 103.01 227.59C103.01 228.62 103.84 229.46 104.88 229.46C105.91 229.46 106.75 228.62 106.75 227.59ZM125.48 227.59C125.48 226.56 124.65 225.73 123.61 225.73C122.58 225.73 121.75 226.56 121.75 227.59C121.75 228.62 122.58 229.46 123.61 229.46C124.64 229.46 125.48 228.62 125.48 227.59ZM144.21 227.59C144.21 226.56 143.38 225.73 142.35 225.73C141.32 225.73 140.48 226.56 140.48 227.59C140.48 228.62 141.31 229.46 142.35 229.46C143.37 229.46 144.21 228.62 144.21 227.59ZM162.94 227.59C162.94 226.56 162.11 225.73 161.07 225.73C160.04 225.73 159.2 226.56 159.2 227.59C159.2 228.62 160.04 229.46 161.07 229.46C162.1 229.46 162.94 228.62 162.94 227.59ZM181.67 227.59C181.67 226.56 180.83 225.73 179.8 225.73C178.77 225.73 177.93 226.56 177.93 227.59C177.93 228.62 178.77 229.46 179.8 229.46C180.83 229.46 181.67 228.62 181.67 227.59ZM200.4 227.59C200.4 226.56 199.57 225.73 198.53 225.73C197.5 225.73 196.66 226.56 196.66 227.59C196.66 228.62 197.49 229.46 198.53 229.46C199.56 229.46 200.4 228.62 200.4 227.59ZM219.12 227.59C219.12 226.56 218.29 225.73 217.26 225.73C216.23 225.73 215.39 226.56 215.39 227.59C215.39 228.62 216.22 229.46 217.26 229.46C218.29 229.46 219.12 228.62 219.12 227.59ZM237.85 227.59C237.85 226.56 237.01 225.73 235.98 225.73C234.95 225.73 234.11 226.56 234.11 227.59C234.11 228.62 234.95 229.46 235.98 229.46C237.02 229.46 237.85 228.62 237.85 227.59ZM59.92 239.47C59.92 238.44 59.08 237.61 58.05 237.61C57.02 237.61 56.18 238.44 56.18 239.47C56.18 240.5 57.01 241.34 58.05 241.34C59.09 241.34 59.92 240.51 59.92 239.47ZM78.66 239.47C78.66 238.44 77.82 237.61 76.79 237.61C75.76 237.61 74.92 238.44 74.92 239.47C74.92 240.5 75.75 241.34 76.79 241.34C77.82 241.34 78.66 240.51 78.66 239.47ZM97.38 239.47C97.38 238.44 96.54 237.61 95.51 237.61C94.48 237.61 93.64 238.44 93.64 239.47C93.64 240.5 94.48 241.34 95.51 241.34C96.55 241.34 97.38 240.51 97.38 239.47ZM116.11 239.47C116.11 238.44 115.28 237.61 114.24 237.61C113.21 237.61 112.37 238.44 112.37 239.47C112.37 240.5 113.2 241.34 114.24 241.34C115.28 241.34 116.11 240.51 116.11 239.47ZM134.84 239.47C134.84 238.44 134 237.61 132.97 237.61C131.94 237.61 131.1 238.44 131.1 239.47C131.1 240.5 131.94 241.34 132.97 241.34C134.01 241.34 134.84 240.51 134.84 239.47ZM153.57 239.47C153.57 238.44 152.74 237.61 151.7 237.61C150.67 237.61 149.83 238.44 149.83 239.47C149.83 240.5 150.66 241.34 151.7 241.34C152.74 241.34 153.57 240.51 153.57 239.47ZM172.3 239.47C172.3 238.44 171.47 237.61 170.43 237.61C169.4 237.61 168.56 238.44 168.56 239.47C168.56 240.5 169.4 241.34 170.43 241.34C171.47 241.34 172.3 240.51 172.3 239.47ZM191.03 239.47C191.03 238.44 190.19 237.61 189.16 237.61C188.13 237.61 187.29 238.44 187.29 239.47C187.29 240.5 188.13 241.34 189.16 241.34C190.2 241.34 191.03 240.51 191.03 239.47ZM209.76 239.47C209.76 238.44 208.92 237.61 207.89 237.61C206.86 237.61 206.02 238.44 206.02 239.47C206.02 240.5 206.86 241.34 207.89 241.34C208.92 241.34 209.76 240.51 209.76 239.47ZM228.49 239.47C228.49 238.44 227.66 237.61 226.62 237.61C225.59 237.61 224.75 238.44 224.75 239.47C224.75 240.5 225.59 241.34 226.62 241.34C227.66 241.34 228.49 240.51 228.49 239.47ZM69.29 251.35C69.29 250.32 68.45 249.49 67.42 249.49C66.39 249.49 65.55 250.32 65.55 251.35C65.55 252.38 66.39 253.21 67.42 253.21C68.45 253.22 69.29 252.38 69.29 251.35ZM88.02 251.35C88.02 250.32 87.19 249.49 86.15 249.49C85.12 249.49 84.28 250.32 84.28 251.35C84.28 252.38 85.12 253.21 86.15 253.21C87.18 253.22 88.02 252.38 88.02 251.35ZM106.75 251.35C106.75 250.32 105.91 249.49 104.88 249.49C103.85 249.49 103.01 250.32 103.01 251.35C103.01 252.38 103.84 253.21 104.88 253.21C105.91 253.22 106.75 252.38 106.75 251.35ZM125.48 251.35C125.48 250.32 124.65 249.49 123.61 249.49C122.58 249.49 121.75 250.32 121.75 251.35C121.75 252.38 122.58 253.21 123.61 253.21C124.64 253.22 125.48 252.38 125.48 251.35ZM144.21 251.35C144.21 250.32 143.38 249.49 142.35 249.49C141.32 249.49 140.48 250.32 140.48 251.35C140.48 252.38 141.31 253.21 142.35 253.21C143.37 253.22 144.21 252.38 144.21 251.35ZM162.94 251.35C162.94 250.32 162.11 249.49 161.07 249.49C160.04 249.49 159.2 250.32 159.2 251.35C159.2 252.38 160.04 253.21 161.07 253.21C162.1 253.22 162.94 252.38 162.94 251.35ZM181.67 251.35C181.67 250.32 180.83 249.49 179.8 249.49C178.77 249.49 177.93 250.32 177.93 251.35C177.93 252.38 178.77 253.21 179.8 253.21C180.83 253.22 181.67 252.38 181.67 251.35ZM200.4 251.35C200.4 250.32 199.57 249.49 198.53 249.49C197.5 249.49 196.66 250.32 196.66 251.35C196.66 252.38 197.49 253.21 198.53 253.21C199.56 253.22 200.4 252.38 200.4 251.35ZM219.12 251.35C219.12 250.32 218.29 249.49 217.26 249.49C216.23 249.49 215.39 250.32 215.39 251.35C215.39 252.38 216.22 253.21 217.26 253.21C218.29 253.22 219.12 252.38 219.12 251.35ZM78.66 263.24C78.66 262.21 77.82 261.37 76.79 261.37C75.76 261.37 74.92 262.21 74.92 263.24C74.92 264.27 75.75 265.11 76.79 265.11C77.82 265.1 78.66 264.27 78.66 263.24ZM97.38 263.24C97.38 262.21 96.54 261.37 95.51 261.37C94.48 261.37 93.64 262.21 93.64 263.24C93.64 264.27 94.48 265.11 95.51 265.11C96.55 265.1 97.38 264.27 97.38 263.24ZM116.11 263.24C116.11 262.21 115.28 261.37 114.24 261.37C113.21 261.37 112.37 262.21 112.37 263.24C112.37 264.27 113.2 265.11 114.24 265.11C115.28 265.1 116.11 264.27 116.11 263.24ZM134.84 263.24C134.84 262.21 134 261.37 132.97 261.37C131.94 261.37 131.1 262.21 131.1 263.24C131.1 264.27 131.94 265.11 132.97 265.11C134.01 265.1 134.84 264.27 134.84 263.24ZM153.57 263.24C153.57 262.21 152.74 261.37 151.7 261.37C150.67 261.37 149.83 262.21 149.83 263.24C149.83 264.27 150.66 265.11 151.7 265.11C152.74 265.1 153.57 264.27 153.57 263.24ZM172.3 263.24C172.3 262.21 171.47 261.37 170.43 261.37C169.4 261.37 168.56 262.21 168.56 263.24C168.56 264.27 169.4 265.11 170.43 265.11C171.47 265.1 172.3 264.27 172.3 263.24ZM191.03 263.24C191.03 262.21 190.19 261.37 189.16 261.37C188.13 261.37 187.29 262.21 187.29 263.24C187.29 264.27 188.13 265.11 189.16 265.11C190.2 265.1 191.03 264.27 191.03 263.24ZM209.76 263.24C209.76 262.21 208.92 261.37 207.89 261.37C206.86 261.37 206.02 262.21 206.02 263.24C206.02 264.27 206.86 265.11 207.89 265.11C208.92 265.1 209.76 264.27 209.76 263.24ZM106.75 275.11C106.75 274.08 105.91 273.25 104.88 273.25C103.85 273.25 103.01 274.08 103.01 275.11C103.01 276.14 103.84 276.98 104.88 276.98C105.91 276.98 106.75 276.15 106.75 275.11ZM125.48 275.11C125.48 274.08 124.65 273.25 123.61 273.25C122.58 273.25 121.75 274.08 121.75 275.11C121.75 276.14 122.58 276.98 123.61 276.98C124.64 276.98 125.48 276.15 125.48 275.11ZM144.21 275.11C144.21 274.08 143.38 273.25 142.35 273.25C141.32 273.25 140.48 274.08 140.48 275.11C140.48 276.14 141.31 276.98 142.35 276.98C143.37 276.98 144.21 276.15 144.21 275.11ZM162.94 275.11C162.94 274.08 162.11 273.25 161.07 273.25C160.04 273.25 159.2 274.08 159.2 275.11C159.2 276.14 160.04 276.98 161.07 276.98C162.1 276.98 162.94 276.15 162.94 275.11ZM181.67 275.11C181.67 274.08 180.83 273.25 179.8 273.25C178.77 273.25 177.93 274.08 177.93 275.11C177.93 276.14 178.77 276.98 179.8 276.98C180.83 276.98 181.67 276.15 181.67 275.11Z" fill="url(#paint0_linear_1_21925)"/>
</g>
<defs>
<linearGradient id="paint0_linear_1_21925" x1="41.3737" y1="236.032" x2="238.666" y2="38.7398" gradientUnits="userSpaceOnUse">
<stop stop-color="white" stop-opacity="0"/>
<stop offset="1" stop-color="white"/>
</linearGradient>
<clipPath id="clip0_1_21925">
<rect width="284.68" height="276.98" fill="white"/>
</clipPath>
</defs>
</svg>
