<svg width="248" height="86" viewBox="0 0 248 86" fill="none" xmlns="http://www.w3.org/2000/svg">
<g filter="url(#filter0_d_1_21575)">
<rect x="20" y="12" width="208" height="46" rx="23" fill="url(#paint0_linear_1_21575)" shape-rendering="crispEdges"/>
<path d="M56.848 39.788C57.4133 39.788 57.92 39.6947 58.368 39.508C58.8213 39.3213 59.2053 39.0547 59.52 38.708C59.8347 38.356 60.0773 37.9293 60.248 37.428C60.4187 36.9213 60.504 36.3507 60.504 35.716C60.504 35.0813 60.4187 34.5133 60.248 34.012C60.0773 33.5053 59.8347 33.0787 59.52 32.732C59.2053 32.38 58.8213 32.1107 58.368 31.924C57.92 31.7373 57.4133 31.644 56.848 31.644H54.6V35.068H56.728V36.292H54.6V39.788H56.848ZM56.848 29.932C57.728 29.932 58.528 30.076 59.248 30.364C59.968 30.6467 60.584 31.044 61.096 31.556C61.608 32.0627 62.0053 32.6707 62.288 33.38C62.5707 34.0893 62.712 34.868 62.712 35.716C62.712 36.564 62.5707 37.3427 62.288 38.052C62.0053 38.7613 61.608 39.372 61.096 39.884C60.584 40.396 59.968 40.7933 59.248 41.076C58.528 41.3587 57.728 41.5 56.848 41.5H52.44V36.292H50.992V35.068H52.44V29.932H56.848ZM71.1531 37.132L69.7451 33.284C69.6758 33.1133 69.6038 32.9107 69.5291 32.676C69.4545 32.4413 69.3798 32.188 69.3051 31.916C69.2358 32.188 69.1638 32.444 69.0891 32.684C69.0145 32.9187 68.9425 33.124 68.8731 33.3L67.4731 37.132H71.1531ZM74.9531 41.5H73.2891C73.1025 41.5 72.9505 41.4547 72.8331 41.364C72.7158 41.268 72.6278 41.1507 72.5691 41.012L71.7051 38.652H66.9131L66.0491 41.012C66.0065 41.1347 65.9238 41.2467 65.8011 41.348C65.6785 41.4493 65.5265 41.5 65.3451 41.5H63.6651L68.2171 29.932H70.4091L74.9531 41.5ZM69.3051 29.132C68.9051 29.132 68.5425 29.0893 68.2171 29.004C67.8918 28.9133 67.6145 28.78 67.3851 28.604C67.1558 28.4227 66.9771 28.196 66.8491 27.924C66.7265 27.6467 66.6651 27.3213 66.6651 26.948H68.1771C68.1771 27.108 68.1958 27.2493 68.2331 27.372C68.2705 27.4947 68.3318 27.5987 68.4171 27.684C68.5078 27.7693 68.6251 27.836 68.7691 27.884C68.9131 27.9267 69.0918 27.948 69.3051 27.948C69.7265 27.948 70.0198 27.8627 70.1851 27.692C70.3505 27.516 70.4331 27.268 70.4331 26.948H71.9451C71.9451 27.2893 71.8811 27.596 71.7531 27.868C71.6305 28.1347 71.4545 28.364 71.2251 28.556C70.9958 28.7427 70.7185 28.8867 70.3931 28.988C70.0678 29.084 69.7051 29.132 69.3051 29.132ZM86.7025 29.932V41.5H85.5985C85.4278 41.5 85.2838 41.4733 85.1665 41.42C85.0545 41.3613 84.9452 41.2653 84.8385 41.132L78.7985 33.42C78.8305 33.772 78.8465 34.0973 78.8465 34.396V41.5H76.9505V29.932H78.0785C78.1692 29.932 78.2465 29.9373 78.3105 29.948C78.3798 29.9533 78.4385 29.9693 78.4865 29.996C78.5398 30.0173 78.5905 30.052 78.6385 30.1C78.6865 30.1427 78.7398 30.2013 78.7985 30.276L84.8625 38.02C84.8465 37.8333 84.8332 37.6493 84.8225 37.468C84.8118 37.2867 84.8065 37.1187 84.8065 36.964V29.932H86.7025ZM99.6146 35.7V40.38C99.028 40.812 98.4013 41.1293 97.7346 41.332C97.0733 41.5293 96.364 41.628 95.6066 41.628C94.6626 41.628 93.8066 41.4813 93.0386 41.188C92.276 40.8947 91.6226 40.4867 91.0786 39.964C90.54 39.4413 90.124 38.8173 89.8306 38.092C89.5373 37.3667 89.3906 36.5747 89.3906 35.716C89.3906 34.8467 89.532 34.0493 89.8146 33.324C90.0973 32.5987 90.4973 31.9747 91.0146 31.452C91.5373 30.9293 92.1693 30.524 92.9106 30.236C93.652 29.948 94.484 29.804 95.4066 29.804C95.876 29.804 96.3133 29.8413 96.7186 29.916C97.1293 29.9907 97.508 30.0947 97.8546 30.228C98.2066 30.356 98.5266 30.5133 98.8146 30.7C99.1026 30.8867 99.3666 31.092 99.6066 31.316L98.9906 32.292C98.8946 32.4467 98.7693 32.5427 98.6146 32.58C98.46 32.612 98.292 32.572 98.1106 32.46C97.9346 32.3587 97.7586 32.2573 97.5826 32.156C97.4066 32.0547 97.2093 31.9667 96.9906 31.892C96.7773 31.8173 96.5346 31.756 96.2626 31.708C95.996 31.66 95.6866 31.636 95.3346 31.636C94.764 31.636 94.2466 31.732 93.7826 31.924C93.324 32.116 92.932 32.3907 92.6066 32.748C92.2813 33.1053 92.0306 33.5347 91.8546 34.036C91.6786 34.5373 91.5906 35.0973 91.5906 35.716C91.5906 36.3773 91.684 36.9693 91.8706 37.492C92.0626 38.0093 92.3293 38.4493 92.6706 38.812C93.0173 39.1693 93.4333 39.444 93.9186 39.636C94.404 39.8227 94.9453 39.916 95.5426 39.916C95.9693 39.916 96.3506 39.8707 96.6866 39.78C97.0226 39.6893 97.3506 39.5667 97.6706 39.412V37.316H96.2146C96.076 37.316 95.9666 37.2787 95.8866 37.204C95.812 37.124 95.7746 37.028 95.7746 36.916V35.7H99.6146ZM109.331 34.78H109.835C110.037 34.78 110.205 34.7533 110.339 34.7C110.472 34.6413 110.587 34.5507 110.683 34.428L113.875 30.388C114.008 30.2173 114.147 30.1 114.291 30.036C114.44 29.9667 114.627 29.932 114.851 29.932H116.707L112.811 34.74C112.581 35.0333 112.344 35.2413 112.099 35.364C112.275 35.428 112.432 35.5187 112.571 35.636C112.715 35.748 112.851 35.8973 112.979 36.084L116.995 41.5H115.099C114.843 41.5 114.651 41.4653 114.523 41.396C114.4 41.3213 114.296 41.2147 114.211 41.076L110.939 36.804C110.837 36.66 110.72 36.5587 110.587 36.5C110.453 36.4413 110.261 36.412 110.011 36.412H109.331V41.5H107.179V29.932H109.331V34.78ZM123.915 37.02V41.5H121.771V37.02L117.555 29.932H119.451C119.638 29.932 119.785 29.9773 119.891 30.068C120.003 30.1587 120.097 30.2733 120.171 30.412L122.283 34.276C122.406 34.5053 122.513 34.7213 122.603 34.924C122.699 35.1267 122.785 35.3293 122.859 35.532C122.929 35.3293 123.009 35.1267 123.099 34.924C123.19 34.7213 123.294 34.5053 123.411 34.276L125.515 30.412C125.574 30.2947 125.662 30.1853 125.779 30.084C125.897 29.9827 126.046 29.932 126.227 29.932H128.131L123.915 37.02ZM126.227 26.612L123.635 28.9C123.529 28.996 123.427 29.0547 123.331 29.076C123.235 29.0973 123.113 29.108 122.963 29.108H121.531L123.203 26.94C123.257 26.8653 123.31 26.8067 123.363 26.764C123.417 26.716 123.475 26.6813 123.539 26.66C123.603 26.6387 123.673 26.6253 123.747 26.62C123.827 26.6147 123.921 26.612 124.027 26.612H126.227ZM141.752 31.7H138.264V41.5H136.112V31.7H132.624V29.932H141.752V31.7ZM156.746 28.764C156.778 28.8813 156.805 29.02 156.826 29.18C156.847 29.34 156.858 29.5053 156.858 29.676C156.858 30.0813 156.789 30.46 156.65 30.812C156.511 31.164 156.303 31.4707 156.026 31.732C155.749 31.988 155.399 32.1933 154.978 32.348C154.562 32.4973 154.074 32.5747 153.514 32.58V36.86C153.514 37.548 153.402 38.1853 153.178 38.772C152.959 39.3533 152.642 39.8573 152.226 40.284C151.815 40.7053 151.314 41.036 150.722 41.276C150.13 41.5107 149.463 41.628 148.722 41.628C147.975 41.628 147.306 41.5107 146.714 41.276C146.122 41.036 145.618 40.7053 145.202 40.284C144.791 39.8573 144.474 39.3533 144.25 38.772C144.031 38.1853 143.922 37.548 143.922 36.86V29.932H146.074V36.852C146.074 37.2947 146.133 37.6947 146.25 38.052C146.373 38.4093 146.546 38.716 146.77 38.972C146.999 39.2227 147.277 39.4173 147.602 39.556C147.933 39.6947 148.306 39.764 148.722 39.764C149.138 39.764 149.509 39.6947 149.834 39.556C150.165 39.4173 150.442 39.2227 150.666 38.972C150.89 38.7213 151.061 38.4173 151.178 38.06C151.301 37.7027 151.362 37.3027 151.362 36.86V29.932H153.514V31.58C153.983 31.5693 154.338 31.4813 154.578 31.316C154.823 31.1453 154.946 30.9347 154.946 30.684C154.946 30.5827 154.927 30.4947 154.89 30.42C154.858 30.3453 154.821 30.2707 154.778 30.196C154.735 30.116 154.695 30.0307 154.658 29.94C154.626 29.844 154.61 29.732 154.61 29.604C154.61 29.3267 154.698 29.1187 154.874 28.98C155.05 28.836 155.322 28.764 155.69 28.764H156.746ZM172.094 29.932L167.422 41.5H165.478L160.806 29.932H162.534C162.72 29.932 162.872 29.9773 162.99 30.068C163.107 30.1587 163.195 30.276 163.254 30.42L165.982 37.476C166.072 37.7053 166.158 37.9587 166.238 38.236C166.323 38.508 166.403 38.7933 166.478 39.092C166.542 38.7933 166.611 38.508 166.686 38.236C166.76 37.9587 166.843 37.7053 166.934 37.476L169.646 30.42C169.688 30.2973 169.771 30.1853 169.894 30.084C170.022 29.9827 170.176 29.932 170.358 29.932H172.094ZM179.281 37.132L177.873 33.284C177.804 33.1133 177.732 32.9107 177.657 32.676C177.583 32.4413 177.508 32.188 177.433 31.916C177.364 32.188 177.292 32.444 177.217 32.684C177.143 32.9187 177.071 33.124 177.001 33.3L175.601 37.132H179.281ZM183.081 41.5H181.417C181.231 41.5 181.079 41.4547 180.961 41.364C180.844 41.268 180.756 41.1507 180.697 41.012L179.833 38.652H175.041L174.177 41.012C174.135 41.1347 174.052 41.2467 173.929 41.348C173.807 41.4493 173.655 41.5 173.473 41.5H171.793L176.345 29.932H178.537L183.081 41.5ZM180.289 29.108H178.857C178.777 29.108 178.679 29.0947 178.561 29.068C178.449 29.036 178.332 28.948 178.209 28.804L177.553 27.956C177.5 27.8813 177.46 27.8227 177.433 27.78C177.407 27.8227 177.367 27.8813 177.313 27.956L176.657 28.804C176.535 28.948 176.415 29.036 176.297 29.068C176.185 29.0947 176.089 29.108 176.009 29.108H174.641L176.569 26.908H178.361L180.289 29.108ZM182.873 25.812L180.881 27.588C180.657 27.812 180.444 27.9133 180.241 27.892C180.044 27.8653 179.868 27.756 179.713 27.564L179.449 27.236L180.193 26.236C180.241 26.1667 180.287 26.108 180.329 26.06C180.377 26.0067 180.428 25.9613 180.481 25.924C180.54 25.8867 180.607 25.86 180.681 25.844C180.756 25.8227 180.847 25.812 180.953 25.812H182.873ZM194.831 29.932V41.5H193.727C193.556 41.5 193.412 41.4733 193.295 41.42C193.183 41.3613 193.073 41.2653 192.967 41.132L186.927 33.42C186.959 33.772 186.975 34.0973 186.975 34.396V41.5H185.079V29.932H186.207C186.297 29.932 186.375 29.9373 186.439 29.948C186.508 29.9533 186.567 29.9693 186.615 29.996C186.668 30.0173 186.719 30.052 186.767 30.1C186.815 30.1427 186.868 30.2013 186.927 30.276L192.991 38.02C192.975 37.8333 192.961 37.6493 192.951 37.468C192.94 37.2867 192.935 37.1187 192.935 36.964V29.932H194.831Z" fill="white"/>
</g>
<defs>
<filter id="filter0_d_1_21575" x="0" y="0" width="248" height="86" filterUnits="userSpaceOnUse" color-interpolation-filters="sRGB">
<feFlood flood-opacity="0" result="BackgroundImageFix"/>
<feColorMatrix in="SourceAlpha" type="matrix" values="0 0 0 0 0 0 0 0 0 0 0 0 0 0 0 0 0 0 127 0" result="hardAlpha"/>
<feOffset dy="8"/>
<feGaussianBlur stdDeviation="10"/>
<feComposite in2="hardAlpha" operator="out"/>
<feColorMatrix type="matrix" values="0 0 0 0 0 0 0 0 0 0.886275 0 0 0 0 0.392157 0 0 0 0.4 0"/>
<feBlend mode="normal" in2="BackgroundImageFix" result="effect1_dropShadow_1_21575"/>
<feBlend mode="normal" in="SourceGraphic" in2="effect1_dropShadow_1_21575" result="shape"/>
</filter>
<linearGradient id="paint0_linear_1_21575" x1="20" y1="12" x2="39.3974" y2="99.7102" gradientUnits="userSpaceOnUse">
<stop stop-color="#3EED8B"/>
<stop offset="1" stop-color="#0A9949"/>
</linearGradient>
</defs>
</svg>
