<svg width="170" height="170" viewBox="0 0 170 170" fill="none" xmlns="http://www.w3.org/2000/svg">
<g filter="url(#filter0_d_1_21904)">
<rect x="57.4468" y="29" width="79" height="79" rx="15" transform="rotate(15 57.4468 29)" fill="white"/>
</g>
<path d="M89.2004 56.7232C89.8922 56.1308 90.9632 56.4178 91.2661 57.2767L95.0306 67.9522C95.1298 68.2334 95.3228 68.4718 95.5773 68.6272L105.237 74.5291C106.014 75.0039 106.072 76.1112 105.349 76.6647L96.359 83.5439C96.1222 83.7251 95.9552 83.9824 95.8859 84.2724L93.2579 95.2828C93.0464 96.1687 92.0113 96.5661 91.2614 96.0492L81.9409 89.6254C81.6954 89.4562 81.3991 89.3768 81.1019 89.4005L69.8182 90.3035C68.9103 90.3762 68.2125 89.5145 68.4724 88.6416L71.7016 77.7922C71.7867 77.5064 71.7707 77.2001 71.6562 76.9248L67.3105 66.4724C66.9609 65.6314 67.5648 64.7015 68.4753 64.6789L79.7915 64.3974C80.0896 64.39 80.376 64.2801 80.6025 64.0862L89.2004 56.7232Z" fill="#FFB800"/>
<defs>
<filter id="filter0_d_1_21904" x="0.799805" y="0.799713" width="169.155" height="169.155" filterUnits="userSpaceOnUse" color-interpolation-filters="sRGB">
<feFlood flood-opacity="0" result="BackgroundImageFix"/>
<feColorMatrix in="SourceAlpha" type="matrix" values="0 0 0 0 0 0 0 0 0 0 0 0 0 0 0 0 0 0 127 0" result="hardAlpha"/>
<feOffset dy="8"/>
<feGaussianBlur stdDeviation="20"/>
<feComposite in2="hardAlpha" operator="out"/>
<feColorMatrix type="matrix" values="0 0 0 0 0 0 0 0 0 0 0 0 0 0 0 0 0 0 0.15 0"/>
<feBlend mode="normal" in2="BackgroundImageFix" result="effect1_dropShadow_1_21904"/>
<feBlend mode="normal" in="SourceGraphic" in2="effect1_dropShadow_1_21904" result="shape"/>
</filter>
</defs>
</svg>
