<svg width="533" height="399" viewBox="0 0 533 399" fill="none" xmlns="http://www.w3.org/2000/svg">
<path d="M454.202 217.986L500.97 242.051L459.875 234.576L454.202 217.986Z" fill="#ECF3F6"/>
<path d="M461.701 242.439L500.969 242.05L460.081 262.296L461.701 242.439Z" fill="#ECF3F6"/>
<path d="M459.877 234.577L500.974 242.053L461.707 242.441L447.525 248.156L459.877 234.577Z" fill="#ECF3F6"/>
<path d="M461.302 247.391L461.705 242.441L447.523 248.156L461.302 247.391Z" fill="#ECF3F6"/>
<path d="M409.677 256.413C409.651 256.416 409.625 256.418 409.59 256.422C405.068 256.602 400.427 256.374 395.806 255.723C394.98 255.609 394.406 254.85 394.519 254.024C394.631 253.199 395.399 252.626 396.217 252.74C400.66 253.364 405.107 253.585 409.455 253.412C410.284 253.377 410.987 254.027 411.024 254.856C411.067 255.658 410.467 256.338 409.677 256.413ZM423.062 254.549C422.333 254.619 421.638 254.143 421.461 253.406C421.26 252.602 421.759 251.783 422.563 251.583C426.904 250.527 431.076 249.005 434.947 247.082C435.691 246.713 436.597 247.011 436.967 247.755C437.337 248.499 437.04 249.404 436.296 249.773C432.225 251.803 427.84 253.389 423.286 254.51C423.21 254.535 423.14 254.542 423.062 254.549ZM382.973 252.725C382.773 252.744 382.57 252.728 382.371 252.66C379.848 251.86 377.347 250.926 374.923 249.889C373.149 249.131 371.368 248.303 369.635 247.419C368.897 247.043 368.598 246.134 368.974 245.397C369.349 244.66 370.258 244.363 370.995 244.739C372.682 245.593 374.399 246.391 376.11 247.129C378.442 248.132 380.861 249.029 383.284 249.795C384.079 250.043 384.513 250.895 384.265 251.681C384.077 252.268 383.555 252.669 382.973 252.725ZM358.849 240.606C358.502 240.639 358.152 240.55 357.842 240.343C354.185 237.795 350.566 234.919 347.099 231.801C346.484 231.246 346.427 230.297 346.988 229.674C347.542 229.06 348.492 229.004 349.116 229.566C352.497 232.605 356.012 235.403 359.566 237.882C360.252 238.36 360.414 239.299 359.936 239.976C359.674 240.342 359.266 240.566 358.849 240.606ZM325.864 237.748C325.074 237.824 324.353 237.263 324.232 236.468C324.108 235.648 324.674 234.884 325.503 234.761C329.944 234.106 334.309 233.117 338.469 231.824C339.268 231.572 340.109 232.017 340.353 232.817C340.596 233.608 340.162 234.456 339.362 234.699C335.049 236.042 330.538 237.062 325.942 237.741C325.915 237.734 325.89 237.746 325.864 237.748ZM312.368 238.747C312.324 238.751 312.272 238.756 312.228 238.752C307.708 238.774 303.097 238.49 298.518 237.905C297.692 237.801 297.111 237.051 297.215 236.226C297.319 235.401 298.077 234.82 298.894 234.926C303.339 235.489 307.819 235.768 312.208 235.749C313.04 235.748 313.719 236.419 313.721 237.251C313.735 238.029 313.141 238.673 312.368 238.747ZM351.578 229.644C350.987 229.701 350.398 229.407 350.108 228.857C349.712 228.124 349.992 227.213 350.724 226.818C354.89 224.596 358.453 222.028 361.305 219.187C361.897 218.605 362.843 218.601 363.435 219.193C364.019 219.785 364.023 220.731 363.432 221.322C360.364 224.376 356.565 227.124 352.14 229.476C351.957 229.573 351.769 229.626 351.578 229.644ZM285.563 235.375C285.398 235.39 285.222 235.381 285.043 235.337C283.497 234.942 281.929 234.506 280.403 234.04C277.594 233.188 274.765 232.216 271.98 231.152C271.206 230.85 270.815 229.985 271.116 229.211C271.418 228.438 272.283 228.048 273.057 228.35C275.779 229.394 278.536 230.347 281.272 231.17C282.762 231.623 284.276 232.047 285.785 232.427C286.593 232.63 287.076 233.451 286.875 234.259C286.716 234.878 286.171 235.316 285.563 235.375ZM338.691 222.578C338.23 222.622 337.759 222.457 337.425 222.086C334.447 218.772 331.54 215.197 328.784 211.467C328.289 210.796 328.434 209.854 329.096 209.361C329.767 208.867 330.71 209.013 331.204 209.675C333.899 213.323 336.746 216.825 339.665 220.075C340.225 220.696 340.169 221.647 339.548 222.198C339.307 222.422 339.003 222.548 338.691 222.578ZM260.296 225.731C260.018 225.758 259.733 225.706 259.474 225.573C255.501 223.555 251.502 221.276 247.58 218.806C246.88 218.365 246.666 217.43 247.107 216.731C247.547 216.032 248.482 215.819 249.182 216.26C253.019 218.677 256.944 220.911 260.834 222.885C261.572 223.26 261.87 224.169 261.495 224.906C261.253 225.394 260.791 225.683 260.296 225.731ZM369.673 210.429C369.482 210.447 369.279 210.432 369.079 210.363C368.284 210.115 367.843 209.273 368.09 208.478C368.39 207.512 368.626 206.517 368.792 205.52C369.076 203.758 369.138 201.956 368.962 200.151C368.829 198.78 368.562 197.386 368.156 196.006C367.92 195.205 368.382 194.372 369.184 194.146C369.985 193.912 370.819 194.375 371.046 195.176C371.496 196.736 371.798 198.311 371.949 199.864C372.15 201.93 372.088 203.994 371.758 206.006C371.571 207.145 371.304 208.275 370.955 209.377C370.776 209.972 370.255 210.373 369.673 210.429ZM237.371 211.342C237.007 211.377 236.638 211.281 236.326 211.048C232.771 208.376 229.203 205.486 225.717 202.448C225.095 201.904 225.029 200.955 225.572 200.325C226.116 199.703 227.065 199.638 227.697 200.182C231.125 203.173 234.636 206.015 238.134 208.64C238.796 209.137 238.931 210.079 238.435 210.749C238.163 211.099 237.779 211.302 237.371 211.342ZM323.201 200.475C322.567 200.536 321.947 200.192 321.677 199.579C320.141 196.047 319.207 192.659 318.902 189.526C318.775 188.224 318.756 186.947 318.848 185.729C318.908 184.9 319.636 184.278 320.458 184.348C321.287 184.408 321.91 185.137 321.851 185.966C321.768 187.008 321.789 188.118 321.898 189.247C322.173 192.067 323.024 195.139 324.444 198.384C324.773 199.15 324.429 200.033 323.663 200.36C323.503 200.42 323.349 200.461 323.201 200.475ZM363.143 185.38C362.674 185.425 362.193 185.252 361.866 184.872C359.046 181.647 355.556 178.838 351.76 176.75C351.028 176.347 350.764 175.435 351.166 174.704C351.569 173.973 352.481 173.711 353.212 174.113C357.306 176.374 361.089 179.401 364.128 182.894C364.679 183.515 364.614 184.467 363.984 185.019C363.742 185.235 363.447 185.351 363.143 185.38ZM216.908 193.606C216.483 193.647 216.039 193.505 215.71 193.187C213.735 191.265 211.777 189.333 209.818 187.393C208.567 186.155 207.307 184.91 206.056 183.681C205.465 183.098 205.451 182.145 206.034 181.554C206.616 180.964 207.57 180.951 208.161 181.534C209.421 182.771 210.681 184.016 211.932 185.254C213.882 187.186 215.84 189.118 217.806 191.032C218.406 191.614 218.42 192.567 217.837 193.158C217.582 193.419 217.247 193.573 216.908 193.606ZM326.84 175.903C326.319 175.953 325.78 175.724 325.455 175.265C324.976 174.584 325.148 173.648 325.829 173.17C328.383 171.401 331.459 170.325 334.993 169.986C336.522 169.839 338.125 169.834 339.76 169.975C340.591 170.044 341.205 170.773 341.136 171.594C341.068 172.424 340.338 173.038 339.517 172.968C338.059 172.845 336.631 172.851 335.285 172.98C332.28 173.269 329.677 174.167 327.551 175.642C327.329 175.795 327.083 175.879 326.84 175.903ZM197.409 174.788C197.001 174.827 196.585 174.701 196.259 174.408C192.59 171.116 189.209 168.34 185.905 165.906C185.234 165.41 185.09 164.469 185.586 163.8C186.082 163.13 187.023 162.987 187.694 163.483C191.074 165.979 194.532 168.818 198.267 172.174C198.882 172.728 198.939 173.677 198.387 174.3C198.125 174.588 197.773 174.753 197.409 174.788ZM175.524 158.923C175.237 158.951 174.943 158.9 174.666 158.752C170.911 156.73 166.821 154.871 162.516 153.235C161.743 152.941 161.351 152.068 161.644 151.295C161.937 150.522 162.81 150.132 163.584 150.426C168.016 152.111 172.217 154.029 176.091 156.109C176.822 156.503 177.095 157.415 176.701 158.144C176.456 158.597 176.001 158.877 175.524 158.923ZM150.314 149.151C150.14 149.168 149.954 149.151 149.775 149.107C145.733 148.006 141.454 146.998 136.681 146.037C135.867 145.87 135.334 145.081 135.501 144.267C135.667 143.454 136.456 142.923 137.27 143.09C142.106 144.062 146.447 145.081 150.553 146.203C151.354 146.423 151.829 147.245 151.608 148.046C151.451 148.674 150.913 149.094 150.314 149.151ZM123.786 143.667C123.664 143.679 123.532 143.674 123.399 143.652C120.817 143.234 118.245 142.833 115.675 142.449C113.789 142.166 111.912 141.882 110.027 141.599C109.208 141.476 108.634 140.708 108.756 139.89C108.878 139.073 109.637 138.5 110.464 138.622C112.35 138.906 114.235 139.189 116.121 139.472C118.701 139.863 121.29 140.263 123.881 140.68C124.7 140.811 125.257 141.581 125.127 142.408C125.019 143.102 124.454 143.603 123.786 143.667ZM96.9901 139.663C96.8772 139.674 96.754 139.668 96.6299 139.654C92.1602 139.023 87.6913 138.402 83.2242 137.797C82.3981 137.684 81.8246 136.924 81.9293 136.108C82.034 135.292 82.8003 134.702 83.6177 134.816C88.0936 135.42 92.5711 136.04 97.0494 136.67C97.8755 136.784 98.4498 137.552 98.3278 138.369C98.2391 139.079 97.6674 139.598 96.9901 139.663ZM70.1438 136.041C70.0309 136.051 69.9172 136.054 69.8104 136.038C65.3371 135.46 60.8577 134.909 56.3791 134.367C55.5547 134.271 54.9647 133.522 55.0677 132.689C55.1628 131.865 55.9205 131.275 56.7457 131.38C61.233 131.921 65.7133 132.48 70.1953 133.057C71.0205 133.162 71.6027 133.92 71.498 134.737C71.4006 135.447 70.8297 135.975 70.1438 136.041ZM43.2452 132.782C43.141 132.792 43.036 132.793 42.9293 132.777L41.4584 132.612C40.634 132.516 40.0361 131.776 40.1304 130.944C40.2255 130.12 40.965 129.523 41.7981 129.619L43.2777 129.783C44.1021 129.879 44.6999 130.619 44.6056 131.451C44.5099 132.179 43.9399 132.715 43.2452 132.782Z" fill="white"/>
</svg>
