<svg width="170" height="170" viewBox="0 0 170 170" fill="none" xmlns="http://www.w3.org/2000/svg">
<g filter="url(#filter0_d_1_21944)">
<rect x="37" y="49.4467" width="79" height="79" rx="15" transform="rotate(-15 37 49.4467)" fill="white"/>
</g>
<g clip-path="url(#clip0_1_21944)">
<path d="M98.7574 57.8179C97.4741 57.0765 96.0572 56.5953 94.5879 56.4017C93.1185 56.2081 91.6254 56.3059 90.1938 56.6894C88.7622 57.073 87.4202 57.7349 86.2445 58.6373C85.0688 59.5397 84.0824 60.6648 83.3417 61.9485L83.3041 62.0136C82.4757 63.4485 80.6409 63.9401 79.206 63.1117L79.141 63.0741C76.549 61.5776 73.4686 61.1721 70.5776 61.9467C67.6866 62.7214 65.2217 64.6127 63.7252 67.2047C62.2287 69.7968 61.8232 72.8771 62.5978 75.7681C63.3725 78.6591 65.2639 81.124 67.8559 82.6205L70.519 84.158L87.4673 93.9432C88.9022 94.7716 90.737 94.28 91.5654 92.8451L101.351 75.8968L102.888 73.2336C103.629 71.9503 104.111 70.5335 104.304 69.0641C104.498 67.5947 104.4 66.1016 104.017 64.67C103.633 63.2384 102.971 61.8964 102.069 60.7207C101.166 59.545 100.041 58.5586 98.7574 57.8179Z" fill="url(#paint0_linear_1_21944)"/>
</g>
<defs>
<filter id="filter0_d_1_21944" x="0.799805" y="0.799744" width="169.155" height="169.155" filterUnits="userSpaceOnUse" color-interpolation-filters="sRGB">
<feFlood flood-opacity="0" result="BackgroundImageFix"/>
<feColorMatrix in="SourceAlpha" type="matrix" values="0 0 0 0 0 0 0 0 0 0 0 0 0 0 0 0 0 0 127 0" result="hardAlpha"/>
<feOffset dy="8"/>
<feGaussianBlur stdDeviation="20"/>
<feComposite in2="hardAlpha" operator="out"/>
<feColorMatrix type="matrix" values="0 0 0 0 0 0 0 0 0 0 0 0 0 0 0 0 0 0 0.15 0"/>
<feBlend mode="normal" in2="BackgroundImageFix" result="effect1_dropShadow_1_21944"/>
<feBlend mode="normal" in="SourceGraphic" in2="effect1_dropShadow_1_21944" result="shape"/>
</filter>
<linearGradient id="paint0_linear_1_21944" x1="55.5" y1="66.5" x2="112.5" y2="90" gradientUnits="userSpaceOnUse">
<stop stop-color="#FF001F"/>
<stop offset="0.0001" stop-color="#FF7B8B"/>
<stop offset="1" stop-color="#FF001F"/>
</linearGradient>
<clipPath id="clip0_1_21944">
<rect width="46" height="46" fill="white" transform="translate(57 60.9057) rotate(-15)"/>
</clipPath>
</defs>
</svg>
