<svg width="967" height="97" viewBox="0 0 967 97" fill="none" xmlns="http://www.w3.org/2000/svg">
<rect x="36.5" y="47" width="1.00001" height="88" transform="rotate(-90 36.5 47)" fill="#D9D9D9"/>
<rect x="483.75" y="90.75" width="0.500004" height="87.5" transform="rotate(-180 483.75 90.75)" stroke="url(#paint0_linear_2_22253)" stroke-width="0.500004"/>
<path d="M0.333333 3C0.333333 4.47276 1.52724 5.66667 3 5.66667C4.47276 5.66667 5.66667 4.47276 5.66667 3C5.66667 1.52724 4.47276 0.333333 3 0.333333C1.52724 0.333333 0.333333 1.52724 0.333333 3ZM480.333 91C480.333 92.4728 481.527 93.6667 483 93.6667C484.473 93.6667 485.667 92.4728 485.667 91C485.667 89.5272 484.473 88.3333 483 88.3333C481.527 88.3333 480.333 89.5272 480.333 91ZM46.5 47H438.5V46H46.5V47ZM438.5 47C462.801 47 482.5 66.6995 482.5 91H483.5C483.5 66.1472 463.353 46 438.5 46V47ZM2.5 3C2.5 27.3005 22.1995 47 46.5 47V46C22.7518 46 3.5 26.7482 3.5 3H2.5Z" fill="url(#paint1_linear_2_22253)"/>
<path d="M966.667 3C966.667 4.47276 965.473 5.66667 964 5.66667C962.527 5.66667 961.333 4.47276 961.333 3C961.333 1.52724 962.527 0.333333 964 0.333333C965.473 0.333333 966.667 1.52724 966.667 3ZM486.667 91C486.667 92.4728 485.473 93.6667 484 93.6667C482.527 93.6667 481.333 92.4728 481.333 91C481.333 89.5272 482.527 88.3333 484 88.3333C485.473 88.3333 486.667 89.5272 486.667 91ZM920.5 47H528.5V46H920.5V47ZM528.5 47C504.199 47 484.5 66.6995 484.5 91H483.5C483.5 66.1472 503.647 46 528.5 46V47ZM964.5 3C964.5 27.3005 944.801 47 920.5 47V46C944.248 46 963.5 26.7482 963.5 3H964.5Z" fill="url(#paint2_linear_2_22253)"/>
<path d="M480.833 3C480.833 4.47276 482.027 5.66667 483.5 5.66667C484.973 5.66667 486.167 4.47276 486.167 3C486.167 1.52724 484.973 0.333333 483.5 0.333333C482.027 0.333333 480.833 1.52724 480.833 3ZM480.833 91C480.833 92.4728 482.027 93.6667 483.5 93.6667C484.973 93.6667 486.167 92.4728 486.167 91C486.167 89.5272 484.973 88.3333 483.5 88.3333C482.027 88.3333 480.833 89.5272 480.833 91ZM483 3V91H484V3H483Z" fill="url(#paint3_linear_2_22253)"/>
<circle cx="483.5" cy="90.5" r="6.5" fill="#0A9949"/>
<defs>
<linearGradient id="paint0_linear_2_22253" x1="484" y1="91" x2="486" y2="91.0227" gradientUnits="userSpaceOnUse">
<stop stop-color="#3EED8B"/>
<stop offset="1" stop-color="#0A9949"/>
</linearGradient>
<linearGradient id="paint1_linear_2_22253" x1="3" y1="3" x2="34.2174" y2="173.277" gradientUnits="userSpaceOnUse">
<stop stop-color="#3EED8B"/>
<stop offset="1" stop-color="#0A9949"/>
</linearGradient>
<linearGradient id="paint2_linear_2_22253" x1="964" y1="3" x2="932.783" y2="173.277" gradientUnits="userSpaceOnUse">
<stop stop-color="#3EED8B"/>
<stop offset="1" stop-color="#0A9949"/>
</linearGradient>
<linearGradient id="paint3_linear_2_22253" x1="483.5" y1="3" x2="485.5" y2="3.02272" gradientUnits="userSpaceOnUse">
<stop stop-color="#3EED8B"/>
<stop offset="1" stop-color="#0A9949"/>
</linearGradient>
</defs>
</svg>
