<svg width="109" height="109" viewBox="0 0 109 109" fill="none" xmlns="http://www.w3.org/2000/svg">
<g filter="url(#filter0_d_1_21653)">
<circle cx="54.5" cy="46.5" r="38.5" fill="url(#paint0_linear_1_21653)"/>
</g>
<g clip-path="url(#clip0_1_21653)">
<path d="M54.9886 31.273C46.2698 23.6472 35.184 30.3474 35.0023 39.4307C34.9559 41.7456 35.6242 44.0005 36.9543 46.0794H45.5758L47.1093 43.5235C47.5546 42.7814 48.6322 42.7575 49.1027 43.4973L52.3381 48.5815L57.0544 38.6252C57.4657 37.7564 58.6915 37.7288 59.1451 38.5713L63.1879 46.0794H73.0229C80.3085 34.6927 65.9098 21.721 54.9886 31.273Z" fill="white"/>
<path d="M61.456 47.8066L58.18 41.7227L53.5474 51.5024C53.1533 52.3344 51.9941 52.4067 51.4999 51.6299L48.1431 46.355L47.2437 47.854C47.0319 48.2069 46.6505 48.4228 46.2389 48.4228H38.8076C39.0406 48.6667 37.799 47.4276 54.1618 63.7056C54.6188 64.1603 55.3575 64.1604 55.8146 63.7056C71.9256 47.6781 70.9363 48.6662 71.1687 48.4228H62.4877C62.0565 48.4229 61.6603 48.1862 61.456 47.8066Z" fill="white"/>
</g>
<defs>
<filter id="filter0_d_1_21653" x="0" y="0" width="109" height="109" filterUnits="userSpaceOnUse" color-interpolation-filters="sRGB">
<feFlood flood-opacity="0" result="BackgroundImageFix"/>
<feColorMatrix in="SourceAlpha" type="matrix" values="0 0 0 0 0 0 0 0 0 0 0 0 0 0 0 0 0 0 127 0" result="hardAlpha"/>
<feOffset dy="8"/>
<feGaussianBlur stdDeviation="8"/>
<feComposite in2="hardAlpha" operator="out"/>
<feColorMatrix type="matrix" values="0 0 0 0 0.0392157 0 0 0 0 0.6 0 0 0 0 0.286274 0 0 0 0.35 0"/>
<feBlend mode="normal" in2="BackgroundImageFix" result="effect1_dropShadow_1_21653"/>
<feBlend mode="normal" in="SourceGraphic" in2="effect1_dropShadow_1_21653" result="shape"/>
</filter>
<linearGradient id="paint0_linear_1_21653" x1="16" y1="8" x2="93" y2="85" gradientUnits="userSpaceOnUse">
<stop stop-color="#3EED8B"/>
<stop offset="1" stop-color="#0A9949"/>
</linearGradient>
<clipPath id="clip0_1_21653">
<rect width="40" height="40" fill="white" transform="translate(35 26)"/>
</clipPath>
</defs>
</svg>
