<svg width="17" height="17" viewBox="0 0 17 17" fill="none" xmlns="http://www.w3.org/2000/svg">
<path fill-rule="evenodd" clip-rule="evenodd" d="M14.8038 11.842L13.8263 10.8645C13.3379 10.3761 12.5463 10.3761 12.0588 10.8645L11.2904 11.6328C11.1188 11.8045 10.8588 11.862 10.6371 11.7645C9.52378 11.277 8.42378 10.5378 7.44295 9.55697C6.46628 8.5803 5.72961 7.4853 5.24128 6.37613C5.13961 6.14697 5.19878 5.8778 5.37628 5.7003L6.06461 5.01197C6.62378 4.4528 6.62378 3.66197 6.13545 3.17363L5.15795 2.19613C4.50711 1.5453 3.45211 1.5453 2.80128 2.19613L2.25795 2.73863C1.64045 3.35613 1.38295 4.24697 1.54961 5.1303C1.96128 7.3078 3.22628 9.69197 5.26711 11.7328C7.30795 13.7736 9.69211 15.0386 11.8696 15.4503C12.7529 15.617 13.6438 15.3595 14.2613 14.742L14.8038 14.1995C15.4546 13.5486 15.4546 12.4936 14.8038 11.842V11.842Z" stroke="#0A9949" stroke-width="1.5" stroke-linecap="round" stroke-linejoin="round"/>
</svg>
