<svg width="229" height="72" viewBox="0 0 229 72" fill="none" xmlns="http://www.w3.org/2000/svg">
<g filter="url(#filter0_d_1_21804)">
<rect x="16" y="8" width="197" height="40" rx="20" fill="url(#paint0_linear_1_21804)"/>
</g>
<path d="M79.824 28.2V32.88C79.2373 33.312 78.6107 33.6293 77.944 33.832C77.2827 34.0293 76.5733 34.128 75.816 34.128C74.872 34.128 74.016 33.9813 73.248 33.688C72.4853 33.3947 71.832 32.9867 71.288 32.464C70.7493 31.9413 70.3333 31.3173 70.04 30.592C69.7467 29.8667 69.6 29.0747 69.6 28.216C69.6 27.3467 69.7413 26.5493 70.024 25.824C70.3067 25.0987 70.7067 24.4747 71.224 23.952C71.7467 23.4293 72.3787 23.024 73.12 22.736C73.8613 22.448 74.6933 22.304 75.616 22.304C76.0853 22.304 76.5227 22.3413 76.928 22.416C77.3387 22.4907 77.7173 22.5947 78.064 22.728C78.416 22.856 78.736 23.0133 79.024 23.2C79.312 23.3867 79.576 23.592 79.816 23.816L79.2 24.792C79.104 24.9467 78.9787 25.0427 78.824 25.08C78.6693 25.112 78.5013 25.072 78.32 24.96C78.144 24.8587 77.968 24.7573 77.792 24.656C77.616 24.5547 77.4187 24.4667 77.2 24.392C76.9867 24.3173 76.744 24.256 76.472 24.208C76.2053 24.16 75.896 24.136 75.544 24.136C74.9733 24.136 74.456 24.232 73.992 24.424C73.5333 24.616 73.1413 24.8907 72.816 25.248C72.4907 25.6053 72.24 26.0347 72.064 26.536C71.888 27.0373 71.8 27.5973 71.8 28.216C71.8 28.8773 71.8933 29.4693 72.08 29.992C72.272 30.5093 72.5387 30.9493 72.88 31.312C73.2267 31.6693 73.6427 31.944 74.128 32.136C74.6133 32.3227 75.1547 32.416 75.752 32.416C76.1787 32.416 76.56 32.3707 76.896 32.28C77.232 32.1893 77.56 32.0667 77.88 31.912V29.816H76.424C76.2853 29.816 76.176 29.7787 76.096 29.704C76.0213 29.624 75.984 29.528 75.984 29.416V28.2H79.824ZM94.5774 21.264C94.6094 21.3813 94.636 21.52 94.6574 21.68C94.6787 21.84 94.6894 22.0053 94.6894 22.176C94.6894 22.5813 94.62 22.96 94.4814 23.312C94.3427 23.664 94.1347 23.9707 93.8574 24.232C93.58 24.488 93.2307 24.6933 92.8094 24.848C92.3934 24.9973 91.9054 25.0747 91.3454 25.08V29.36C91.3454 30.048 91.2334 30.6853 91.0094 31.272C90.7907 31.8533 90.4734 32.3573 90.0574 32.784C89.6467 33.2053 89.1454 33.536 88.5534 33.776C87.9614 34.0107 87.2947 34.128 86.5534 34.128C85.8067 34.128 85.1374 34.0107 84.5454 33.776C83.9534 33.536 83.4494 33.2053 83.0334 32.784C82.6227 32.3573 82.3054 31.8533 82.0814 31.272C81.8627 30.6853 81.7534 30.048 81.7534 29.36V22.432H83.9054V29.352C83.9054 29.7947 83.964 30.1947 84.0814 30.552C84.204 30.9093 84.3774 31.216 84.6014 31.472C84.8307 31.7227 85.108 31.9173 85.4334 32.056C85.764 32.1947 86.1374 32.264 86.5534 32.264C86.9694 32.264 87.34 32.1947 87.6654 32.056C87.996 31.9173 88.2734 31.7227 88.4974 31.472C88.7214 31.2213 88.892 30.9173 89.0094 30.56C89.132 30.2027 89.1934 29.8027 89.1934 29.36V22.432H91.3454V24.08C91.8147 24.0693 92.1694 23.9813 92.4094 23.816C92.6547 23.6453 92.7774 23.4347 92.7774 23.184C92.7774 23.0827 92.7587 22.9947 92.7214 22.92C92.6894 22.8453 92.652 22.7707 92.6094 22.696C92.5667 22.616 92.5267 22.5307 92.4894 22.44C92.4574 22.344 92.4414 22.232 92.4414 22.104C92.4414 21.8267 92.5294 21.6187 92.7054 21.48C92.8814 21.336 93.1534 21.264 93.5214 21.264H94.5774ZM84.8494 19.68C85.02 19.552 85.26 19.448 85.5694 19.368C85.884 19.2827 86.2147 19.24 86.5614 19.24C87.1107 19.24 87.5294 19.3413 87.8174 19.544C88.1107 19.7467 88.2574 20.008 88.2574 20.328C88.2574 20.472 88.228 20.6 88.1694 20.712C88.116 20.824 88.0414 20.9253 87.9454 21.016C87.8494 21.1013 87.7347 21.176 87.6014 21.24C87.4734 21.2987 87.3347 21.3493 87.1854 21.392L87.0494 21.808H86.1054V20.92C86.3827 20.8827 86.58 20.8293 86.6974 20.76C86.8147 20.6853 86.8734 20.6027 86.8734 20.512C86.8734 20.4107 86.82 20.328 86.7134 20.264C86.612 20.2 86.476 20.168 86.3054 20.168C86.204 20.168 86.1107 20.1787 86.0254 20.2C85.9454 20.2213 85.8707 20.248 85.8014 20.28C85.7374 20.3067 85.676 20.3307 85.6174 20.352C85.564 20.3733 85.5134 20.384 85.4654 20.384C85.4067 20.384 85.3587 20.368 85.3214 20.336C85.2894 20.304 85.2547 20.2587 85.2174 20.2L84.8494 19.68ZM97.9636 34H95.8036V22.432H97.9636V34ZM112.04 24.2H108.552V34H106.4V24.2H102.912V22.432H112.04V24.2ZM123.306 22.432V34H121.146V28.944H115.714V34H113.554V22.432H115.714V27.408H121.146V22.432H123.306ZM136.914 28.216C136.914 29.064 136.772 29.8507 136.49 30.576C136.212 31.296 135.818 31.92 135.306 32.448C134.794 32.976 134.178 33.3893 133.458 33.688C132.738 33.9813 131.938 34.128 131.058 34.128C130.183 34.128 129.386 33.9813 128.666 33.688C127.946 33.3893 127.327 32.976 126.81 32.448C126.298 31.92 125.9 31.296 125.618 30.576C125.335 29.8507 125.194 29.064 125.194 28.216C125.194 27.368 125.335 26.584 125.618 25.864C125.9 25.1387 126.298 24.512 126.81 23.984C127.327 23.456 127.946 23.0453 128.666 22.752C129.386 22.4533 130.183 22.304 131.058 22.304C131.644 22.304 132.196 22.3733 132.714 22.512C133.231 22.6453 133.706 22.8373 134.138 23.088C134.57 23.3333 134.956 23.6347 135.298 23.992C135.644 24.344 135.938 24.7387 136.178 25.176C136.418 25.6133 136.599 26.088 136.722 26.6C136.85 27.112 136.914 27.6507 136.914 28.216ZM134.714 28.216C134.714 27.5813 134.628 27.0133 134.458 26.512C134.287 26.0053 134.044 25.576 133.73 25.224C133.415 24.872 133.031 24.6027 132.578 24.416C132.13 24.2293 131.623 24.136 131.058 24.136C130.492 24.136 129.983 24.2293 129.53 24.416C129.082 24.6027 128.698 24.872 128.378 25.224C128.063 25.576 127.82 26.0053 127.65 26.512C127.479 27.0133 127.394 27.5813 127.394 28.216C127.394 28.8507 127.479 29.4213 127.65 29.928C127.82 30.4293 128.063 30.856 128.378 31.208C128.698 31.5547 129.082 31.8213 129.53 32.008C129.983 32.1947 130.492 32.288 131.058 32.288C131.623 32.288 132.13 32.1947 132.578 32.008C133.031 31.8213 133.415 31.5547 133.73 31.208C134.044 30.856 134.287 30.4293 134.458 29.928C134.628 29.4213 134.714 28.8507 134.714 28.216ZM133.93 21.608H132.498C132.418 21.608 132.319 21.5947 132.202 21.568C132.09 21.536 131.972 21.448 131.85 21.304L131.194 20.456C131.14 20.3813 131.1 20.3227 131.074 20.28C131.047 20.3227 131.007 20.3813 130.954 20.456L130.298 21.304C130.175 21.448 130.055 21.536 129.938 21.568C129.826 21.5947 129.73 21.608 129.65 21.608H128.282L130.21 19.408H132.002L133.93 21.608ZM148.556 22.432V34H147.452C147.281 34 147.137 33.9733 147.02 33.92C146.908 33.8613 146.798 33.7653 146.692 33.632L140.652 25.92C140.684 26.272 140.7 26.5973 140.7 26.896V34H138.804V22.432H139.932C140.022 22.432 140.1 22.4373 140.164 22.448C140.233 22.4533 140.292 22.4693 140.34 22.496C140.393 22.5173 140.444 22.552 140.492 22.6C140.54 22.6427 140.593 22.7013 140.652 22.776L146.716 30.52C146.7 30.3333 146.686 30.1493 146.676 29.968C146.665 29.7867 146.66 29.6187 146.66 29.464V22.432H148.556ZM160.668 28.2V32.88C160.081 33.312 159.454 33.6293 158.788 33.832C158.126 34.0293 157.417 34.128 156.66 34.128C155.716 34.128 154.86 33.9813 154.092 33.688C153.329 33.3947 152.676 32.9867 152.132 32.464C151.593 31.9413 151.177 31.3173 150.884 30.592C150.59 29.8667 150.444 29.0747 150.444 28.216C150.444 27.3467 150.585 26.5493 150.868 25.824C151.15 25.0987 151.55 24.4747 152.068 23.952C152.59 23.4293 153.222 23.024 153.964 22.736C154.705 22.448 155.537 22.304 156.46 22.304C156.929 22.304 157.366 22.3413 157.772 22.416C158.182 22.4907 158.561 22.5947 158.908 22.728C159.26 22.856 159.58 23.0133 159.868 23.2C160.156 23.3867 160.42 23.592 160.66 23.816L160.044 24.792C159.948 24.9467 159.822 25.0427 159.668 25.08C159.513 25.112 159.345 25.072 159.164 24.96C158.988 24.8587 158.812 24.7573 158.636 24.656C158.46 24.5547 158.262 24.4667 158.044 24.392C157.83 24.3173 157.588 24.256 157.316 24.208C157.049 24.16 156.74 24.136 156.388 24.136C155.817 24.136 155.3 24.232 154.836 24.424C154.377 24.616 153.985 24.8907 153.66 25.248C153.334 25.6053 153.084 26.0347 152.908 26.536C152.732 27.0373 152.644 27.5973 152.644 28.216C152.644 28.8773 152.737 29.4693 152.924 29.992C153.116 30.5093 153.382 30.9493 153.724 31.312C154.07 31.6693 154.486 31.944 154.972 32.136C155.457 32.3227 155.998 32.416 156.596 32.416C157.022 32.416 157.404 32.3707 157.74 32.28C158.076 32.1893 158.404 32.0667 158.724 31.912V29.816H157.268C157.129 29.816 157.02 29.7787 156.94 29.704C156.865 29.624 156.828 29.528 156.828 29.416V28.2H160.668ZM174.227 24.2H170.739V34H168.587V24.2H165.099V22.432H174.227V24.2ZM177.901 34H175.741V22.432H177.901V34ZM190.243 22.432V34H189.139C188.968 34 188.824 33.9733 188.707 33.92C188.595 33.8613 188.486 33.7653 188.379 33.632L182.339 25.92C182.371 26.272 182.387 26.5973 182.387 26.896V34H180.491V22.432H181.619C181.71 22.432 181.787 22.4373 181.851 22.448C181.92 22.4533 181.979 22.4693 182.027 22.496C182.08 22.5173 182.131 22.552 182.179 22.6C182.227 22.6427 182.28 22.7013 182.339 22.776L188.403 30.52C188.387 30.3333 188.374 30.1493 188.363 29.968C188.352 29.7867 188.347 29.6187 188.347 29.464V22.432H190.243Z" fill="white"/>
<g clip-path="url(#clip0_1_21804)">
<path d="M45.75 33.612V38.25C45.75 38.574 45.958 38.861 46.266 38.963C46.343 38.988 46.422 39 46.5 39C46.734 39 46.96 38.89 47.104 38.694L49.817 35.002L45.75 33.612Z" fill="white"/>
<path d="M60.685 16.1389C60.455 15.9759 60.153 15.9539 59.903 16.0849L37.403 27.8349C37.137 27.9739 36.98 28.2579 37.002 28.5569C37.025 28.8569 37.224 29.1129 37.507 29.2099L43.762 31.3479L57.083 19.9579L46.775 32.3769L57.258 35.9599C57.336 35.9859 57.418 35.9999 57.5 35.9999C57.636 35.9999 57.771 35.9629 57.89 35.8909C58.08 35.7749 58.209 35.5799 58.242 35.3609L60.992 16.8609C61.033 16.5809 60.915 16.3029 60.685 16.1389Z" fill="white"/>
</g>
<defs>
<filter id="filter0_d_1_21804" x="0" y="0" width="229" height="72" filterUnits="userSpaceOnUse" color-interpolation-filters="sRGB">
<feFlood flood-opacity="0" result="BackgroundImageFix"/>
<feColorMatrix in="SourceAlpha" type="matrix" values="0 0 0 0 0 0 0 0 0 0 0 0 0 0 0 0 0 0 127 0" result="hardAlpha"/>
<feOffset dy="8"/>
<feGaussianBlur stdDeviation="8"/>
<feComposite in2="hardAlpha" operator="out"/>
<feColorMatrix type="matrix" values="0 0 0 0 0.313726 0 0 0 0 0.772549 0 0 0 0 0.466667 0 0 0 0.35 0"/>
<feBlend mode="normal" in2="BackgroundImageFix" result="effect1_dropShadow_1_21804"/>
<feBlend mode="normal" in="SourceGraphic" in2="effect1_dropShadow_1_21804" result="shape"/>
</filter>
<linearGradient id="paint0_linear_1_21804" x1="16" y1="8" x2="31.6005" y2="84.8324" gradientUnits="userSpaceOnUse">
<stop stop-color="#3EED8B"/>
<stop offset="1" stop-color="#0A9949"/>
</linearGradient>
<clipPath id="clip0_1_21804">
<rect width="24" height="24" fill="white" transform="translate(37 16)"/>
</clipPath>
</defs>
</svg>
