<svg width="247" height="78" viewBox="0 0 247 78" fill="none" xmlns="http://www.w3.org/2000/svg">
<g filter="url(#filter0_d_1_21891)">
<rect x="16" y="8" width="215" height="46" rx="23" fill="white"/>
</g>
<path d="M85.848 35.288C86.4133 35.288 86.92 35.1947 87.368 35.008C87.8213 34.8213 88.2053 34.5547 88.52 34.208C88.8347 33.856 89.0773 33.4293 89.248 32.928C89.4187 32.4213 89.504 31.8507 89.504 31.216C89.504 30.5813 89.4187 30.0133 89.248 29.512C89.0773 29.0053 88.8347 28.5787 88.52 28.232C88.2053 27.88 87.8213 27.6107 87.368 27.424C86.92 27.2373 86.4133 27.144 85.848 27.144H83.6V30.568H85.728V31.792H83.6V35.288H85.848ZM85.848 25.432C86.728 25.432 87.528 25.576 88.248 25.864C88.968 26.1467 89.584 26.544 90.096 27.056C90.608 27.5627 91.0053 28.1707 91.288 28.88C91.5707 29.5893 91.712 30.368 91.712 31.216C91.712 32.064 91.5707 32.8427 91.288 33.552C91.0053 34.2613 90.608 34.872 90.096 35.384C89.584 35.896 88.968 36.2933 88.248 36.576C87.528 36.8587 86.728 37 85.848 37H81.44V31.792H79.992V30.568H81.44V25.432H85.848ZM99.3531 32.632L97.9451 28.784C97.8758 28.6133 97.8038 28.4107 97.7291 28.176C97.6545 27.9413 97.5798 27.688 97.5051 27.416C97.4358 27.688 97.3638 27.944 97.2891 28.184C97.2145 28.4187 97.1425 28.624 97.0731 28.8L95.6731 32.632H99.3531ZM103.153 37H101.489C101.302 37 101.15 36.9547 101.033 36.864C100.916 36.768 100.828 36.6507 100.769 36.512L99.9051 34.152H95.1131L94.2491 36.512C94.2065 36.6347 94.1238 36.7467 94.0011 36.848C93.8785 36.9493 93.7265 37 93.5451 37H91.8651L96.4171 25.432H98.6091L103.153 37ZM97.5051 24.632C97.1051 24.632 96.7425 24.5893 96.4171 24.504C96.0918 24.4133 95.8145 24.28 95.5851 24.104C95.3558 23.9227 95.1771 23.696 95.0491 23.424C94.9265 23.1467 94.8651 22.8213 94.8651 22.448H96.3771C96.3771 22.608 96.3958 22.7493 96.4331 22.872C96.4705 22.9947 96.5318 23.0987 96.6171 23.184C96.7078 23.2693 96.8251 23.336 96.9691 23.384C97.1131 23.4267 97.2918 23.448 97.5051 23.448C97.9265 23.448 98.2198 23.3627 98.3851 23.192C98.5505 23.016 98.6331 22.768 98.6331 22.448H100.145C100.145 22.7893 100.081 23.096 99.9531 23.368C99.8305 23.6347 99.6545 23.864 99.4251 24.056C99.1958 24.2427 98.9185 24.3867 98.5931 24.488C98.2678 24.584 97.9051 24.632 97.5051 24.632ZM114.103 25.432V37H112.999C112.828 37 112.684 36.9733 112.567 36.92C112.455 36.8613 112.345 36.7653 112.239 36.632L106.199 28.92C106.231 29.272 106.247 29.5973 106.247 29.896V37H104.351V25.432H105.479C105.569 25.432 105.647 25.4373 105.711 25.448C105.78 25.4533 105.839 25.4693 105.887 25.496C105.94 25.5173 105.991 25.552 106.039 25.6C106.087 25.6427 106.14 25.7013 106.199 25.776L112.263 33.52C112.247 33.3333 112.233 33.1493 112.223 32.968C112.212 32.7867 112.207 32.6187 112.207 32.464V25.432H114.103ZM126.215 31.2V35.88C125.628 36.312 125.001 36.6293 124.335 36.832C123.673 37.0293 122.964 37.128 122.207 37.128C121.263 37.128 120.407 36.9813 119.639 36.688C118.876 36.3947 118.223 35.9867 117.679 35.464C117.14 34.9413 116.724 34.3173 116.431 33.592C116.137 32.8667 115.991 32.0747 115.991 31.216C115.991 30.3467 116.132 29.5493 116.415 28.824C116.697 28.0987 117.097 27.4747 117.615 26.952C118.137 26.4293 118.769 26.024 119.511 25.736C120.252 25.448 121.084 25.304 122.007 25.304C122.476 25.304 122.913 25.3413 123.319 25.416C123.729 25.4907 124.108 25.5947 124.455 25.728C124.807 25.856 125.127 26.0133 125.415 26.2C125.703 26.3867 125.967 26.592 126.207 26.816L125.591 27.792C125.495 27.9467 125.369 28.0427 125.215 28.08C125.06 28.112 124.892 28.072 124.711 27.96C124.535 27.8587 124.359 27.7573 124.183 27.656C124.007 27.5547 123.809 27.4667 123.591 27.392C123.377 27.3173 123.135 27.256 122.863 27.208C122.596 27.16 122.287 27.136 121.935 27.136C121.364 27.136 120.847 27.232 120.383 27.424C119.924 27.616 119.532 27.8907 119.207 28.248C118.881 28.6053 118.631 29.0347 118.455 29.536C118.279 30.0373 118.191 30.5973 118.191 31.216C118.191 31.8773 118.284 32.4693 118.471 32.992C118.663 33.5093 118.929 33.9493 119.271 34.312C119.617 34.6693 120.033 34.944 120.519 35.136C121.004 35.3227 121.545 35.416 122.143 35.416C122.569 35.416 122.951 35.3707 123.287 35.28C123.623 35.1893 123.951 35.0667 124.271 34.912V32.816H122.815C122.676 32.816 122.567 32.7787 122.487 32.704C122.412 32.624 122.375 32.528 122.375 32.416V31.2H126.215ZM134.331 30.28H134.835C135.037 30.28 135.205 30.2533 135.339 30.2C135.472 30.1413 135.587 30.0507 135.683 29.928L138.875 25.888C139.008 25.7173 139.147 25.6 139.291 25.536C139.44 25.4667 139.627 25.432 139.851 25.432H141.707L137.811 30.24C137.581 30.5333 137.344 30.7413 137.099 30.864C137.275 30.928 137.432 31.0187 137.571 31.136C137.715 31.248 137.851 31.3973 137.979 31.584L141.995 37H140.099C139.843 37 139.651 36.9653 139.523 36.896C139.4 36.8213 139.296 36.7147 139.211 36.576L135.939 32.304C135.837 32.16 135.72 32.0587 135.587 32C135.453 31.9413 135.261 31.912 135.011 31.912H134.331V37H132.179V25.432H134.331V30.28ZM148.115 32.52V37H145.971V32.52L141.755 25.432H143.651C143.838 25.432 143.985 25.4773 144.091 25.568C144.203 25.6587 144.297 25.7733 144.371 25.912L146.483 29.776C146.606 30.0053 146.713 30.2213 146.803 30.424C146.899 30.6267 146.985 30.8293 147.059 31.032C147.129 30.8293 147.209 30.6267 147.299 30.424C147.39 30.2213 147.494 30.0053 147.611 29.776L149.715 25.912C149.774 25.7947 149.862 25.6853 149.979 25.584C150.097 25.4827 150.246 25.432 150.427 25.432H152.331L148.115 32.52ZM150.427 22.112L147.835 24.4C147.729 24.496 147.627 24.5547 147.531 24.576C147.435 24.5973 147.313 24.608 147.163 24.608H145.731L147.403 22.44C147.457 22.3653 147.51 22.3067 147.563 22.264C147.617 22.216 147.675 22.1813 147.739 22.16C147.803 22.1387 147.873 22.1253 147.947 22.12C148.027 22.1147 148.121 22.112 148.227 22.112H150.427ZM166.509 25.432V37H165.405C165.234 37 165.09 36.9733 164.973 36.92C164.861 36.8613 164.751 36.7653 164.645 36.632L158.605 28.92C158.637 29.272 158.653 29.5973 158.653 29.896V37H156.757V25.432H157.885C157.975 25.432 158.053 25.4373 158.117 25.448C158.186 25.4533 158.245 25.4693 158.293 25.496C158.346 25.5173 158.397 25.552 158.445 25.6C158.493 25.6427 158.546 25.7013 158.605 25.776L164.669 33.52C164.653 33.3333 164.639 33.1493 164.629 32.968C164.618 32.7867 164.613 32.6187 164.613 32.464V25.432H166.509ZM178.621 31.2V35.88C178.034 36.312 177.408 36.6293 176.741 36.832C176.08 37.0293 175.37 37.128 174.613 37.128C173.669 37.128 172.813 36.9813 172.045 36.688C171.282 36.3947 170.629 35.9867 170.085 35.464C169.546 34.9413 169.13 34.3173 168.837 33.592C168.544 32.8667 168.397 32.0747 168.397 31.216C168.397 30.3467 168.538 29.5493 168.821 28.824C169.104 28.0987 169.504 27.4747 170.021 26.952C170.544 26.4293 171.176 26.024 171.917 25.736C172.658 25.448 173.49 25.304 174.413 25.304C174.882 25.304 175.32 25.3413 175.725 25.416C176.136 25.4907 176.514 25.5947 176.861 25.728C177.213 25.856 177.533 26.0133 177.821 26.2C178.109 26.3867 178.373 26.592 178.613 26.816L177.997 27.792C177.901 27.9467 177.776 28.0427 177.621 28.08C177.466 28.112 177.298 28.072 177.117 27.96C176.941 27.8587 176.765 27.7573 176.589 27.656C176.413 27.5547 176.216 27.4667 175.997 27.392C175.784 27.3173 175.541 27.256 175.269 27.208C175.002 27.16 174.693 27.136 174.341 27.136C173.77 27.136 173.253 27.232 172.789 27.424C172.33 27.616 171.938 27.8907 171.613 28.248C171.288 28.6053 171.037 29.0347 170.861 29.536C170.685 30.0373 170.597 30.5973 170.597 31.216C170.597 31.8773 170.69 32.4693 170.877 32.992C171.069 33.5093 171.336 33.9493 171.677 34.312C172.024 34.6693 172.44 34.944 172.925 35.136C173.41 35.3227 173.952 35.416 174.549 35.416C174.976 35.416 175.357 35.3707 175.693 35.28C176.029 35.1893 176.357 35.0667 176.677 34.912V32.816H175.221C175.082 32.816 174.973 32.7787 174.893 32.704C174.818 32.624 174.781 32.528 174.781 32.416V31.2H178.621ZM186.666 32.632L185.258 28.784C185.188 28.6133 185.116 28.4107 185.042 28.176C184.967 27.9413 184.892 27.688 184.818 27.416C184.748 27.688 184.676 27.944 184.602 28.184C184.527 28.4187 184.455 28.624 184.386 28.8L182.986 32.632H186.666ZM190.466 37H188.802C188.615 37 188.463 36.9547 188.346 36.864C188.228 36.768 188.14 36.6507 188.082 36.512L187.218 34.152H182.426L181.562 36.512C181.519 36.6347 181.436 36.7467 181.314 36.848C181.191 36.9493 181.039 37 180.858 37H179.178L183.73 25.432H185.922L190.466 37ZM195.428 32.52V37H193.284V32.52L189.068 25.432H190.964C191.151 25.432 191.297 25.4773 191.404 25.568C191.516 25.6587 191.609 25.7733 191.684 25.912L193.796 29.776C193.919 30.0053 194.025 30.2213 194.116 30.424C194.212 30.6267 194.297 30.8293 194.372 31.032C194.441 30.8293 194.521 30.6267 194.612 30.424C194.703 30.2213 194.807 30.0053 194.924 29.776L197.028 25.912C197.087 25.7947 197.175 25.6853 197.292 25.584C197.409 25.4827 197.559 25.432 197.74 25.432H199.644L195.428 32.52Z" fill="url(#paint0_linear_1_21891)"/>
<g clip-path="url(#clip0_1_21891)">
<path d="M56.75 36.612V41.25C56.75 41.574 56.958 41.861 57.266 41.963C57.343 41.988 57.422 42 57.5 42C57.734 42 57.96 41.89 58.104 41.694L60.817 38.002L56.75 36.612Z" fill="url(#paint1_linear_1_21891)"/>
<path d="M71.685 19.139C71.455 18.976 71.153 18.954 70.903 19.085L48.403 30.835C48.137 30.974 47.98 31.258 48.002 31.557C48.025 31.857 48.224 32.113 48.507 32.21L54.762 34.348L68.083 22.958L57.775 35.377L68.258 38.96C68.336 38.986 68.418 39 68.5 39C68.636 39 68.771 38.963 68.89 38.891C69.08 38.775 69.209 38.58 69.242 38.361L71.992 19.861C72.033 19.581 71.915 19.303 71.685 19.139Z" fill="url(#paint2_linear_1_21891)"/>
</g>
<defs>
<filter id="filter0_d_1_21891" x="0" y="0" width="247" height="78" filterUnits="userSpaceOnUse" color-interpolation-filters="sRGB">
<feFlood flood-opacity="0" result="BackgroundImageFix"/>
<feColorMatrix in="SourceAlpha" type="matrix" values="0 0 0 0 0 0 0 0 0 0 0 0 0 0 0 0 0 0 127 0" result="hardAlpha"/>
<feOffset dy="8"/>
<feGaussianBlur stdDeviation="8"/>
<feComposite in2="hardAlpha" operator="out"/>
<feColorMatrix type="matrix" values="0 0 0 0 1 0 0 0 0 1 0 0 0 0 1 0 0 0 0.35 0"/>
<feBlend mode="normal" in2="BackgroundImageFix" result="effect1_dropShadow_1_21891"/>
<feBlend mode="normal" in="SourceGraphic" in2="effect1_dropShadow_1_21891" result="shape"/>
</filter>
<linearGradient id="paint0_linear_1_21891" x1="80" y1="21" x2="85.8695" y2="58.0707" gradientUnits="userSpaceOnUse">
<stop stop-color="#3EED8B"/>
<stop offset="1" stop-color="#0A9949"/>
</linearGradient>
<linearGradient id="paint1_linear_1_21891" x1="56.75" y1="36.612" x2="61.9317" y2="40.5233" gradientUnits="userSpaceOnUse">
<stop stop-color="#3EED8B"/>
<stop offset="1" stop-color="#0A9949"/>
</linearGradient>
<linearGradient id="paint2_linear_1_21891" x1="48" y1="18.9999" x2="67.6722" y2="42.6065" gradientUnits="userSpaceOnUse">
<stop stop-color="#3EED8B"/>
<stop offset="1" stop-color="#0A9949"/>
</linearGradient>
<clipPath id="clip0_1_21891">
<rect width="24" height="24" fill="white" transform="translate(48 19)"/>
</clipPath>
</defs>
</svg>
