<svg width="170" height="170" viewBox="0 0 170 170" fill="none" xmlns="http://www.w3.org/2000/svg">
<g filter="url(#filter0_d_1_21746)">
<rect x="37" y="49.4468" width="79" height="79" rx="15" transform="rotate(-15 37 49.4468)" fill="white"/>
</g>
<path d="M78.361 57.579C78.6639 56.7201 79.7349 56.4331 80.4267 57.0255L89.0246 64.3884C89.2511 64.5824 89.5375 64.6923 89.8356 64.6997L101.152 64.9812C102.062 65.0038 102.666 65.9337 102.317 66.7747L97.9709 77.2271C97.8565 77.5024 97.8404 77.8087 97.9255 78.0945L101.155 88.9439C101.415 89.8168 100.717 90.6785 99.8089 90.6058L88.5252 89.7028C88.228 89.6791 87.9317 89.7585 87.6862 89.9277L78.3657 96.3515C77.6158 96.8684 76.5807 96.471 76.3692 95.5851L73.7412 84.5747C73.672 84.2847 73.5049 84.0274 73.2681 83.8462L64.2785 76.967C63.5551 76.4135 63.6132 75.3062 64.3904 74.8314L74.0498 68.9295C74.3043 68.7741 74.4973 68.5356 74.5965 68.2545L78.361 57.579Z" fill="#FFB800"/>
<defs>
<filter id="filter0_d_1_21746" x="0.799805" y="0.799805" width="169.155" height="169.155" filterUnits="userSpaceOnUse" color-interpolation-filters="sRGB">
<feFlood flood-opacity="0" result="BackgroundImageFix"/>
<feColorMatrix in="SourceAlpha" type="matrix" values="0 0 0 0 0 0 0 0 0 0 0 0 0 0 0 0 0 0 127 0" result="hardAlpha"/>
<feOffset dy="8"/>
<feGaussianBlur stdDeviation="20"/>
<feComposite in2="hardAlpha" operator="out"/>
<feColorMatrix type="matrix" values="0 0 0 0 0 0 0 0 0 0 0 0 0 0 0 0 0 0 0.15 0"/>
<feBlend mode="normal" in2="BackgroundImageFix" result="effect1_dropShadow_1_21746"/>
<feBlend mode="normal" in="SourceGraphic" in2="effect1_dropShadow_1_21746" result="shape"/>
</filter>
</defs>
</svg>
