<svg width="967" height="94" viewBox="0 0 967 94" fill="none" xmlns="http://www.w3.org/2000/svg">
<rect x="483.25" y="3.25" width="0.500004" height="87.5" stroke="url(#paint0_linear_1_21622)" stroke-width="0.500004"/>
<path d="M966.667 91C966.667 89.5272 965.473 88.3333 964 88.3333C962.527 88.3333 961.333 89.5272 961.333 91C961.333 92.4728 962.527 93.6667 964 93.6667C965.473 93.6667 966.667 92.4728 966.667 91ZM486.667 2.99996C486.667 1.5272 485.473 0.333294 484 0.333294C482.527 0.333294 481.333 1.52719 481.333 2.99996C481.333 4.47272 482.527 5.66662 484 5.66662C485.473 5.66662 486.667 4.47272 486.667 2.99996ZM920.5 47L528.5 47L528.5 48L920.5 48L920.5 47ZM528.5 47C504.199 47 484.5 27.3005 484.5 2.99996L483.5 2.99996C483.5 27.8528 503.647 48 528.5 48L528.5 47ZM964.5 91C964.5 66.6995 944.801 47 920.5 47L920.5 48C944.248 48 963.5 67.2517 963.5 91L964.5 91Z" fill="url(#paint1_linear_1_21622)"/>
<path d="M0.333337 91C0.333337 89.5272 1.52724 88.3333 3 88.3333C4.47276 88.3333 5.66667 89.5272 5.66667 91C5.66667 92.4728 4.47276 93.6667 3 93.6667C1.52724 93.6667 0.333336 92.4728 0.333337 91ZM480.333 3.00004C480.333 1.52728 481.527 0.333378 483 0.333378C484.473 0.333378 485.667 1.52728 485.667 3.00004C485.667 4.47281 484.473 5.66671 483 5.66671C481.527 5.66671 480.333 4.4728 480.333 3.00004ZM46.5 47L438.5 47L438.5 48L46.5 48L46.5 47ZM438.5 47C462.801 47 482.5 27.3006 482.5 3.00004L483.5 3.00004C483.5 27.8529 463.353 48 438.5 48L438.5 47ZM2.5 91C2.5 66.6995 22.1995 47 46.5 47L46.5 48C22.7518 48 3.5 67.2518 3.5 91L2.5 91Z" fill="url(#paint2_linear_1_21622)"/>
<path d="M486.167 91C486.167 89.5272 484.973 88.3333 483.5 88.3333C482.027 88.3333 480.833 89.5272 480.833 91C480.833 92.4728 482.027 93.6667 483.5 93.6667C484.973 93.6667 486.167 92.4728 486.167 91ZM486.167 3C486.167 1.52724 484.973 0.333336 483.5 0.333336C482.027 0.333336 480.833 1.52724 480.833 3C480.833 4.47276 482.027 5.66666 483.5 5.66666C484.973 5.66666 486.167 4.47276 486.167 3ZM484 91L484 3L483 3L483 91L484 91Z" fill="url(#paint3_linear_1_21622)"/>
<defs>
<linearGradient id="paint0_linear_1_21622" x1="483" y1="3" x2="485" y2="3.02272" gradientUnits="userSpaceOnUse">
<stop stop-color="#3EED8B"/>
<stop offset="1" stop-color="#0A9949"/>
</linearGradient>
<linearGradient id="paint1_linear_1_21622" x1="964" y1="91" x2="932.783" y2="-79.2768" gradientUnits="userSpaceOnUse">
<stop stop-color="#3EED8B"/>
<stop offset="1" stop-color="#0A9949"/>
</linearGradient>
<linearGradient id="paint2_linear_1_21622" x1="3" y1="91" x2="34.2174" y2="-79.2768" gradientUnits="userSpaceOnUse">
<stop stop-color="#3EED8B"/>
<stop offset="1" stop-color="#0A9949"/>
</linearGradient>
<linearGradient id="paint3_linear_1_21622" x1="483.5" y1="91" x2="481.5" y2="90.9773" gradientUnits="userSpaceOnUse">
<stop stop-color="#3EED8B"/>
<stop offset="1" stop-color="#0A9949"/>
</linearGradient>
</defs>
</svg>
