<svg width="486" height="94" viewBox="0 0 486 94" fill="none" xmlns="http://www.w3.org/2000/svg">
<path d="M485.667 3C485.667 4.47276 484.473 5.66667 483 5.66667C481.527 5.66667 480.333 4.47276 480.333 3C480.333 1.52724 481.527 0.333333 483 0.333333C484.473 0.333333 485.667 1.52724 485.667 3ZM5.66666 91C5.66666 92.4728 4.47275 93.6667 3 93.6667C1.52725 93.6667 0.333344 92.4728 0.333344 91C0.333344 89.5272 1.52725 88.3333 3 88.3333C4.47275 88.3333 5.66666 89.5272 5.66666 91ZM439.5 47H47.5V46H439.5V47ZM47.5 47C23.1995 47 3.5 66.6995 3.5 91H2.5C2.5 66.1472 22.6472 46 47.5 46V47ZM483.5 3C483.5 27.3005 463.801 47 439.5 47V46C463.248 46 482.5 26.7482 482.5 3H483.5Z" fill="url(#paint0_linear_1_21620)"/>
<defs>
<linearGradient id="paint0_linear_1_21620" x1="483" y1="3" x2="451.783" y2="173.277" gradientUnits="userSpaceOnUse">
<stop stop-color="#3EED8B"/>
<stop offset="1" stop-color="#0A9949"/>
</linearGradient>
</defs>
</svg>
